<svg width="20" height="20" viewBox="0 0 20 20" fill="none" xmlns="http://www.w3.org/2000/svg">
<path d="M10.3082 1.79121L17.8082 4.79119C18.0998 4.90786 18.3332 5.25785 18.3332 5.56618V8.33286C18.3332 8.79119 17.9582 9.16619 17.4998 9.16619H2.49984C2.0415 9.16619 1.6665 8.79119 1.6665 8.33286V5.56618C1.6665 5.25785 1.89984 4.90786 2.19151 4.79119L9.69151 1.79121C9.85817 1.72454 10.1415 1.72454 10.3082 1.79121Z" stroke="#FA9B25" stroke-width="1.25" stroke-miterlimit="10" stroke-linecap="round" stroke-linejoin="round"/>
<path d="M18.3332 18.3333H1.6665V15.8333C1.6665 15.375 2.0415 15 2.49984 15H17.4998C17.9582 15 18.3332 15.375 18.3332 15.8333V18.3333Z" stroke="#FA9B25" stroke-width="1.25" stroke-miterlimit="10" stroke-linecap="round" stroke-linejoin="round"/>
<path opacity="0.4" d="M3.3335 15.0003V9.16699" stroke="#FA9B25" stroke-width="1.25" stroke-miterlimit="10" stroke-linecap="round" stroke-linejoin="round"/>
<path opacity="0.4" d="M6.6665 15.0003V9.16699" stroke="#FA9B25" stroke-width="1.25" stroke-miterlimit="10" stroke-linecap="round" stroke-linejoin="round"/>
<path opacity="0.4" d="M10 15.0003V9.16699" stroke="#FA9B25" stroke-width="1.25" stroke-miterlimit="10" stroke-linecap="round" stroke-linejoin="round"/>
<path opacity="0.4" d="M13.3335 15.0003V9.16699" stroke="#FA9B25" stroke-width="1.25" stroke-miterlimit="10" stroke-linecap="round" stroke-linejoin="round"/>
<path opacity="0.4" d="M16.6665 15.0003V9.16699" stroke="#FA9B25" stroke-width="1.25" stroke-miterlimit="10" stroke-linecap="round" stroke-linejoin="round"/>
<path d="M0.833496 18.333H19.1668" stroke="#FA9B25" stroke-width="1.25" stroke-miterlimit="10" stroke-linecap="round" stroke-linejoin="round"/>
<path opacity="0.4" d="M10 7.08301C10.6904 7.08301 11.25 6.52336 11.25 5.83301C11.25 5.14265 10.6904 4.58301 10 4.58301C9.30964 4.58301 8.75 5.14265 8.75 5.83301C8.75 6.52336 9.30964 7.08301 10 7.08301Z" stroke="#FA9B25" stroke-width="1.25" stroke-miterlimit="10" stroke-linecap="round" stroke-linejoin="round"/>
</svg>
