<svg width="32" height="32" viewBox="0 0 32 32" fill="none" xmlns="http://www.w3.org/2000/svg">
<path d="M9.01323 29.3332H22.9866C26.6666 29.3332 28.1332 27.0798 28.3066 24.3332L28.9999 13.3198C29.1866 10.4398 26.8932 7.99984 23.9999 7.99984C23.1866 7.99984 22.4399 7.53317 22.0666 6.81317L21.1066 4.87984C20.4932 3.6665 18.8932 2.6665 17.5332 2.6665H14.4799C13.1066 2.6665 11.5066 3.6665 10.8932 4.87984L9.93323 6.81317C9.5599 7.53317 8.81323 7.99984 7.9999 7.99984C5.10656 7.99984 2.81323 10.4398 2.9999 13.3198L3.69323 24.3332C3.85323 27.0798 5.33323 29.3332 9.01323 29.3332Z" stroke="#2E2E34" stroke-width="2" stroke-linecap="round" stroke-linejoin="round"/>
<path opacity="0.4" d="M14 10.6665H18" stroke="#2E2E34" stroke-width="2" stroke-linecap="round" stroke-linejoin="round"/>
<path opacity="0.4" d="M16.0003 24.0002C18.387 24.0002 20.3337 22.0535 20.3337 19.6668C20.3337 17.2802 18.387 15.3335 16.0003 15.3335C13.6137 15.3335 11.667 17.2802 11.667 19.6668C11.667 22.0535 13.6137 24.0002 16.0003 24.0002Z" stroke="#2E2E34" stroke-width="2" stroke-linecap="round" stroke-linejoin="round"/>
</svg>
