<svg width="41" height="16" viewBox="0 0 41 16" fill="none" xmlns="http://www.w3.org/2000/svg">
<path d="M40.5 12.3133C40.5 12.7229 40.0735 13.6787 39.3911 13.6787C38.709 13.6787 34.999 13.6787 34.3166 13.6787C33.6342 13.6787 32.9519 13.1782 31.9924 13.1782C31.033 13.1782 10.3933 13.1782 8.70896 13.1782C7.02462 13.1782 4.5086 13.1782 3.90092 13.1782C3.29325 13.1782 1.84328 12.7685 1.20362 12.3133C0.563966 11.8581 0.5 11.7443 0.5 11.4484C0.5 11.1527 0.5 9.92378 0.5 9.65069C0.5 9.3776 1.26759 9.08185 1.26759 8.60394C1.26759 8.12604 1.26759 6.64672 1.26759 5.96399C1.26759 5.28127 7.02462 0.911857 8.85826 0.433952C10.6919 -0.0439532 18.7303 -0.0894214 20.8838 0.115395C23.0373 0.320211 27.6641 2.7552 30.5852 5.05379C33.7196 5.05379 37.0883 5.89422 38.5595 6.83952C40.0307 7.78481 40.5 9.40054 40.5 10.0833C40.5 10.766 40.5 12.3133 40.5 12.3133Z" fill="#4C4D58"/>
<path d="M40.1203 8.6436C40.3913 9.21954 40.5 9.75753 40.5 10.083C40.5 10.7658 40.5 12.3132 40.5 12.3132C40.5 12.7229 40.0735 13.6787 39.3911 13.6787C38.709 13.6787 34.999 13.6787 34.3166 13.6787C33.6342 13.6787 32.9519 13.1781 31.9924 13.1781C31.033 13.1781 10.3933 13.1781 8.70896 13.1781C7.02462 13.1781 4.5086 13.1781 3.90092 13.1781C3.29325 13.1781 1.84328 12.7685 1.20362 12.3132C0.563966 11.858 0.5 11.7442 0.5 11.4484C0.5 11.1526 0.5 9.9237 0.5 9.65061C0.5 9.37752 1.26759 9.08177 1.26759 8.60387C1.26759 8.18468 1.26759 6.99592 1.26759 6.24902L40.1203 8.6436Z" fill="#5D5E6C"/>
<path d="M17.6429 6.68646C17.3359 3.20049 16.8946 1.17335 16.8394 0.927979C16.8623 0.928115 16.8835 0.928115 16.9052 0.928251C16.9738 1.23602 17.4049 3.25497 17.7067 6.68004C18.0097 10.1199 17.7542 12.1814 17.7121 12.4836H17.6475C17.6846 12.2209 17.9488 10.1576 17.6429 6.68646Z" fill="#393941"/>
<path d="M29.0004 6.20097C28.8849 6.07398 28.8457 5.86002 28.8933 5.61383C28.9532 5.30346 29.134 5.0174 29.3229 4.93384L29.3474 4.99692C29.1765 5.07257 29.0118 5.33787 28.9558 5.62776C28.9127 5.85142 28.9455 6.04312 29.0462 6.15345C29.2375 6.36346 30.5865 6.58288 33.0558 6.80532C33.6148 6.8557 33.9681 6.86512 34.3421 6.87523C34.7714 6.88669 35.2154 6.89871 36.0195 6.97108C37.3341 7.0896 38.3994 7.39874 38.9719 7.56477C39.0618 7.59085 39.1405 7.61366 39.207 7.63209C39.3452 7.67005 39.4432 7.68439 39.5132 7.68643C39.5312 7.70801 39.5478 7.73013 39.5652 7.75198C39.5536 7.7528 39.5446 7.75539 39.532 7.75539C39.4436 7.75539 39.3297 7.73627 39.191 7.69818C39.1244 7.67974 39.0453 7.6568 38.9551 7.63059C38.3847 7.4651 37.323 7.15705 36.0141 7.03908C35.212 6.96685 34.769 6.95497 34.3404 6.9435C33.9653 6.93339 33.6113 6.92397 33.0503 6.87331C30.5306 6.6461 29.2057 6.42627 29.0004 6.20097Z" fill="#393941"/>
<path d="M9.5814 7.96579L9.60802 8.01249C9.99897 8.69836 10.644 9.6188 11.1623 10.3583C11.5545 10.918 11.8932 11.4015 12.029 11.6476C12.341 12.2137 12.7938 12.5519 13.2399 12.5519H27.7121C28.3123 12.5519 28.3229 11.8734 28.3325 11.2747C28.3336 11.2165 28.3343 11.1587 28.3357 11.1018C28.3515 10.4626 28.3373 6.5161 28.2073 5.70175C28.1015 5.03801 27.2085 4.18229 25.5532 3.15821C24.3211 2.39588 23.1687 1.80068 22.3085 1.48226C20.8179 0.930351 18.918 0.859622 17.4295 0.859622L16.982 0.860303C16.6692 0.860303 16.1837 0.851974 15.6214 0.842143C14.8792 0.829308 14.0378 0.814697 13.324 0.814697C12.6037 0.814697 12.1459 0.829718 11.9246 0.860441C11.1987 0.961483 8.61245 4.65255 8.50704 5.30919C8.41032 5.91149 8.90145 6.77322 9.5814 7.96579ZM8.57011 5.3208C8.66311 4.74199 11.2284 1.02634 11.9329 0.928167C12.1515 0.897717 12.6066 0.882969 13.3242 0.882969C14.0374 0.882969 14.8784 0.89758 15.6205 0.910415C16.1041 0.918881 16.5302 0.926118 16.8396 0.928029C16.8361 0.9126 16.8341 0.903587 16.8337 0.902358L16.8957 0.885701C16.8961 0.887339 16.8996 0.902496 16.9053 0.928167C16.9313 0.928303 16.958 0.92844 16.982 0.92844L17.4295 0.927756C18.913 0.927756 20.8058 0.998077 22.2875 1.54671C23.144 1.86377 24.2925 2.45705 25.5212 3.21719C27.1593 4.23063 28.0417 5.07037 28.1443 5.71322C28.2736 6.52375 28.2875 10.462 28.2718 11.1002C28.2704 11.1572 28.2695 11.2151 28.2686 11.2736C28.2592 11.8684 28.2496 12.4835 27.7121 12.4835H17.7121C17.7087 12.5075 17.7066 12.5219 17.7063 12.5234L17.6432 12.512C17.6434 12.5107 17.6449 12.5011 17.6475 12.4835H13.24C12.8168 12.4835 12.3846 12.158 12.0841 11.6128C11.9466 11.3634 11.6069 10.8786 11.2134 10.3172C10.6959 9.57893 10.0519 8.65999 9.66251 7.97686L9.63603 7.93016C8.96337 6.75042 8.47736 5.89783 8.57011 5.3208Z" fill="#393941"/>
<path d="M7.25908 8.25073C9.41408 8.25073 11.161 10.1152 11.161 12.4153C11.161 12.6759 11.1374 12.9304 11.0946 13.1778C9.86389 13.1778 9.00099 13.1778 8.70892 13.1778C7.02458 13.1778 4.50856 13.1778 3.90089 13.1778C3.77193 13.1778 3.6037 13.1583 3.41475 13.125C3.37765 12.8942 3.35718 12.6573 3.35718 12.4153C3.35718 10.1152 5.10408 8.25073 7.25908 8.25073Z" fill="#2E2E34"/>
<path d="M31.9925 13.1778C31.7697 13.1778 30.486 13.1778 28.6261 13.1778C28.5831 12.9304 28.5596 12.6759 28.5596 12.4153C28.5596 10.1152 30.3065 8.25073 32.4615 8.25073C34.6165 8.25073 36.3634 10.1152 36.3634 12.4153C36.3634 12.8558 36.2989 13.2799 36.1802 13.6784C35.3347 13.6784 34.587 13.6784 34.3165 13.6784C33.6342 13.6784 32.952 13.1778 31.9925 13.1778Z" fill="#2E2E34"/>
<path d="M32.4615 16.0001C34.3161 16.0001 35.8197 14.3954 35.8197 12.4158C35.8197 10.4363 34.3161 8.83154 32.4615 8.83154C30.6068 8.83154 29.1033 10.4363 29.1033 12.4158C29.1033 14.3954 30.6068 16.0001 32.4615 16.0001Z" fill="#393941"/>
<path d="M34.6928 13.2839C35.1414 11.9677 34.5055 10.5126 33.2723 10.0337C32.0392 9.55483 30.6758 10.2336 30.2272 11.5497C29.7785 12.8659 30.4144 14.3211 31.6476 14.7999C32.8807 15.2788 34.2441 14.6 34.6928 13.2839Z" fill="#C4C4C4"/>
<path d="M7.2592 16.0001C9.11387 16.0001 10.6174 14.3954 10.6174 12.4158C10.6174 10.4363 9.11387 8.83154 7.2592 8.83154C5.40452 8.83154 3.901 10.4363 3.901 12.4158C3.901 14.3954 5.40452 16.0001 7.2592 16.0001Z" fill="#393941"/>
<path d="M9.47233 13.3334C9.9475 12.0278 9.34114 10.5584 8.11797 10.0512C6.89481 9.54405 5.51804 10.1912 5.04287 11.4968C4.5677 12.8023 5.17406 14.2717 6.39723 14.7789C7.62039 15.2861 8.99716 14.6389 9.47233 13.3334Z" fill="#C4C4C4"/>
<path d="M39.359 7.84106C39.359 7.84106 39.7429 8.34164 39.8175 8.58059C39.8921 8.81954 39.8175 9.09263 39.5083 9.09263C39.1991 9.09263 37.9838 9.09263 37.6959 9.09263C37.4081 9.09263 36.8751 8.62619 36.5765 8.25069C36.2781 7.8752 35.8303 7.26075 35.9582 7.18101C36.0862 7.10154 37.7386 7.32902 39.359 7.84106Z" fill="white"/>
<path d="M38.4516 11.6645C38.5583 11.4384 38.8167 11.2549 39.0288 11.2549H40.5C40.5 11.8123 40.5 12.3131 40.5 12.3131C40.5 12.426 40.4664 12.581 40.4051 12.7455H38.3252C38.1132 12.7455 38.0279 12.5622 38.1347 12.3359L38.4516 11.6645Z" fill="#404040"/>
<path d="M30.5852 5.05355C30.5852 5.05355 29.6684 5.05355 29.4339 5.05355C29.1993 5.05355 28.8155 5.00808 28.453 4.76912C28.0907 4.53017 26.4728 3.233 25.4494 2.59288C24.4259 1.95276 23.846 1.62888 23.7543 1.58587C23.5904 1.50899 23.5184 1.28711 23.7303 1.28711C23.9142 1.28711 24.4032 1.28711 24.4032 1.28711C24.4032 1.28711 27.6322 2.66402 30.5852 5.05355Z" fill="#5D5E6C"/>
<path d="M26.9394 4.60999C27.1258 4.76551 27.3338 5.1903 26.9394 5.2131C26.5448 5.23591 18.8689 4.91735 18.5064 4.91162C18.144 4.90588 18.0374 4.67826 17.9734 4.41651C17.9095 4.15475 17.4616 1.76523 17.4403 1.56041C17.4191 1.35559 17.4191 1.16211 17.7495 1.16211C18.08 1.16211 20.628 1.26465 22.0565 1.75389C23.4851 2.24327 25.3828 3.31282 26.9394 4.60999Z" fill="#5D5E6C"/>
<path d="M16.4913 1.58351C16.4913 1.58351 16.5872 4.29159 16.5872 4.42814C16.5872 4.56468 16.5234 4.7923 16.2781 4.7923C16.0329 4.7923 8.27169 4.59882 7.95186 4.58748C7.63203 4.57601 7.48286 4.46227 7.53608 4.22332C7.58943 3.98437 9.32725 1.73152 10.7557 1.33309C12.1843 0.934787 15.905 1.16241 16.0862 1.16241C16.2674 1.16241 16.4794 1.24351 16.4913 1.58351Z" fill="#5D5E6C"/>
<path d="M6.59793 1.59033C6.84292 1.70175 7.18002 1.85509 7.25921 1.89018C7.38714 1.94699 7.36577 2.1746 7.01396 2.39075C6.66215 2.60704 5.53213 3.61965 5.08438 4.06342C4.63662 4.50719 4.33803 4.64373 4.0182 4.64373C3.82784 4.64373 3.05577 4.64373 2.46191 4.64373C3.54498 3.70445 5.18339 2.48319 6.59793 1.59033Z" fill="#5D5E6C"/>
<path d="M1.26756 8.60383C1.26756 8.16894 1.26756 6.90727 1.26756 6.1687C1.71929 6.1687 2.87694 6.1687 3.09058 6.1687C3.35719 6.1687 3.49574 6.27671 3.35719 6.68361C3.21851 7.09038 2.53625 8.18287 2.34436 8.34194C2.15246 8.50143 1.98193 8.6265 1.73668 8.6265C1.62833 8.6265 1.44091 8.6265 1.26526 8.6265C1.26577 8.61872 1.26756 8.61148 1.26756 8.60383Z" fill="#B50404"/>
<path d="M0.5 10.7143C0.5 10.5211 0.5 10.3194 0.5 10.1411H1.08964C1.23791 10.1411 1.35816 10.2695 1.35816 10.4279C1.35816 10.586 1.23791 10.7145 1.08964 10.7145H0.5V10.7143Z" fill="#B50404"/>
</svg>
