<svg width="17" height="16" viewBox="0 0 17 16" fill="none" xmlns="http://www.w3.org/2000/svg">
<path d="M16.0553 12.0525C13.3367 15.0716 9.18759 16.3814 5.22814 15.4706C4.97925 15.4136 4.72097 15.1751 4.65005 14.9506C4.111 13.2434 3.57195 11.5362 3.03291 9.82903C2.962 9.6042 3.10521 9.47842 3.35412 9.53551C7.31357 10.4463 11.4627 9.13642 14.1813 6.11734C14.3523 5.92769 14.5418 5.94839 14.6128 6.17322C15.1519 7.88041 15.6909 9.58762 16.23 11.2948C16.3009 11.5194 16.2263 11.8629 16.0553 12.0525Z" fill="#FDD38A"/>
<path d="M7.73436 15.9996C6.88214 15.9996 6.02343 15.9042 5.1729 15.7086C4.84647 15.6337 4.51416 15.333 4.41653 15.024L2.79938 9.90239C2.74099 9.71719 2.77129 9.54195 2.88247 9.4215C3.00112 9.29297 3.19276 9.24765 3.40833 9.29708C7.28157 10.1881 11.3398 8.90694 13.9992 5.95359C14.1474 5.78919 14.3303 5.7162 14.5013 5.75342C14.6616 5.78821 14.787 5.91433 14.8454 6.09941L16.4625 11.221C16.5601 11.53 16.4608 11.967 16.2364 12.2159C14.0423 14.6524 10.9364 15.9996 7.73436 15.9996ZM3.26953 9.76805L4.88264 14.8768C4.92881 15.023 5.12307 15.1957 5.28231 15.2322C6.09629 15.4194 6.91885 15.5108 7.73446 15.5108C10.7999 15.5109 13.7727 14.2214 15.8732 11.8887C15.8733 11.8887 15.8733 11.8887 15.8733 11.8886C15.9828 11.7672 16.0426 11.5143 15.9964 11.3682L14.3833 6.25943C14.3769 6.26537 14.3698 6.27242 14.3623 6.28076C12.1683 8.71734 9.06234 10.0644 5.8603 10.0645C5.00808 10.0645 4.1494 9.96911 3.29888 9.77347C3.28798 9.77096 3.27819 9.76922 3.26953 9.76805Z" fill="#393941"/>
<path d="M14.4821 7.87324C14.7802 8.81754 15.0784 9.76182 15.3766 10.7061C15.3416 10.7332 15.3067 10.7645 15.2723 10.8C14.9324 11.1506 14.7455 11.7549 14.8822 12.187C14.896 12.2309 14.9127 12.2709 14.9322 12.3074C12.5681 14.3906 9.42591 15.3825 6.29413 15.0342C6.28921 14.9932 6.2798 14.9508 6.26597 14.907C6.12978 14.4747 5.62961 14.0872 5.15011 13.9954C5.10144 13.9861 5.05503 13.9804 5.01082 13.9784C4.71266 13.0341 4.4145 12.0898 4.11633 11.1455C4.16518 11.1625 4.21403 11.1755 4.26269 11.1848C4.74221 11.2767 5.02167 10.9651 4.88525 10.5341C4.87141 10.4903 4.85371 10.4469 4.83217 10.4041C7.96395 10.7524 11.1061 9.76046 13.4702 7.67725C13.4772 7.72469 13.4876 7.77035 13.5014 7.81417C13.6373 8.2453 14.045 8.34001 14.3848 7.98949C14.4193 7.95395 14.4518 7.91521 14.4821 7.87324Z" fill="#FBB040"/>
<path d="M11.4861 11.7588C11.71 12.4669 11.3199 13.319 10.5754 13.5525C9.83186 13.7888 9.02309 13.3152 8.79979 12.6068C8.57495 11.8958 9.02035 11.2187 9.76392 10.9824C10.5084 10.749 11.2618 11.0475 11.4861 11.7588Z" fill="#FDD38A"/>
<path d="M7.50978 12.8121C7.62593 13.1793 7.3913 13.5012 6.98304 13.4995C6.57485 13.4985 6.14864 13.1739 6.0326 12.8067C5.91647 12.4387 6.15454 12.1672 6.5627 12.1682C6.97095 12.17 7.39369 12.444 7.50978 12.8121Z" fill="#FDD38A"/>
<path d="M12.66 11.1861C12.7759 11.5534 13.1528 11.6823 13.486 11.4464C13.8196 11.2112 13.9822 10.7008 13.8663 10.3335C13.7501 9.96555 13.3993 9.87999 13.0656 10.1152C12.7325 10.351 12.5437 10.8181 12.66 11.1861Z" fill="#FDD38A"/>
<path d="M14.3726 9.30832C12.2164 12.7515 8.3558 14.7582 4.29854 14.5449C4.04354 14.5316 3.74795 14.3413 3.63932 14.1325C2.81352 12.544 1.98771 10.9556 1.1619 9.3671C1.05323 9.1579 1.17256 9.00927 1.42758 9.02253C5.48485 9.2359 9.34539 7.22917 11.5017 3.78599C11.6374 3.56966 11.8276 3.55732 11.9364 3.7665C12.7622 5.35496 13.588 6.94342 14.4138 8.53188C14.5224 8.7408 14.5083 9.09204 14.3726 9.30832Z" fill="#FDD38A"/>
<path d="M4.88735 14.8047C4.68728 14.8047 4.48721 14.7994 4.28602 14.7889C3.95157 14.7715 3.57232 14.5327 3.42279 14.2452L0.945366 9.47979C0.855862 9.30747 0.855452 9.12963 0.944142 8.99178C1.03878 8.84473 1.21959 8.76686 1.44058 8.77843C5.40944 8.98728 9.1855 7.02447 11.2949 3.65625C11.4125 3.46876 11.5796 3.36583 11.7549 3.37236C11.9187 3.37897 12.064 3.48151 12.1536 3.65372L14.631 8.41911C14.7804 8.70661 14.7581 9.1541 14.5801 9.43799C12.4835 12.7858 8.81022 14.8047 4.88735 14.8047ZM1.38528 9.26628L3.8565 14.0197C3.92722 14.1557 4.14838 14.2923 4.31153 14.3008C4.50389 14.3109 4.69591 14.3159 4.88719 14.3159C8.64279 14.3159 12.1587 12.3835 14.1658 9.17859C14.1659 9.17854 14.1659 9.17848 14.1659 9.17843C14.2527 9.04001 14.268 8.78054 14.1973 8.64453L11.7261 3.8911C11.7208 3.89807 11.715 3.90625 11.7091 3.91577C9.61256 7.26351 5.93928 9.28213 2.01645 9.28233C1.81638 9.28234 1.61628 9.2771 1.41509 9.26652C1.40397 9.26596 1.39401 9.26593 1.38528 9.26628Z" fill="#393941"/>
<path d="M12.1009 5.46362C12.5576 6.34225 13.0144 7.22086 13.4712 8.09948C13.4414 8.13217 13.4125 8.16901 13.3847 8.20997C13.1105 8.61397 13.0308 9.24153 13.24 9.6435C13.2612 9.68429 13.2846 9.7209 13.3101 9.75341C11.3413 12.2136 8.41765 13.7332 5.27278 13.931C5.26084 13.8914 5.24426 13.8513 5.22306 13.8105C5.01427 13.4083 4.45469 13.113 3.96651 13.1053C3.91699 13.1046 3.87029 13.107 3.82638 13.1126C3.3696 12.234 2.91284 11.3554 2.45605 10.4767C2.50711 10.485 2.55748 10.4895 2.60701 10.4902C3.09519 10.4979 3.31664 10.1427 3.10782 9.74178C3.08663 9.70104 3.06171 9.66137 3.03309 9.62288C6.17797 9.42511 9.10163 7.90547 11.0704 5.44531C11.0854 5.49085 11.1036 5.53401 11.1248 5.57479C11.333 5.97599 11.7509 5.99887 12.0252 5.59493C12.053 5.55395 12.0783 5.5102 12.1009 5.46362Z" fill="#FBB040"/>
<path d="M9.82261 9.80829C10.1655 10.4671 9.92835 11.3738 9.23542 11.7323C8.54386 12.0935 7.66544 11.7667 7.32316 11.1075C6.97889 10.446 7.30065 9.70215 7.99223 9.34102C8.68518 8.98255 9.47889 9.14643 9.82261 9.80829Z" fill="#FDD38A"/>
<path d="M6.08702 11.5323C6.26484 11.8739 6.08934 12.2316 5.68691 12.3004C5.28469 12.3699 4.80882 12.1238 4.63111 11.7821C4.45316 11.4397 4.64077 11.1312 5.04296 11.0617C5.44539 10.993 5.9091 11.1899 6.08702 11.5323Z" fill="#FDD38A"/>
<path d="M10.8792 9.04164C11.0567 9.38338 11.4503 9.44526 11.7377 9.15541C12.0257 8.86616 12.0977 8.33526 11.9201 7.99357C11.7421 7.65118 11.3818 7.6275 11.0938 7.91675C10.8064 8.20658 10.7011 8.69928 10.8792 9.04164Z" fill="#FDD38A"/>
<path d="M11.084 4.193C11.2126 4.58706 11.3105 4.96209 11.3815 5.31691C11.4254 5.53062 11.4592 5.73829 11.4845 5.93842C11.5421 6.37742 11.5588 6.78424 11.5445 7.15779C11.5011 8.31244 11.1644 9.16192 10.8157 9.73944C10.5608 10.0813 10.286 10.4059 9.99606 10.7117C9.99542 10.7129 9.99449 10.7132 9.99449 10.7132C8.53761 12.2454 6.66224 13.3029 4.57711 13.709C4.33178 13.7567 4.02145 13.6538 3.88643 13.4924C2.86159 12.2629 1.83581 11.0337 0.810667 9.80329C0.675652 9.64192 0.754506 9.46634 0.98315 9.39825C4.61804 8.32554 7.5242 4.98062 8.32574 0.509277C8.37629 0.227811 8.54282 0.157812 8.70968 0.358336C9.23272 0.985618 9.757 1.61353 10.28 2.24081C10.28 2.24081 10.2803 2.24174 10.2819 2.24331C10.2951 2.26578 10.3818 2.4137 10.4692 2.63522C10.7251 3.1859 10.928 3.70512 11.084 4.193Z" fill="#FDD38A"/>
<path d="M4.44715 13.9656C4.16127 13.9656 3.86133 13.8438 3.69869 13.6494C3.2689 13.1338 2.83924 12.6186 2.4095 12.1033C1.81387 11.3891 1.21814 10.6747 0.622616 9.95994C0.511713 9.82736 0.473563 9.66583 0.518336 9.51709C0.567791 9.35284 0.711682 9.22423 0.913147 9.16424C4.56869 8.08543 7.3165 4.75268 8.08489 0.466367C8.14464 0.13369 8.32476 0.0388295 8.42684 0.0118745C8.50378 -0.00847216 8.70361 -0.0305163 8.89726 0.20225C9.15861 0.515686 9.4204 0.829456 9.68223 1.14323C9.94409 1.45705 10.2059 1.77087 10.4675 2.08453C10.471 2.08872 10.4743 2.09304 10.4776 2.09745C10.5497 2.19407 10.541 2.33158 10.4525 2.41822C10.3561 2.51256 10.2013 2.51091 10.1069 2.41442C10.1001 2.4075 10.0937 2.40007 10.0876 2.39222C9.82758 2.08037 9.56724 1.76836 9.30691 1.45635C9.05908 1.15934 8.81125 0.862324 8.56369 0.56545C8.1663 2.77022 7.24671 4.78259 5.90403 6.38538C4.5822 7.96323 2.90445 9.08618 1.05207 9.63286C1.0304 9.63929 1.0143 9.6465 1.00295 9.65283C1.59705 10.3659 2.19105 11.0781 2.78491 11.7903C3.21467 12.3056 3.64434 12.8208 4.07386 13.3361C4.14601 13.4223 4.36561 13.5012 4.53015 13.4693C6.54252 13.0774 8.37075 12.0662 9.81707 10.5451C9.81843 10.5436 9.81985 10.5421 9.82128 10.5407C10.1078 10.2383 10.3764 9.91966 10.6195 9.59359C10.7001 9.48543 10.8532 9.46303 10.9615 9.54373C11.0697 9.62441 11.0921 9.77753 11.0113 9.88573C10.7559 10.2283 10.4739 10.5628 10.1731 10.8801V10.88C10.1717 10.8815 10.1703 10.883 10.1688 10.8844C8.65251 12.4781 6.73508 13.5378 4.62356 13.9491C4.56634 13.9602 4.50703 13.9656 4.44715 13.9656Z" fill="#393941"/>
<path d="M11.0837 4.1932C11.2122 4.58726 11.3101 4.9623 11.3812 5.31711C11.3843 5.52832 11.4195 5.74374 11.4841 5.93862C11.5418 6.37762 11.5585 6.78444 11.5442 7.15799C10.3141 9.9184 8.08633 11.9831 5.39315 12.9051C5.37515 12.8708 5.35248 12.8379 5.32486 12.8057C5.05668 12.4823 4.48391 12.3567 4.02902 12.4777C3.98275 12.4903 3.93923 12.505 3.89939 12.5217C3.32478 11.8318 2.74954 11.1431 2.17493 10.4531C2.22296 10.4462 2.26889 10.4358 2.31364 10.4217C2.75517 10.2843 2.88257 9.87608 2.61406 9.5549C2.58737 9.52233 2.55724 9.49186 2.52369 9.4635C5.27149 8.27618 7.47685 5.75731 8.47076 2.46664C8.49848 2.51222 8.52811 2.55412 8.55936 2.59141C8.87002 2.96488 9.25621 2.86653 9.3792 2.34693C9.39118 2.29395 9.4004 2.23875 9.40595 2.18164C9.9651 2.85184 10.5245 3.52299 11.0837 4.1932Z" fill="#FBB040"/>
<path d="M8.6141 7.50396C9.10331 8.0901 9.12204 9.09394 8.57251 9.65342C8.02503 10.2153 7.14478 10.1411 6.68279 9.58655C6.21816 9.02988 6.3256 8.17733 6.84645 7.58347C7.36932 6.99209 8.12337 6.91494 8.6141 7.50396Z" fill="#FDD38A"/>
<path d="M5.66371 10.379C5.8998 10.6619 5.81684 11.0626 5.4626 11.2436C5.10875 11.4254 4.62436 11.3251 4.39548 11.0507C4.16613 10.7756 4.27334 10.4236 4.62002 10.2331C4.96715 10.0436 5.4273 10.0952 5.66371 10.379Z" fill="#FDD38A"/>
<path d="M9.36504 6.38767C9.62217 6.69629 10.0008 6.6502 10.1837 6.26362C10.3673 5.87761 10.2791 5.29123 10.0147 4.97411C9.74969 4.65641 9.41452 4.73504 9.2381 5.12966C9.06233 5.52475 9.10712 6.07861 9.36504 6.38767Z" fill="#FDD38A"/>
<path d="M10.4692 2.87956C10.3765 2.87956 10.288 2.82649 10.2469 2.73701C10.1922 2.61757 10.1319 2.49147 10.0627 2.35152C10.0044 2.23366 10.0499 2.09083 10.1655 2.02827C10.2812 1.96567 10.4256 2.00587 10.4923 2.11911C10.5178 2.16233 10.6078 2.32082 10.6964 2.54548C10.745 2.66862 10.6867 2.80807 10.5649 2.85995C10.5337 2.87326 10.5012 2.87956 10.4692 2.87956Z" fill="#393941"/>
<path d="M10.8156 9.73948C10.4288 10.3813 10.0266 10.6887 9.99596 10.7117C9.99532 10.713 9.99439 10.7133 9.99439 10.7133C11.2679 8.07442 9.23804 5.12946 9.23804 5.12946C10.9839 4.61005 10.7281 3.29666 10.4691 2.63525C12.1745 6.30282 11.5194 8.57215 10.8156 9.73948Z" fill="#FDD38A"/>
<path d="M9.99422 10.9577C9.92469 10.9577 9.85702 10.928 9.8098 10.8737C9.74563 10.8 9.73158 10.6951 9.77407 10.6071C10.972 8.12491 9.05608 5.29649 9.03658 5.2682C8.99219 5.20378 8.98129 5.12201 9.00734 5.04824C9.03336 4.97445 9.09314 4.91759 9.16811 4.89527C9.73418 4.72687 10.1108 4.45797 10.2875 4.09601C10.5127 3.63482 10.3866 3.09558 10.2413 2.72444C10.1931 2.6015 10.2513 2.46257 10.3727 2.41064C10.494 2.35869 10.6348 2.41253 10.6905 2.53228C11.4656 4.19917 11.8355 5.74711 11.7899 7.13306C11.7561 8.16028 11.4987 9.07967 11.0248 9.86572C10.6344 10.5134 10.2227 10.8457 10.1495 10.9019C10.1257 10.9214 10.0984 10.9366 10.069 10.946C10.0444 10.9539 10.0192 10.9577 9.99422 10.9577ZM9.60762 5.26025C9.79224 5.5742 10.0925 6.14154 10.3259 6.85597C10.6473 7.83986 10.7339 8.7847 10.587 9.64481C10.5934 9.63446 10.5998 9.62396 10.6061 9.61341C10.6061 9.61341 10.6061 9.61339 10.6061 9.61339C11.2352 8.56999 11.7163 6.81248 10.805 4.12099C10.7833 4.18455 10.7573 4.24783 10.7268 4.31044C10.5234 4.72708 10.1476 5.04571 9.60762 5.26025Z" fill="#393941"/>
</svg>
