<svg width="20" height="20" viewBox="0 0 20 20" fill="none" xmlns="http://www.w3.org/2000/svg">
<path d="M18.3083 15.2743C18.3083 15.5743 18.2416 15.8827 18.1 16.1827C17.9583 16.4827 17.775 16.766 17.5333 17.0327C17.125 17.4827 16.675 17.8077 16.1666 18.016C15.6666 18.2243 15.125 18.3327 14.5416 18.3327C13.6916 18.3327 12.7833 18.1327 11.825 17.7243C10.8666 17.316 9.90829 16.766 8.95829 16.0743C7.99996 15.3743 7.09163 14.5993 6.22496 13.741C5.36663 12.8743 4.59163 11.966 3.89996 11.016C3.21663 10.066 2.66663 9.11602 2.26663 8.17435C1.86663 7.22435 1.66663 6.31602 1.66663 5.44935C1.66663 4.88268 1.76663 4.34102 1.96663 3.84102C2.16663 3.33268 2.48329 2.86602 2.92496 2.44935C3.45829 1.92435 4.04163 1.66602 4.65829 1.66602C4.89163 1.66602 5.12496 1.71602 5.33329 1.81602C5.54996 1.91602 5.74163 2.06602 5.89163 2.28268L7.82496 5.00768C7.97496 5.21602 8.08329 5.40768 8.15829 5.59102C8.23329 5.76602 8.27496 5.94102 8.27496 6.09935C8.27496 6.29935 8.21663 6.49935 8.09996 6.69102C7.99163 6.88268 7.83329 7.08268 7.63329 7.28268L6.99996 7.94102C6.90829 8.03268 6.86663 8.14102 6.86663 8.27435C6.86663 8.34102 6.87496 8.39935 6.89163 8.46602C6.91663 8.53268 6.94163 8.58268 6.95829 8.63268C7.10829 8.90768 7.36663 9.26602 7.73329 9.69935C8.10829 10.1327 8.50829 10.5743 8.94163 11.016C9.39163 11.4577 9.82496 11.866 10.2666 12.241C10.7 12.6077 11.0583 12.8577 11.3416 13.0077C11.3833 13.0243 11.4333 13.0493 11.4916 13.0743C11.5583 13.0993 11.625 13.1077 11.7 13.1077C11.8416 13.1077 11.95 13.0577 12.0416 12.966L12.675 12.341C12.8833 12.1327 13.0833 11.9743 13.275 11.8743C13.4666 11.7577 13.6583 11.6993 13.8666 11.6993C14.025 11.6993 14.1916 11.7327 14.375 11.8077C14.5583 11.8827 14.75 11.991 14.9583 12.1327L17.7166 14.091C17.9333 14.241 18.0833 14.416 18.175 14.6243C18.2583 14.8327 18.3083 15.041 18.3083 15.2743Z" stroke="#FA9B25" stroke-width="1.25" stroke-miterlimit="10"/>
</svg>
