<svg width="16" height="16" viewBox="0 0 16 16" fill="none" xmlns="http://www.w3.org/2000/svg">
<path d="M7.99999 8.00016C9.84094 8.00016 11.3333 6.50778 11.3333 4.66683C11.3333 2.82588 9.84094 1.3335 7.99999 1.3335C6.15904 1.3335 4.66666 2.82588 4.66666 4.66683C4.66666 6.50778 6.15904 8.00016 7.99999 8.00016Z" stroke="#A92CCD" stroke-linecap="round" stroke-linejoin="round"/>
<path d="M12.8067 10.4933L10.4467 12.8534C10.3533 12.9467 10.2667 13.12 10.2467 13.2467L10.12 14.1467C10.0733 14.4733 10.3 14.7 10.6267 14.6533L11.5267 14.5267C11.6533 14.5067 11.8334 14.42 11.92 14.3267L14.28 11.9667C14.6867 11.56 14.88 11.0867 14.28 10.4867C13.6867 9.89334 13.2134 10.0867 12.8067 10.4933Z" stroke="#A92CCD" stroke-miterlimit="10" stroke-linecap="round" stroke-linejoin="round"/>
<path d="M12.4668 10.8335C12.6668 11.5535 13.2268 12.1135 13.9468 12.3135" stroke="#A92CCD" stroke-miterlimit="10" stroke-linecap="round" stroke-linejoin="round"/>
<path opacity="0.4" d="M2.27332 14.6667C2.27332 12.0867 4.84 10 8 10C8.69333 10 9.35998 10.1 9.97998 10.2867" stroke="#A92CCD" stroke-linecap="round" stroke-linejoin="round"/>
</svg>
