<svg width="37" height="44" viewBox="0 0 37 44" fill="none" xmlns="http://www.w3.org/2000/svg">
<path d="M36.4938 43.9998C36.4938 26.7649 37.3616 7.41553 18.5 7.41553C-0.361643 7.41553 0.506162 26.7649 0.506162 43.9998H36.4938Z" fill="#393941"/>
<path d="M25.9284 10.4635C26.9211 6.56869 24.3988 2.64763 20.2946 1.70558C16.1905 0.763525 12.0587 3.15722 11.0661 7.05205C10.0734 10.9469 12.5957 14.8679 16.6998 15.81C20.804 16.752 24.9357 14.3583 25.9284 10.4635Z" fill="#393941"/>
<path d="M18.7456 41.5423C24.8065 41.5423 29.72 36.8794 29.72 31.1275V22.8603C29.72 17.1085 24.8065 12.4456 18.7456 12.4456C12.6846 12.4456 7.77112 17.1085 7.77112 22.8603V31.1275C7.77073 36.8794 12.6842 41.5423 18.7456 41.5423Z" fill="#FEEAC7"/>
<path d="M6.41807 32.75C8.07586 32.75 9.41977 31.4746 9.41977 29.9014C9.41977 28.3281 8.07586 27.0527 6.41807 27.0527C4.76028 27.0527 3.41638 28.3281 3.41638 29.9014C3.41638 31.4746 4.76028 32.75 6.41807 32.75Z" fill="#FEEAC7"/>
<path d="M4.27444 30.0867C4.16709 30.0867 4.07996 30.004 4.07996 29.9021C4.07996 28.6784 5.12901 27.6829 6.41845 27.6829C6.52581 27.6829 6.61294 27.7655 6.61294 27.8674C6.61294 27.9693 6.52581 28.052 6.41845 28.052C5.34333 28.052 4.46893 28.8818 4.46893 29.9021C4.46893 30.004 4.3818 30.0867 4.27444 30.0867Z" fill="#393941"/>
<path d="M30.5809 32.75C32.2387 32.75 33.5826 31.4746 33.5826 29.9014C33.5826 28.3281 32.2387 27.0527 30.5809 27.0527C28.9231 27.0527 27.5792 28.3281 27.5792 29.9014C27.5792 31.4746 28.9231 32.75 30.5809 32.75Z" fill="#FEEAC7"/>
<path d="M32.7247 30.0867C32.6173 30.0867 32.5302 30.004 32.5302 29.9021C32.5302 28.8818 31.6558 28.052 30.5811 28.052C30.4737 28.052 30.3866 27.9693 30.3866 27.8674C30.3866 27.7655 30.4737 27.6829 30.5811 27.6829C31.8701 27.6829 32.9192 28.6784 32.9192 29.9021C32.9192 30.004 32.8324 30.0867 32.7247 30.0867Z" fill="#393941"/>
<path d="M4.15143 32.8979C4.0608 32.8979 3.9694 32.868 3.89549 32.8063C3.73368 32.6723 3.71734 32.439 3.85893 32.2855L4.70261 31.3704C4.84381 31.2172 5.09002 31.2013 5.25144 31.3357C5.41326 31.4697 5.4296 31.703 5.28802 31.8566L4.44434 32.772C4.36771 32.8551 4.25995 32.8979 4.15143 32.8979Z" fill="white"/>
<path d="M6.27508 33.6567C6.06037 33.6567 5.88611 33.4913 5.88611 33.2876V32.1362C5.88611 31.9325 6.06037 31.7671 6.27508 31.7671C6.48979 31.7671 6.66405 31.9325 6.66405 32.1362V33.2876C6.66405 33.4913 6.48979 33.6567 6.27508 33.6567Z" fill="white"/>
<path d="M32.8478 32.8983C32.7397 32.8983 32.6315 32.8554 32.5549 32.772L31.7112 31.8566C31.5696 31.7034 31.586 31.4701 31.7478 31.3357C31.9092 31.2013 32.155 31.2172 32.2966 31.3704L33.1403 32.2855C33.2819 32.439 33.2656 32.672 33.1037 32.8063C33.0298 32.868 32.9384 32.8983 32.8478 32.8983Z" fill="white"/>
<path d="M30.7243 33.6567C30.5096 33.6567 30.3353 33.4913 30.3353 33.2876V32.1362C30.3353 31.9325 30.5096 31.7671 30.7243 31.7671C30.939 31.7671 31.1133 31.9325 31.1133 32.1362V33.2876C31.1133 33.4913 30.939 33.6567 30.7243 33.6567Z" fill="white"/>
<path d="M30.8262 24.4751H16.2421L13.7321 21.3522L11.2808 24.4751H6.66406V22.0624C6.66406 15.7302 12.0731 10.5974 18.7451 10.5974C25.4176 10.5974 30.8262 15.7306 30.8262 22.0624V24.4751Z" fill="#393941"/>
<path d="M13.2383 8.20511C13.1523 8.20511 13.0737 8.15085 13.0508 8.06816C13.0232 7.9696 13.0846 7.86846 13.1885 7.84225C14.7934 7.4362 16.5807 7.23022 18.4999 7.23022C20.4191 7.23022 22.2064 7.4362 23.8117 7.84225C23.9156 7.86846 23.977 7.9696 23.9494 8.06816C23.9218 8.16709 23.816 8.22615 23.7113 8.19884C22.1387 7.80128 20.3852 7.59973 18.4999 7.59973C16.6142 7.59973 14.8611 7.80128 13.2888 8.19884C13.2713 8.2029 13.255 8.20511 13.2383 8.20511Z" fill="#FEEAC7"/>
</svg>
