<svg width="280" height="208" viewBox="0 0 280 208" fill="none" xmlns="http://www.w3.org/2000/svg">
<path d="M55.2638 177.325C85.7851 177.325 110.528 152.797 110.528 122.541C110.528 92.2842 85.7851 67.7566 55.2638 67.7566C24.7424 67.7566 0 92.2842 0 122.541C0 152.797 24.7424 177.325 55.2638 177.325Z" fill="#E7ECF4"/>
<path d="M149.819 80.1426C158.528 71.5092 158.527 57.511 149.817 48.8767C141.107 40.2423 126.986 40.2415 118.277 48.8748C109.568 57.5082 109.569 71.5064 118.279 80.1407C126.989 88.7751 141.11 88.7759 149.819 80.1426Z" fill="#E7ECF4"/>
<path d="M18.1597 57.6201C22.4648 57.6201 25.9548 54.1604 25.9548 49.8927C25.9548 45.625 22.4648 42.1653 18.1597 42.1653C13.8546 42.1653 10.3646 45.625 10.3646 49.8927C10.3646 54.1604 13.8546 57.6201 18.1597 57.6201Z" fill="#E7ECF4"/>
<path d="M243.234 72.8944C263.539 72.8944 280 56.5764 280 36.4472C280 16.318 263.539 0 243.234 0C222.928 0 206.467 16.318 206.467 36.4472C206.467 56.5764 222.928 72.8944 243.234 72.8944Z" fill="#E7ECF4"/>
<path d="M257.846 186.633C258.139 185.74 258.298 184.788 258.302 183.81C258.316 181.1 258.316 178.34 258.32 175.673V175.66C258.322 174.306 258.323 172.953 258.325 171.599L258.603 26.458C258.603 26.235 258.605 26.013 258.606 25.7889C258.613 25.0084 258.62 24.2556 258.565 23.5526C258.534 23.1538 258.483 22.7706 258.402 22.4059C258.321 22.0393 258.216 21.6815 258.089 21.3324V21.3315C257.157 18.7671 255.057 16.7503 252.497 16.0491C252.213 15.9714 251.921 15.9154 251.612 15.8741C251.035 15.7975 250.4 15.774 249.649 15.7695L183.332 15.3711C183.158 15.37 182.482 15.363 182.314 15.362C182.154 15.361 181.993 15.362 181.831 15.362C181.184 15.3641 180.549 15.4441 179.935 15.5944C179.679 15.658 179.426 15.7335 179.178 15.8208C177.305 16.4825 175.695 17.8257 174.702 19.6424C173.822 21.2475 173.644 23.0306 173.639 25.3831L173.338 183.083C173.336 184.311 173.559 185.522 173.983 186.633L257.846 186.633Z" fill="#E7ECF4"/>
<path d="M199.495 54.5698L199.153 55.8644L188.687 55.8014L188.676 61.5089C187.939 61.5519 187.219 61.664 186.344 61.8137C186.047 61.8642 185.727 61.9185 185.377 61.9746C183.761 62.2333 178.927 62.5999 173.568 62.9556L173.605 43.1323C177.192 43.891 182.345 45.3143 186.992 46.5974C187.882 46.8436 188.703 47.0685 189.461 47.2763L189.447 54.5094L199.495 54.5698Z" fill="#EFEFEF"/>
<path d="M258.573 54.1687L258.515 84.1626C254.476 85.9906 249.84 86.3969 245.685 88.0435C242.579 89.2751 239.797 91.1846 236.683 92.4004C233.331 93.7095 229.726 93.8516 226.186 94.2557C225.468 94.3372 224.744 94.4355 224.024 94.5595C223.617 94.6281 223.211 94.7056 222.808 94.794C222.339 94.8957 221.874 95.0114 221.415 95.1439C219.481 95.6996 217.666 96.5443 216.183 97.8843C215.692 98.3264 215.246 98.8172 214.738 99.2394C214.284 99.6175 213.786 99.9382 213.289 100.257C207.883 103.73 204.115 107.662 202.474 114.051C201.648 117.269 201.335 120.594 200.907 123.89C199.769 132.671 196.912 141.839 193.423 149.971C190.993 155.638 187.016 161.061 181.212 163.182C179.107 163.951 176.66 163.873 174.62 164.688C174.201 164.855 173.793 165.078 173.395 165.336L173.411 156.824C175.795 156.095 178.565 156.666 180.754 155.455C182.186 154.663 183.127 153.235 184.01 151.859C187.217 146.874 190.474 141.747 192.195 136.024C193.989 130.059 193.571 123.635 195.163 117.577C196.832 111.226 198.348 101.792 204.623 99.8119C206.798 96.2618 208.647 95.7469 212.787 95.1975C216.928 94.6481 216.862 93.0935 220.684 91.4251C220.697 91.4192 220.709 91.4144 220.722 91.4086C221.171 91.213 221.616 91.0134 222.062 90.8098C222.447 90.6355 222.833 90.4581 223.216 90.2769C226.52 88.7318 229.763 87.0381 233.031 85.4355C237.104 83.4371 241.504 82.8704 245.862 81.7658C250.232 80.6591 254.774 78.5589 256.735 74.5141C257.44 73.0589 257.746 71.2875 257.022 69.8355C256.721 69.2298 256.253 68.699 256.086 68.0447C255.825 67.0267 256.352 65.9701 256.281 64.9227C256.232 64.1882 255.896 63.5142 255.507 62.8784C255.417 62.7298 255.323 62.5843 255.23 62.4406C254.822 61.8106 254.407 61.1854 253.981 60.5652C251.727 57.2676 249.248 54.1206 246.568 51.1541C242.594 46.7547 237.86 42.5858 232.047 41.418C228.884 40.7823 225.535 41.0711 222.504 39.9624C220.384 39.1859 218.579 37.7757 217.081 36.0685C216.485 35.3909 215.938 34.6654 215.438 33.9144C215.253 33.636 215.074 33.3536 214.902 33.0694C212.002 28.2808 210.656 22.5771 211.115 17.0143C211.156 16.5044 211.222 15.9739 211.483 15.5403L218.455 15.5822C218.312 20.7048 219.713 25.879 222.468 30.2196C222.606 30.4365 222.747 30.6525 222.892 30.8655C223.249 31.3917 223.635 31.9091 224.047 32.407C226.092 34.8813 228.785 36.8809 231.931 37.2165C234.306 37.4696 236.705 36.7509 239.077 37.0305C241.299 37.2935 243.333 38.4149 245.152 39.7195C250.503 43.5557 254.411 49.0124 258.573 54.1687Z" fill="#EFEFEF"/>
<path d="M249.024 19.2512C248.875 19.3302 248.434 19.5615 247.752 19.9214C244.119 21.8337 233.642 27.349 224.023 32.4067C221.607 33.678 219.243 34.92 217.057 36.0683C210.771 39.3718 205.943 41.9025 205.481 42.1306C205.009 42.3627 204.952 42.5636 204.813 43.298C204.769 43.5286 204.719 43.7898 204.643 44.0578C204.447 44.7325 203.752 45.6411 203.113 46.3734C202.866 46.6561 202.628 46.9123 202.429 47.1193C202.331 47.2223 202.22 47.3361 202.099 47.4557C201.694 47.8618 201.177 48.3452 200.644 48.7594C200.361 48.9788 200.073 49.1793 199.794 49.3384C199.606 49.4459 199.422 49.5345 199.246 49.5976C198.42 49.8956 196.935 49.6104 189.46 47.5633C188.749 47.3685 187.985 47.1578 187.161 46.9308C182.435 45.6264 177.184 44.1759 173.605 43.4311L173.61 40.7155C176.765 41.3413 181.278 42.5515 185.633 43.748C185.729 43.7743 185.824 43.8005 185.92 43.8267C186.575 44.0073 187.225 44.1867 187.864 44.3633C192.07 45.5245 197.269 46.9599 198.453 47.036C199.399 46.5464 201.762 44.0482 202.08 43.2903C202.09 43.2549 202.099 43.2184 202.108 43.181C202.137 43.0617 202.162 42.9297 202.188 42.7917C202.292 42.2476 202.427 41.533 202.904 40.8718C203.205 40.4553 203.641 40.0602 204.29 39.7404C204.725 39.5259 209.34 37.1054 215.415 33.9141C217.611 32.7609 219.997 31.5063 222.444 30.2194C233.403 24.4573 245.603 18.0346 247.515 17.0277C247.666 16.9487 247.753 16.9029 247.77 16.894L249.024 19.2512Z" fill="white"/>
<path d="M202.405 50.0793L196.857 48.5054L197.071 47.7461L201.788 49.0845L202.747 44.0674L203.524 44.2183L202.405 50.0793Z" fill="white"/>
<path d="M209.365 57.2812L200.641 55.1223L200.829 54.3562L209.552 56.5151L209.365 57.2812Z" fill="white"/>
<path d="M180.94 68.2397L179.834 70.0389C179.897 70.0689 179.959 70.0999 180.018 70.1299C180.029 70.1359 180.041 70.1418 180.052 70.1478C181.149 70.7307 181.093 72.181 181.068 72.8044C181.062 72.9741 181.032 73.1396 180.985 73.3003C180.744 74.1198 180.069 74.7818 179.913 74.925L179.886 74.9495L173.534 80.4176L173.539 77.8017L178.572 73.4683C178.819 73.232 179.075 72.8625 179.091 72.7165C179.098 72.5321 179.098 72.384 179.094 72.2647C179.088 72.1127 179.076 72.007 179.062 71.9349V71.9339C179.055 71.8954 179.047 71.8667 179.04 71.8449C178.751 71.7011 178.422 71.5541 178.217 71.4641C178.098 71.411 178.021 71.378 178.019 71.377L177.476 71.1448L176.964 70.9256L179.241 67.2191L180.489 65.0053L181.608 63.0198L183.334 63.9923L182.875 64.8066L180.94 68.2397Z" fill="white"/>
<path d="M178.735 70.6914C178.729 70.7003 178.516 71.0167 178.217 71.4639C177.625 72.3464 176.695 73.7401 176.348 74.2827C175.799 75.1438 174.173 76.7139 174.104 76.7796L173.54 77.3021L173.542 76.2206L173.558 76.2059C173.569 76.1951 175.181 74.6397 175.679 73.8573C176.019 73.3255 176.883 72.0301 177.476 71.1446C177.806 70.6542 178.051 70.2895 178.078 70.2493L178.735 70.6914Z" fill="white"/>
<path d="M210.951 50.3638C210.95 50.364 210.947 50.3636 210.947 50.3626L209.819 50.0883L205.474 49.0323L203.24 48.4901C203.066 48.4474 202.893 48.4277 202.721 48.4272C202.43 48.4281 202.145 48.4868 201.882 48.5944C201.672 48.6809 201.474 48.8001 201.3 48.9461C201.081 49.1282 200.897 49.3545 200.762 49.6133C200.717 49.6995 200.677 49.7889 200.644 49.8819C200.623 49.94 200.603 50 200.587 50.0611L199.398 54.5688L199.142 55.5366L199.056 55.8638L197.814 60.5661L197.229 62.7806L196.889 64.0709L196.864 64.176C196.799 64.5483 196.724 64.9549 196.642 65.3775C196.335 66.9881 195.945 68.8394 195.648 69.9286C195.552 70.2794 195.465 70.5521 195.394 70.7108C195.226 71.0856 194.892 71.7941 194.505 72.614C193.825 74.0558 192.964 75.8827 192.336 77.311C191.514 76.8377 190.434 76.1912 189.523 75.5548C189.137 75.2866 188.418 74.7877 187.603 74.2336L187.602 74.2328C187.388 74.0877 187.169 73.9382 186.946 73.7878C185.691 72.9433 184.358 72.0739 183.704 71.737C182.754 71.2477 180.245 69.86 180.219 69.8459L180.052 70.148L179.062 71.9336L179.062 71.9345L178.93 72.174C178.944 72.1814 179.002 72.2134 179.094 72.2652C179.429 72.4491 180.215 72.8824 180.985 73.3001C181.558 73.612 182.123 73.9161 182.487 74.1026C183.334 74.5395 185.985 76.3334 187.998 77.7368C189.133 78.5291 190.471 79.315 191.365 79.8209C191.258 80.1612 191.163 80.4939 191.069 80.8223C190.758 81.9008 190.491 82.8321 189.971 83.5187C189.607 83.9992 188.851 85.2074 187.548 87.299C186.059 89.689 183.359 94.0238 182.48 95.0118C181.841 95.0824 180.608 94.9855 179.519 94.5882C179.076 94.4104 177.275 93.2895 174.847 91.7176C174.729 91.642 174.608 91.5634 174.488 91.485C174.172 91.2808 173.847 91.069 173.514 90.8516L173.509 94.0224C173.843 94.2383 174.172 94.449 174.49 94.6516C174.614 94.7314 174.736 94.8093 174.857 94.8853C176.679 96.0432 178.118 96.9091 178.602 97.0862C179.641 97.467 180.867 97.6806 181.925 97.6946C181.948 97.6953 181.97 97.6961 181.993 97.6957C182.523 97.6986 183.008 97.6517 183.404 97.549C183.586 97.5018 183.751 97.4423 183.954 97.2912L183.955 97.2909C184.673 96.7569 185.854 95.0742 189.818 88.7115C190.468 87.6689 191.096 86.6626 191.544 85.9653C191.797 85.5716 191.993 85.2774 192.105 85.1298C192.305 84.8665 192.476 84.5939 192.627 84.3123L192.628 84.311C193.099 83.4376 193.372 82.4895 193.637 81.5664C193.756 81.1516 193.878 80.7262 194.02 80.3014C195.83 79.7955 199.983 78.5709 201.211 77.6766C202.735 76.5674 205.433 73.073 206.2 71.8902C206.428 71.5373 206.684 71.0661 206.937 70.5629C207.285 69.8717 207.626 69.1208 207.881 68.5437C208.013 68.2417 208.123 67.9873 208.197 67.8135C208.258 67.6716 208.295 67.5819 208.303 67.5622L208.344 67.4627L208.397 67.2428L208.53 66.6765L208.688 66.006L210.41 58.6898L211.712 53.1593L212.294 50.6911L210.951 50.3638ZM208.251 56.1921L208.252 56.1931L208.07 56.9606L208.071 56.9616L207.226 60.5486L206.117 65.2602L205.96 65.9271L205.825 66.4973L205.793 66.6316C205.743 66.7521 205.681 66.8964 205.611 67.0583C205.516 67.277 205.406 67.527 205.288 67.7923C204.868 68.7281 204.333 69.8518 203.954 70.436C203.853 70.5915 203.727 70.7768 203.579 70.9818C202.555 72.4121 200.562 74.8429 199.63 75.5224C199.159 75.8648 197.355 76.5096 195.349 77.1288C195.862 76.0077 196.44 74.7819 196.923 73.7561C197.331 72.8881 197.655 72.2031 197.834 71.8047C197.958 71.5257 198.095 71.1019 198.234 70.5955C198.595 69.2789 198.976 67.4069 199.229 66.0833C199.286 65.789 199.336 65.5216 199.378 65.2945C199.424 65.048 199.46 64.848 199.486 64.7085C199.486 64.7085 199.486 64.7085 199.486 64.7075L199.636 64.1386L199.81 63.4806L200.388 61.2886L201.707 56.2934L201.931 55.4423L202.132 54.6794L202.133 54.6781L203.056 51.1849L208.937 52.6144L209.085 52.6507L208.251 56.1921Z" fill="white"/>
<path d="M186.836 75.3463L186.206 74.8663C186.215 74.8544 187.119 73.6659 187.474 72.7976C187.732 72.1679 188.03 70.8252 188.293 69.6404C188.402 69.1474 188.505 68.6817 188.6 68.2904C188.916 66.9897 189.265 62.6808 189.268 62.6375L190.057 62.7037C190.043 62.8833 189.7 67.1183 189.37 68.4792C189.277 68.8629 189.174 69.3249 189.066 69.8139C188.796 71.0293 188.491 72.407 188.207 73.0988C187.812 74.0638 186.876 75.2943 186.836 75.3463Z" fill="white"/>
<path d="M186.065 25.1549L185.274 25.1699L185.26 24.556L185.052 15.3816L185.844 15.3864L186.049 24.468L186.065 25.1549Z" fill="white"/>
<path d="M202.953 15.4891L202.937 23.9734L202.145 23.9686L202.161 15.4844L202.953 15.4891Z" fill="white"/>
<path d="M194.069 23.9199L193.278 23.9152L193.29 17.3467L202.554 17.4024L202.552 18.1918L194.08 18.1409L194.069 23.9199Z" fill="white"/>
<path d="M193.736 21.6154L193.622 20.8338L198.124 20.1972L199.065 20.3846L199.07 17.7761L199.861 17.7809L199.854 21.3462L198.104 20.9977L193.736 21.6154Z" fill="white"/>
<path d="M190.132 24.4593L189.34 24.4544L189.357 15.7412L190.148 15.746L190.132 24.4593Z" fill="white"/>
<path d="M189.356 15.9849L188.207 15.4006L189.968 15.4112L193.78 17.3495L193.864 17.3924L193.506 18.0958L193.289 17.985L190.147 16.3872L189.356 15.9849Z" fill="white"/>
<path d="M202.938 23.5424L202.896 45.3531L202.104 45.3484L202.144 24.4002L198.615 24.6918L197.691 23.9728L182.886 25.6128L182.264 25.682L181.978 24.7675L179.178 15.8213C179.427 15.734 179.679 15.6585 179.935 15.595L182.824 24.826L185.261 24.5564L186.049 24.4684L189.341 24.1043L190.133 24.0163L193.278 23.6681L194.07 23.58L197.922 23.1532L198.855 23.8792L202.146 23.6078L202.938 23.5424Z" fill="white"/>
<path d="M183.056 25.791L176.562 31.9322L176.344 32.1381L173.622 34.7121L173.625 32.6645L181.978 24.7671L182.032 24.7151L182.886 25.6123L183.056 25.791Z" fill="white"/>
<path d="M216.92 77.6102C217.447 80.0201 218.242 82.5214 218.944 84.7291C219.104 85.2323 219.26 85.7247 219.406 86.1894C219.59 86.7835 219.757 87.3351 219.887 87.8145C219.967 88.1071 220.052 88.445 220.141 88.8206C220.317 89.5657 220.508 90.4549 220.699 91.4083C220.937 92.6038 221.177 93.8998 221.392 95.1435C221.423 95.3203 221.452 95.4952 221.481 95.6681C221.678 96.8307 221.848 97.926 221.971 98.8217V98.8237C221.979 98.8858 221.988 98.9461 221.995 99.0063C222.011 99.1228 222.03 99.2434 222.05 99.3688C222.178 100.131 222.404 101.044 222.691 102.024C223.716 105.515 225.522 109.852 226.454 111.257C226.6 111.477 226.748 111.68 226.895 111.871C227.063 112.094 227.23 112.298 227.386 112.489C228.193 113.478 228.416 113.8 228.189 114.621C228.168 114.699 228.145 114.775 228.121 114.85C227.947 115.4 227.708 115.914 227.457 116.453C226.901 117.645 226.272 118.996 226.092 121.145C226.017 122.033 225.915 122.852 225.815 123.644C225.579 125.524 225.356 127.3 225.583 129.475C225.64 130.011 225.811 131.641 229.212 136.376C229.369 136.596 229.527 136.813 229.682 137.024C229.968 137.41 230.246 137.78 230.508 138.124C230.815 138.526 231.102 138.892 231.355 139.212C231.973 139.995 232.395 140.499 232.428 140.539L232.483 140.604L242.792 150.159C242.82 150.186 245.695 152.955 248.286 159.562C249.812 163.455 250.942 167.895 251.644 172.761C252.265 177.065 252.549 181.711 252.497 186.632H255.169C255.221 181.519 254.919 176.687 254.261 172.208C253.595 167.67 252.567 163.48 251.199 159.728C251.117 159.5 251.033 159.274 250.947 159.049C250.86 158.822 250.773 158.596 250.684 158.373C247.869 151.298 244.747 148.341 244.613 148.216L236.311 140.522L235.874 140.117L234.422 138.771C231.944 135.804 228.421 130.919 228.241 129.21C228.045 127.339 228.241 125.785 228.467 123.985C228.569 123.167 228.676 122.321 228.755 121.378C228.895 119.699 229.374 118.671 229.881 117.583C230.2 116.898 230.53 116.19 230.765 115.338C230.927 114.75 230.972 114.23 230.933 113.762C230.916 113.555 230.883 113.358 230.835 113.17C230.595 112.21 230.004 111.484 229.457 110.814C229.195 110.492 228.925 110.16 228.681 109.792C227.702 108.318 225.054 101.743 224.644 98.6669C224.632 98.579 224.621 98.4891 224.608 98.3983C224.496 97.5864 224.35 96.6353 224.182 95.6248C224.124 95.2761 224.063 94.9195 224.001 94.559C223.751 93.1178 223.47 91.6192 223.193 90.2765C223.054 89.5987 222.914 88.9604 222.782 88.3902C222.671 87.9159 222.565 87.488 222.464 87.1232C222.355 86.7229 222.225 86.283 222.081 85.8144C221.901 85.2242 221.699 84.5885 221.491 83.933C220.806 81.7807 220.031 79.3416 219.53 77.0522C219.106 75.1156 218.914 73.1389 218.827 71.7697C218.758 70.6957 218.754 69.995 218.754 69.9793L217.51 69.9777L216.082 69.9761C216.082 70.0225 216.084 70.3886 216.108 70.9787C216.166 72.3648 216.346 74.9858 216.92 77.6102Z" fill="white"/>
<path d="M188.058 117.71C187.842 117.937 185.897 119.91 184.129 119.33C183.999 119.288 183.879 119.243 183.768 119.199C183.274 118.995 182.96 118.773 182.678 118.571C182.258 118.272 181.896 118.013 180.881 117.83C180.408 117.76 177.605 118.106 173.461 118.703L173.463 117.605C177.241 117.065 179.092 116.85 180.033 116.774C180.798 116.712 180.962 116.742 181.071 116.762C181.44 116.829 181.743 116.907 182 116.993C182.619 117.198 182.967 117.445 183.308 117.688C183.63 117.918 183.91 118.117 184.465 118.299C184.516 118.316 184.568 118.328 184.621 118.336C185.562 118.482 186.864 117.383 187.268 116.961L188.058 117.71Z" fill="white"/>
<path d="M253.157 74.5281C252.606 74.8041 251.908 74.934 251.1 75.0851C249.859 75.3164 248.316 75.6052 247.561 76.4503C247.3 76.7438 247.007 77.0973 246.695 77.4714C244.976 79.5382 242.835 82.1117 240.275 82.0963C238.092 82.0832 231.242 83.8824 229.677 85.2575C228.13 86.6179 224.677 87.8089 222.781 88.3906C222.216 88.5648 221.789 88.6846 221.592 88.7387C221.568 88.7445 221.547 88.7503 221.53 88.7551L221.342 88.8063L221.147 88.8011C221.133 88.801 220.755 88.7939 220.141 88.8207C218.462 88.8925 215.019 89.2182 212.456 90.6336C211.381 91.2271 210.275 91.7839 209.204 92.3222C206.445 93.7098 203.838 95.0204 202.426 96.6174C200.528 98.7651 195.228 104.975 194.012 106.399C193.816 107.69 193.065 111.719 190.993 115.004C188.671 118.683 179.562 126.905 178.68 127.697L173.433 133.57L173.44 129.548L176.78 125.809L176.836 125.76C176.894 125.707 180.478 122.491 183.769 119.198C184.056 118.911 184.341 118.623 184.621 118.336C186.402 116.514 187.989 114.752 188.731 113.578C190.854 110.213 191.411 105.711 191.416 105.666L191.464 105.269L191.724 104.962C191.789 104.886 198.264 97.289 200.419 94.8508C200.76 94.465 201.142 94.1002 201.559 93.7524C202.065 93.3282 202.622 92.9289 203.217 92.5456C204.645 91.6256 206.292 90.7967 207.994 89.9416C209.042 89.415 210.125 88.8698 211.155 88.3008C213.914 86.7789 217.347 86.3219 219.406 86.1893C220.062 86.1459 220.578 86.1361 220.888 86.135C220.929 86.1343 220.965 86.1345 220.998 86.1347C221.329 86.0429 221.694 85.9346 222.081 85.8146C224.186 85.1592 226.913 84.1276 227.906 83.2552C228.212 82.9858 228.615 82.7198 229.09 82.4611L229.1 82.4553C232.151 80.7912 238.128 79.4189 240.28 79.4319C241.58 79.4396 243.493 77.1392 244.637 75.7645C244.963 75.3727 245.27 75.0025 245.562 74.6757C246.919 73.1523 249.046 72.7556 250.598 72.466C250.906 72.4086 251.238 72.3465 251.505 72.2829C251.454 72.1286 251.392 71.9566 251.337 71.8014C251.009 70.8877 250.56 69.6366 250.417 67.9562C250.239 65.8582 249.626 65.2033 249.499 65.09L249.489 65.085L249.398 65.0252C249.323 64.9764 249.246 64.9267 249.17 64.8769C248.268 64.2882 247.293 63.6528 246.278 62.9935C244.197 61.6439 241.948 60.1917 239.807 58.819C239.519 58.6348 239.233 58.4515 238.951 58.2712C238.188 57.7831 237.445 57.3099 236.734 56.8586C236.465 56.6883 236.202 56.5209 235.943 56.3575C234.493 55.439 233.209 54.6369 232.217 54.031C231.938 53.8616 231.683 53.7071 231.452 53.5695C230.827 53.1967 230.394 52.9523 230.21 52.8763L229.888 52.753C228.714 52.3038 228.644 52.2767 227.723 52.3689C227.255 52.4164 226.467 52.5499 225.633 52.6909C224.209 52.9311 222.601 53.2017 221.503 53.2404C221.47 53.2422 221.438 53.2429 221.407 53.2438C221.193 53.2484 220.95 53.2598 220.686 53.275C220.232 53.3019 219.718 53.3412 219.184 53.3814C217.714 53.494 216.194 53.6091 215.123 53.5376C214.155 53.4736 212.725 53.2952 211.712 53.1589C211.038 53.068 210.549 52.995 210.499 52.9888L210.879 50.3534C210.881 50.3534 210.905 50.3575 210.947 50.3627C210.948 50.3637 210.949 50.3637 210.95 50.3637C211.406 50.4295 213.917 50.7881 215.289 50.8792C216.169 50.9378 217.657 50.8244 218.971 50.7257C219.849 50.659 220.679 50.5959 221.334 50.5801C222.24 50.5589 223.868 50.2845 225.176 50.0634C226.094 49.9091 226.887 49.7747 227.444 49.7189C228.927 49.5689 229.439 49.7319 230.837 50.2672L231.16 50.3905C232.58 50.9299 244.871 58.899 249.564 61.9566C250.078 62.2912 250.501 62.5671 250.808 62.7683C251.07 62.9169 251.543 63.2613 251.995 63.9833C252.473 64.745 252.925 65.9269 253.079 67.7425C253.193 69.0764 253.558 70.095 253.852 70.9138C254.066 71.5101 254.251 72.0254 254.285 72.5337C254.347 73.4113 253.935 74.1381 253.157 74.5281Z" fill="white"/>
<path d="M226.52 61.0346L219.475 59.1816L220.983 51.8315L221.758 51.9928L220.401 58.6096L226.505 60.2151L231.807 58.6549L232.034 59.4121L226.52 61.0346Z" fill="white"/>
<path d="M237.433 67.7961C237.427 67.7264 236.871 60.8197 236.623 59.7189C236.375 58.6199 235.973 57.5898 235.969 57.5795L235.942 57.5097L235.946 55.3289L236.738 55.3336L236.734 57.3662C236.832 57.6263 237.169 58.5485 237.395 59.5485C237.656 60.7035 238.199 67.4496 238.222 67.7363L237.433 67.7961Z" fill="white"/>
<path d="M239.91 67.1497L238.803 56.8892L239.59 56.8079L240.697 67.0684L239.91 67.1497Z" fill="white"/>
<path d="M237.303 64.508C237.096 64.3725 235.266 63.1662 234.775 62.5634C234.679 62.4448 234.431 62.1944 234.145 61.9044C232.652 60.394 231.309 58.9596 231.267 58.0119C231.217 56.863 231.525 52.4692 231.539 52.2827L232.328 52.3414C232.325 52.3867 232.01 56.8765 232.058 57.9808C232.09 58.7026 233.924 60.5588 234.707 61.3515C235.033 61.6811 235.268 61.9191 235.389 62.0672C235.739 62.4977 237.202 63.4992 237.735 63.8488L237.303 64.508Z" fill="white"/>
<path d="M258.54 59.1104L258.535 61.9108C257.556 62.2217 256.535 62.5451 255.483 62.8783C254.351 63.2376 253.183 63.6075 251.995 63.9832C251.063 64.2786 250.12 64.5779 249.17 64.8771C248.46 65.1017 247.745 65.3274 247.031 65.553C224.571 72.6413 223.867 72.7072 223.529 72.7387C223.451 72.7461 223.366 72.7495 223.275 72.749C222.506 72.7444 221.237 72.4535 218.827 71.7699C218.436 71.6591 218.015 71.5381 217.561 71.4052C217.11 71.2742 216.627 71.1322 216.108 70.979C215.389 70.7664 214.603 70.5328 213.741 70.276C212.015 69.7624 210.061 69.1793 207.88 68.5435C207.048 68.3007 206.185 68.0499 205.288 67.7919C204.2 67.4795 203.066 67.1558 201.883 66.8231C200.923 66.5529 200.041 66.3068 199.23 66.0828C198.274 65.8176 197.416 65.5834 196.642 65.3775C193.087 64.4315 191.3 64.0696 189.943 64.015C189.663 64.0034 189.402 64.0048 189.147 64.017C188.47 64.0495 187.841 64.1572 187.039 64.2945C186.734 64.3459 186.406 64.4022 186.046 64.4593C185.403 64.563 184.296 64.6806 182.875 64.8064C182.154 64.8711 181.353 64.9373 180.489 65.0052C178.441 65.1656 176.047 65.3328 173.563 65.4974L173.568 62.8253C179.022 62.4653 183.975 62.0915 185.612 61.829C185.962 61.7728 186.281 61.7185 186.578 61.668C187.36 61.5345 188.02 61.4299 188.676 61.3786C190.58 61.2273 192.455 61.5128 197.229 62.7799C197.66 62.894 198.116 63.0171 198.597 63.1473C198.984 63.2532 199.387 63.3642 199.809 63.4803C200.663 63.7163 201.59 63.9745 202.598 64.2589C203.822 64.6037 204.995 64.9373 206.116 65.2599C207.006 65.5159 207.862 65.7647 208.687 66.0055C210.847 66.6372 212.783 67.2133 214.496 67.7239C218.756 68.9918 222.443 70.0935 223.25 70.0866C224.106 69.9102 229.752 68.1778 237.268 65.827C237.524 65.7466 237.781 65.6653 238.041 65.584C238.581 65.4155 239.128 65.2432 239.685 65.0689C239.939 64.9884 240.196 64.9081 240.454 64.8268C242.326 64.239 244.281 63.6242 246.278 62.9938C247.362 62.652 248.46 62.3053 249.564 61.9567C251.021 61.4957 252.491 61.0299 253.958 60.565C255.493 60.0789 257.026 59.5918 258.54 59.1104Z" fill="white"/>
<path d="M258.097 42.0059C258.257 42.3789 258.41 42.737 258.571 43.0853L258.564 46.7729C257.41 45.4209 256.854 44.122 256.278 42.7735C255.832 41.7308 255.371 40.6524 254.585 39.4192C254.107 38.6683 253.58 37.936 253.022 37.1609C250.832 34.1144 248.349 30.6605 248.079 24.8556C248.018 23.5448 247.901 21.833 247.752 19.9217C247.68 18.9967 247.6 18.0242 247.516 17.028C247.48 16.6084 247.443 16.1838 247.406 15.7563L249.393 15.7683C249.696 19.2603 249.953 22.5716 250.056 24.7718C250.226 28.4318 251.359 31.031 252.756 33.2783C253.108 33.8459 253.478 34.3918 253.852 34.926C254.11 35.2927 254.37 35.6544 254.629 36.0151C255.204 36.814 255.746 37.5681 256.254 38.3656C257.127 39.7363 257.643 40.9423 258.097 42.0059Z" fill="white"/>
<path d="M253.844 87.7168C255.537 87.3835 257.232 87.071 258.487 86.8438L258.482 89.5524C254.068 90.3548 249.763 91.2349 248.366 91.6803C248.358 91.7297 248.35 91.7789 248.343 91.8233C248.176 92.8861 247.897 94.6655 246.21 95.9629C244.27 97.4551 240.078 98.7276 237.413 98.6326C236.582 98.603 234.818 98.6259 232.949 98.6512C228.708 98.7067 226.071 98.7264 225.221 98.5308C225.001 98.4801 224.798 98.4364 224.608 98.3988C224.081 98.294 223.661 98.2352 223.33 98.2046C222.702 98.1455 222.389 98.1891 222.259 98.2209C222.163 98.3792 222.064 98.5927 221.971 98.822V98.823C221.899 99.0011 221.831 99.1902 221.772 99.3715C221.861 99.3711 221.954 99.3706 222.05 99.3692C222.509 99.3641 223.023 99.3504 223.497 99.3305C223.542 99.3287 223.586 99.3271 223.631 99.3253L223.67 100.146C223.67 100.147 223.67 100.148 223.67 100.148L223.758 101.988C223.42 102.002 223.055 102.016 222.691 102.024C222.327 102.034 221.964 102.039 221.625 102.037C220.973 102.033 220.411 102.003 220.114 101.927C219.612 101.799 219.219 101.435 219.036 100.93C218.581 99.669 219.631 97.2695 220.179 96.5239C220.48 96.1123 220.908 95.8287 221.481 95.6683C221.882 95.5572 222.356 95.5068 222.909 95.5169C223.293 95.5232 223.717 95.5603 224.182 95.6253C224.677 95.6954 225.219 95.7982 225.811 95.935C226.47 96.0712 230.341 96.0205 232.904 95.9865C234.887 95.9609 236.601 95.9377 237.499 95.9697C239.544 96.0451 243.113 94.9733 244.573 93.8501C245.422 93.198 245.572 92.2427 245.704 91.3998C245.778 90.9305 245.842 90.5253 246.03 90.1515C246.35 89.518 246.935 89.2491 249.16 88.7138C250.313 88.4366 251.889 88.1007 253.844 87.7168Z" fill="white"/>
<path d="M185.486 45.0981L185.205 45.0017L188.034 36.7142L202.469 30.448L202.588 30.7195L188.273 36.9338L185.486 45.0981Z" fill="white"/>
<path d="M178.19 34.1138L178.121 33.8256C178.222 33.8019 188.217 31.4445 189.618 29.9911C191.123 28.4304 193.045 29.3322 193.064 29.3414L193.112 29.3648L195.142 33.788L194.872 33.9104L192.888 29.5867C192.596 29.4626 191.077 28.9061 189.832 30.1969C188.371 31.7122 178.605 34.0164 178.19 34.1138Z" fill="white"/>
<path d="M183.796 37.3839C182.812 37.378 182.022 37.2757 181.437 37.0775C179.258 36.3396 176.028 31.7093 175.892 31.5126L176.136 31.345C176.169 31.3923 179.445 36.0908 181.531 36.7973C183.628 37.5071 188.08 36.6869 188.125 36.6785L188.181 36.9694C188.17 36.9715 187.03 37.1832 185.641 37.302C184.966 37.36 184.35 37.3872 183.796 37.3839Z" fill="white"/>
<path d="M216.925 66.9687L211.065 64.9402L213.355 54.8149L218.548 55.2244L216.925 66.9687Z" fill="#D6DAE2"/>
<path d="M175.869 39.1874L177.128 37.0281L180.985 38.7474L180.423 40.772L175.869 39.1874Z" fill="#D6DAE2"/>
<path d="M192.352 27.4567L195.906 26.7832L195.119 24.7939L192.356 25.2238L192.352 27.4567Z" fill="#D6DAE2"/>
<path d="M190.725 25.4778L187.175 26.0301L187.17 28.4384L190.721 27.7658L190.725 25.4778Z" fill="#D6DAE2"/>
<path d="M186.311 26.1646L184.403 26.4614L183.715 29.0931L186.307 28.6021L186.311 26.1646Z" fill="#D6DAE2"/>
<path d="M210.228 78.8016L204.797 77.7678L208.002 70.6826L214.385 72.5145L210.228 78.8016Z" fill="#D6DAE2"/>
<path d="M195.768 80.3622L203.493 79.2229L201.902 86.5282L194.556 83.9844L195.768 80.3622Z" fill="#D6DAE2"/>
<path d="M185.635 81.3145L182.201 90.6769L173.941 86.0585L181.425 77.6504L185.635 81.3145Z" fill="#D6DAE2"/>
<path d="M258.454 104.003L258.447 107.675L257.516 108.585L256.104 106.648L258.08 103.622L258.454 104.003Z" fill="#D6DAE2"/>
<path d="M247.103 110.413L245.412 110.697L245.848 113.351L247.958 112.497L247.103 110.413Z" fill="#D6DAE2"/>
<path d="M256.571 118.461L254.521 119.312L255.846 122.54L258.259 120.847L256.571 118.461Z" fill="#D6DAE2"/>
<path d="M258.443 109.666L258.443 109.735L258.412 109.686L258.443 109.666Z" fill="#D6DAE2"/>
<path d="M204.987 90.596L208.371 89.2259L206.591 86.2332L203.68 87.4119L204.987 90.596Z" fill="#D6DAE2"/>
<path d="M205.26 84.9466L210.68 84.5436L209.522 79.5059L204.858 79.8526L205.26 84.9466Z" fill="#D6DAE2"/>
<path d="M191.178 67.8256L193.855 68.9423L194.526 66.275L192.222 65.3142L191.178 67.8256Z" fill="#D6DAE2"/>
<path d="M186.335 70.9703L186.181 69.5994L184.908 69.9301L185.04 71.1096L186.335 70.9703Z" fill="#D6DAE2"/>
<path d="M190.165 74.5027L191.874 75.2155L193.055 71.7017L191.585 71.0884L190.165 74.5027Z" fill="#D6DAE2"/>
<path d="M183.861 65.2642L183.403 67.0498L187.063 67.732L187.457 66.1957L183.861 65.2642Z" fill="#D6DAE2"/>
<path d="M233.547 125.369L231.205 126.317L231.658 129.077L234.583 127.892L233.547 125.369Z" fill="#D6DAE2"/>
<path d="M215.192 82.1538L212.851 83.1021L213.304 85.8614L216.229 84.6771L215.192 82.1538Z" fill="#D6DAE2"/>
<path d="M247.149 148.173L249.358 146.531L250.166 148.025L248.49 149.964L247.149 148.173Z" fill="#D6DAE2"/>
<path d="M243.675 145.153L245.884 143.511L246.693 145.005L245.016 146.944L243.675 145.153Z" fill="#D6DAE2"/>
<path d="M254.353 114.243L252.131 115.285L253.434 117.231L255.346 116.335L254.353 114.243Z" fill="#D6DAE2"/>
<path d="M249.158 115.184L246.936 116.226L248.239 118.172L250.151 117.276L249.158 115.184Z" fill="#D6DAE2"/>
<path d="M252.804 111.743L251.331 109.077L249.083 110.816L250.377 113.103L252.804 111.743Z" fill="#D6DAE2"/>
<path d="M251.992 122.213L250.519 119.547L248.271 121.286L249.565 123.572L251.992 122.213Z" fill="#D6DAE2"/>
<path d="M235.743 130.107L232.531 131.408L233.066 134.667L236.983 133.128L235.743 130.107Z" fill="#D6DAE2"/>
<path d="M242.737 138.731L240.396 139.679L240.849 142.439L243.773 141.254L242.737 138.731Z" fill="#D6DAE2"/>
<path d="M251.007 149.991L248.649 152.522L250.51 155.258L253.406 152.215L251.007 149.991Z" fill="#D6DAE2"/>
<path d="M234.637 77.3742L237.972 76.2913L239.192 78.6828L234.896 79.8654L234.637 77.3742Z" fill="#D6DAE2"/>
<path d="M229.09 82.4611L226.671 79.9113L228.314 77.7993L231.237 81.1728L229.09 82.4611Z" fill="#D6DAE2"/>
<path d="M221.095 42.9633L227.745 42.3623L228.46 47.505L221.508 47.9002L221.095 42.9633Z" fill="#D6DAE2"/>
<path d="M235.921 45.1725L234.829 49.0002L230.035 48.0881L232.188 43.769L235.921 45.1725Z" fill="#D6DAE2"/>
<path d="M201.262 25.3188L201.322 29.9121L197.397 31.4053L196.905 26.0926L201.262 25.3188Z" fill="#D6DAE2"/>
<path d="M222.197 57.6891L222.776 53.8958L229.348 53.6909L229.729 57.919L226.354 58.7938L222.197 57.6891Z" fill="#D6DAE2"/>
<path d="M251.51 106.514L258.464 99.2317L258.462 100.094L252.048 106.811L251.838 107.031L251.545 107.125L242.271 110.111L241.704 110.295L230.933 113.762L229.697 114.161L229.691 114.163L229.599 113.881L229.506 113.599L229.65 113.553L229.706 113.535L230.835 113.171L251.51 106.514Z" fill="white"/>
<path d="M235.498 141.551L235.031 141.183L247.852 124.972L241.599 110.042L242.147 109.815L248.534 125.068L235.498 141.551Z" fill="white"/>
<path d="M252.048 106.811L258.43 117.072L258.427 118.19L251.545 107.125L251.422 106.928L251.927 106.617L252.048 106.811Z" fill="white"/>
<path d="M248.388 124.72L258.415 124.524L258.414 125.116L255.965 125.164L255.351 125.176L248.34 125.313L248.2 125.316L248.186 124.724L248.388 124.72Z" fill="white"/>
<path d="M250.947 159.05L258.37 148.351L258.368 149.397L251.199 159.728L250.386 160.901L249.898 160.562L250.947 159.05Z" fill="white"/>
<path d="M255.965 125.164L258.398 133.613L258.394 135.742L255.352 125.176L255.235 124.77L255.805 124.609L255.965 125.164Z" fill="white"/>
<path d="M215.687 145.934L206.858 111.638L208.406 111.49C208.969 111.436 222.274 110.199 229.993 112.61L229.205 115.152C223.475 113.363 213.948 113.774 210.227 114.023L217.495 142.254L231.238 136.357L232.303 138.805L215.687 145.934Z" fill="white"/>
<path d="M213.638 129.251C213.177 129.869 212.611 130.637 211.974 131.513C207.951 137.044 201.099 146.849 200.084 150.08L200.027 150.26C199.636 151.511 198.909 153.841 197.1 156.614C194.932 159.939 191.785 163.041 187.746 165.835C185.451 167.423 183.405 168.881 181.583 170.217C180.876 170.735 180.202 171.237 179.56 171.719C177.024 173.627 174.986 175.26 173.35 176.653L173.357 173.179C176.814 170.364 181.134 167.162 186.218 163.644C194.927 157.619 196.713 151.9 197.475 149.458L197.533 149.274C198.949 144.77 208.986 131.046 211.113 128.167C211.316 127.892 211.447 127.715 211.492 127.656L213.638 129.251Z" fill="white"/>
<path d="M220.115 148.421C220.639 148.486 221.092 148.542 221.271 148.719C221.399 148.845 221.696 149.312 221.693 150.919L221.625 186.633H224.297L224.365 150.935C224.369 148.957 223.981 147.652 223.146 146.828C222.315 146.009 221.271 145.881 220.431 145.777C219.513 145.665 218.867 145.586 218.352 144.791C218.175 144.519 218.015 144.163 217.863 143.692L215.319 144.496C215.486 145.014 215.679 145.461 215.891 145.847C217.102 148.052 218.944 148.277 220.115 148.421Z" fill="white"/>
<path d="M258.597 29.3472L258.593 31.7351L253.852 34.9256L253.029 35.4792L251.918 33.8414L252.756 33.278L258.597 29.3472Z" fill="white"/>
<path d="M181.96 117.397L179.991 117.194L182.077 96.1584L184.046 96.3606L181.96 117.397Z" fill="white"/>
<path d="M202.859 94.7636L190.432 85.1012L191.645 83.5466L204.071 93.209L202.859 94.7636Z" fill="white"/>
<path d="M248.613 66.2717L246.462 66.9766L248.012 71.6228L250.163 70.9179L248.613 66.2717Z" fill="#D6DAE2"/>
<path d="M245.561 67.2719L243.41 67.9768L244.96 72.623L247.11 71.9181L245.561 67.2719Z" fill="#D6DAE2"/>
<path d="M242.509 68.2739L240.358 68.9788L241.907 73.625L244.058 72.9201L242.509 68.2739Z" fill="#D6DAE2"/>
<path d="M218.707 43.2223L216.507 44.3879L213.584 38.932L215.784 37.7664L218.707 43.2223Z" fill="#D6DAE2"/>
<path d="M215.585 44.8763L213.385 46.042L210.462 40.586L212.662 39.4204L215.585 44.8763Z" fill="#D6DAE2"/>
<path d="M258.231 93.0759L257.139 96.9037L252.345 95.9915L254.498 91.6724L258.231 93.0759Z" fill="#D6DAE2"/>
<path d="M237.45 105.565L238.244 108.066L235.288 109.298L234.896 106.142L237.45 105.565Z" fill="#D6DAE2"/>
<path d="M231.75 105.154L229.55 106.32L226.627 100.864L228.827 99.6982L231.75 105.154Z" fill="#D6DAE2"/>
<path d="M212.463 46.5304L210.263 47.6961L207.34 42.2402L209.54 41.0745L212.463 46.5304Z" fill="#D6DAE2"/>
<path d="M223.547 79.5314L221.396 80.2363L222.945 84.8826L225.096 84.1777L223.547 79.5314Z" fill="#D6DAE2"/>
<path d="M205.963 59.5158L204.899 63.0976L201.303 62.0219L202.311 57.8079L205.963 59.5158Z" fill="#D6DAE2"/>
<path d="M229.719 63.3408L230.351 67.2524L223.401 68.9577L219.805 67.882L220.813 63.668L229.719 63.3408Z" fill="#D6DAE2"/>
<path d="M249.804 101.676L250.436 105.587L243.486 107.293L240.898 102.003L249.804 101.676Z" fill="#D6DAE2"/>
<path d="M239.854 74.1771L225.209 77.6096L220.296 78.3369L219.544 73.2252L224.074 74.2236L239.171 69.9116L239.854 74.1771Z" fill="#D6DAE2"/>
<path d="M249.537 56.9107L237.868 46.6375L235.279 51.9619L248.549 60.7573L249.537 56.9107Z" fill="#D6DAE2"/>
<path d="M232.29 118.823L232.869 115.03L239.44 114.825L239.822 119.053L236.447 119.928L232.29 118.823Z" fill="#D6DAE2"/>
<path d="M257.472 143.783L250.733 129.798L246.26 133.683L255.054 146.933L257.472 143.783Z" fill="#D6DAE2"/>
<path d="M233.138 184.436L235.029 163.097L227.053 164.116L228.091 186.198L233.138 184.436Z" fill="#D6DAE2"/>
<path d="M196.708 45.4039L188.464 43.5818L189.177 40.3154L197.421 42.1375L196.708 45.4039Z" fill="#D6DAE2"/>
<path d="M191.946 34.0572L190.513 30.7112L191.845 30.1482L193.278 33.4941L191.946 34.0572Z" fill="#D6DAE2"/>
<path d="M190.677 33.9661L188.77 31.9336L180.507 34.0917L184.702 36.4473L190.677 33.9661Z" fill="#D6DAE2"/>
<path d="M198.492 37.9175L198.487 40.4804L201.456 40.4982L201.461 37.9353L198.492 37.9175Z" fill="#D6DAE2"/>
<path d="M182.78 30.6536L181.991 28.3171L178.812 31.007L179.105 31.8755L182.78 30.6536Z" fill="#D6DAE2"/>
<path d="M200.429 19.7985L201.523 19.8051L201.525 18.7141L200.431 18.7075L200.429 19.7985Z" fill="#D6DAE2"/>
<path d="M200.426 21.4845L201.52 21.4911L201.522 20.4001L200.428 20.3936L200.426 21.4845Z" fill="#D6DAE2"/>
<path d="M194.998 19.766L196.092 19.7726L196.094 18.6816L195 18.675L194.998 19.766Z" fill="#D6DAE2"/>
<path d="M200.423 23.1706L201.517 23.1771L201.519 22.0862L200.425 22.0796L200.423 23.1706Z" fill="#D6DAE2"/>
<path d="M195.367 22.8441L196.461 22.8507L196.463 21.7597L195.369 21.7532L195.367 22.8441Z" fill="#D6DAE2"/>
<path d="M204.215 53.7357L204.508 52.4569L203.225 52.1589L202.931 53.4378L204.215 53.7357Z" fill="#D6DAE2"/>
<path d="M196.059 50.8053L195.899 52.9345L190.6 52.5173L190.76 50.3882L196.059 50.8053Z" fill="#D6DAE2"/>
<path d="M191.391 58.8943L191.84 56.939L190.581 56.6467L190.132 58.6022L191.391 58.8943Z" fill="#D6DAE2"/>
<path d="M197.402 58.1878L197.168 56.7175L195.695 56.9454L195.929 58.4156L197.402 58.1878Z" fill="#D6DAE2"/>
<path d="M194.716 61.1162L195.213 58.9503L193.039 58.4458L192.542 60.6117L194.716 61.1162Z" fill="#D6DAE2"/>
<path d="M206.199 54.1963L206.492 52.9173L205.209 52.6194L204.915 53.8983L206.199 54.1963Z" fill="#D6DAE2"/>
<path d="M208.183 54.6566L208.476 53.3778L207.192 53.0798L206.899 54.3588L208.183 54.6566Z" fill="#D6DAE2"/>
<path d="M190.632 19.5588L191.429 19.5636L191.431 18.7682L190.633 18.7634L190.632 19.5588Z" fill="#D6DAE2"/>
<path d="M190.629 21.2448L191.426 21.2496L191.428 20.4543L190.63 20.4495L190.629 21.2448Z" fill="#D6DAE2"/>
<path d="M190.625 22.9307L191.423 22.9355L191.424 22.1402L190.627 22.1355L190.625 22.9307Z" fill="#D6DAE2"/>
<path d="M191.975 19.5667L192.772 19.5715L192.774 18.7762L191.976 18.7715L191.975 19.5667Z" fill="#D6DAE2"/>
<path d="M191.971 21.2529L192.769 21.2577L192.77 20.4623L191.973 20.4575L191.971 21.2529Z" fill="#D6DAE2"/>
<path d="M191.968 22.9388L192.765 22.9436L192.767 22.1483L191.97 22.1436L191.968 22.9388Z" fill="#D6DAE2"/>
<path d="M186.726 20.3307L187.524 20.3355L187.525 19.5402L186.728 19.5354L186.726 20.3307Z" fill="#D6DAE2"/>
<path d="M186.723 22.0167L187.52 22.0215L187.522 21.2263L186.724 21.2214L186.723 22.0167Z" fill="#D6DAE2"/>
<path d="M186.72 23.7026L187.517 23.7074L187.519 22.912L186.721 22.9072L186.72 23.7026Z" fill="#D6DAE2"/>
<path d="M188.069 20.3388L188.866 20.3436L188.868 19.5483L188.07 19.5435L188.069 20.3388Z" fill="#D6DAE2"/>
<path d="M188.066 22.0246L188.863 22.0294L188.865 21.2341L188.067 21.2292L188.066 22.0246Z" fill="#D6DAE2"/>
<path d="M188.062 23.7108L188.86 23.7156L188.861 22.9203L188.064 22.9155L188.062 23.7108Z" fill="#D6DAE2"/>
<path d="M186.733 16.9252L187.53 16.9299L187.532 16.1347L186.734 16.1299L186.733 16.9252Z" fill="#D6DAE2"/>
<path d="M186.729 18.6113L187.527 18.6161L187.528 17.8207L186.731 17.8159L186.729 18.6113Z" fill="#D6DAE2"/>
<path d="M183.933 19.6325L184.73 19.5955L184.679 18.5964L183.882 18.6334L183.933 19.6325Z" fill="#D6DAE2"/>
<path d="M184.041 21.7505L184.837 21.7135L184.786 20.7144L183.99 20.7513L184.041 21.7505Z" fill="#D6DAE2"/>
<path d="M184.148 23.8686L184.945 23.8316L184.894 22.8325L184.098 22.8695L184.148 23.8686Z" fill="#D6DAE2"/>
<path d="M183.823 17.4724L184.62 17.4355L184.569 16.4363L183.773 16.4733L183.823 17.4724Z" fill="#D6DAE2"/>
<path d="M182.161 19.6218L182.958 19.5849L182.907 18.5857L182.111 18.6227L182.161 19.6218Z" fill="#D6DAE2"/>
<path d="M182.665 21.7423L183.461 21.7054L183.411 20.7063L182.614 20.7433L182.665 21.7423Z" fill="#D6DAE2"/>
<path d="M182.773 23.8604L183.569 23.8234L183.518 22.8242L182.722 22.8612L182.773 23.8604Z" fill="#D6DAE2"/>
<path d="M181.404 17.6541L182.337 17.2076L181.769 16.0356L180.836 16.4822L181.404 17.6541Z" fill="#D6DAE2"/>
<path d="M188.072 18.6193L188.87 18.6241L188.871 17.8288L188.074 17.824L188.072 18.6193Z" fill="#D6DAE2"/>
<path d="M178.809 98.0763L178.765 102.08L173.493 102L173.502 97.4988L178.809 98.0763Z" fill="#D6DAE2"/>
<path d="M174.895 103.507L174.849 107.705L178.702 107.764L178.752 103.243L174.895 103.507Z" fill="#D6DAE2"/>
<path d="M176.76 109.026L176.683 116.065L173.466 116.016L173.479 108.977L176.76 109.026Z" fill="#D6DAE2"/>
<path d="M188.335 95.8728L194.176 99.6541L191.49 102.943L186.205 99.522L188.335 95.8728Z" fill="#D6DAE2"/>
<path d="M184.924 109.539L184.098 111.048L187.596 113.49L188.872 111.159L184.924 109.539Z" fill="#D6DAE2"/>
<path d="M189.881 109.319L190.922 107.417L187.107 105.553L185.932 107.699L189.881 109.319Z" fill="#D6DAE2"/>
<path d="M177.507 141.781L179.29 143.801L184.719 140.001L181.966 136.881L177.507 141.781Z" fill="#D6DAE2"/>
<path d="M179.79 134.416L175.332 139.317L173.426 137.156L173.428 135.837L177.543 131.871L179.79 134.416Z" fill="#D6DAE2"/>
<path d="M192.257 90.3867L189.755 93.6372L195.461 97.017L197.829 93.3652L192.257 90.3867Z" fill="#D6DAE2"/>
<path d="M176.322 120.622L177.003 122.207L181.079 120.983L180.028 118.534L176.322 120.622Z" fill="#D6DAE2"/>
<path d="M175.559 123.841L173.445 127.101L173.453 122.716L175.559 123.841Z" fill="#D6DAE2"/>
<path d="M210.579 109.512L222.52 110.628L222.036 104.336L216.797 105.866L212.813 102.911L210.59 103.686L210.579 109.512Z" fill="#D6DAE2"/>
<path d="M211.402 114.874L215.288 128.343L223.987 124.356L225.897 116.528L211.402 114.874Z" fill="#EFEFEF"/>
<path d="M223.075 127.166L226.997 136.651L223.052 139.017L218.282 128.996L223.075 127.166Z" fill="#D6DAE2"/>
<path d="M217.289 137.446L220.184 136.781L221.341 140.462L217.767 141.262L217.289 137.446Z" fill="#D6DAE2"/>
<path d="M222.542 144.282L230.929 140.45L234.826 144.786L226.538 150.934L225.371 147.863L222.542 144.282Z" fill="#D6DAE2"/>
<path d="M237.572 147.356L242.065 150.734L237.941 154.212L233.213 150.757L237.572 147.356Z" fill="#D6DAE2"/>
<path d="M226.347 160.189L246.21 160.309L243.117 154.243L239.621 156.959L233.972 153.374L226.361 153.328L226.347 160.189Z" fill="#D6DAE2"/>
<path d="M240.411 131.424L245.97 125.006L243.532 120.411L236.748 122.251L240.411 131.424Z" fill="#D6DAE2"/>
<path d="M258.319 175.66L256.402 176.543L253.841 161.253L257.047 158.906L258.342 163.042L258.325 171.599C258.323 172.952 258.322 174.306 258.319 175.66Z" fill="#D6DAE2"/>
<path d="M191.813 117.361L191.791 128.837L186.131 138.391L179.702 128.765L191.813 117.361Z" fill="#D6DAE2"/>
<path d="M183.449 149.483L178.46 154.136L173.402 149.575L173.405 147.809L177.196 145.26L183.449 149.483Z" fill="#D6DAE2"/>
<path d="M203.965 115.437L202.065 131.194L208.509 128.429L207.739 114.634L203.965 115.437Z" fill="#D6DAE2"/>
<path d="M200.174 134.469L198.826 140.45L202.047 140.346L206.591 133.975L200.174 134.469Z" fill="#D6DAE2"/>
<path d="M211.837 134.539L214.839 144.084L204.385 144.856L211.837 134.539Z" fill="#D6DAE2"/>
<path d="M246.04 22.8992L246.725 32.1409L235.31 35.6065L227.064 32.9651L246.04 22.8992Z" fill="#EFEFEF"/>
<path d="M247.445 34.7473L250.158 42.5753L244.746 37.9442L238.614 35.6974L244.917 33.6433L247.445 34.7473Z" fill="#D6DAE2"/>
<path d="M210.541 31.4948L208.48 24.8743L204.542 25.3387L204.895 31.4609L210.541 31.4948Z" fill="#D6DAE2"/>
<path d="M204.999 33.2729L205.297 38.451L211.617 34.9519L211.106 33.3097L204.999 33.2729Z" fill="#D6DAE2"/>
<path d="M244.596 16.5751L238.161 19.5817L238.168 15.7007L244.318 15.7377L244.596 16.5751Z" fill="#D6DAE2"/>
<path d="M235.171 15.6828L235.162 20.8081L229.507 23.4503L229.522 15.7614L229.826 15.6506L235.171 15.6828Z" fill="#D6DAE2"/>
<path d="M227.027 16.6035L219.413 18.9557L222.202 25.9547L227.014 23.7065L227.027 16.6035Z" fill="#D6DAE2"/>
<path d="M177.557 172.11L177.344 171.045L203.887 165.865L223.206 171.175L222.921 172.221L203.849 166.979L177.557 172.11Z" fill="white"/>
<path d="M193.688 186.633L204.144 167.06L204.348 166.678L203.387 166.165L202.848 167.174L192.454 186.633H193.688Z" fill="white"/>
<path d="M192.995 163.437L195.173 165.596L201.846 163.609L197.251 158.171L192.995 163.437Z" fill="#D6DAE2"/>
<path d="M201.266 159.076L205.861 164.513L218.983 167.667L218.998 159.709L202.161 157.969L201.266 159.076Z" fill="#D6DAE2"/>
<path d="M178.247 186.633L180.721 183.226L177.296 180.745L179.545 176.876L177.865 175.659L173.344 179.716L173.338 183.083C173.336 184.311 173.559 185.522 173.983 186.633H178.247Z" fill="#D6DAE2"/>
<path d="M211.567 171.76L204.27 170.09L203.246 171.079L207.142 177.033L210.736 178.376L211.567 171.76Z" fill="#D6DAE2"/>
<path d="M215.072 172.562L214.18 179.664L219.786 181.761L220.777 173.868L215.072 172.562Z" fill="#D6DAE2"/>
<path d="M212.582 145.898L204.712 146.578L202.729 151.885L213.56 149.118L212.582 145.898Z" fill="#D6DAE2"/>
<path d="M214.844 150.541L204.013 153.308L202.27 155.464L219.108 157.203L219.12 150.694L214.844 150.541Z" fill="#D6DAE2"/>
<path d="M201.217 168.697L189.93 170.89L187.297 173.216L195.868 177.101L201.217 168.697Z" fill="#D6DAE2"/>
<path d="M185.536 174.958L179.841 179.988L190.528 184.467L194.107 178.843L185.536 174.958Z" fill="#D6DAE2"/>
<path d="M245.675 186.633L245.953 181.807L239.771 181.427L239.471 186.633H245.675Z" fill="#D6DAE2"/>
<path d="M239.905 179.102L240.225 173.551L246.407 173.931L246.087 179.481L239.905 179.102Z" fill="#D6DAE2"/>
<path d="M204.052 186.633L204.183 184.355L198.001 183.975L197.848 186.633H204.052Z" fill="#D6DAE2"/>
<path d="M240.359 171.225L240.679 165.675L246.861 166.055L246.541 171.605L240.359 171.225Z" fill="#D6DAE2"/>
<path d="M258.358 154.232L258.352 157.367L257.449 155.3L258.358 154.232Z" fill="#D6DAE2"/>
<path d="M258.089 21.3315V21.3325L252.231 25.2564L251.612 15.8743C251.921 15.9156 252.213 15.9716 252.498 16.0493C255.057 16.7504 257.157 18.7672 258.089 21.3315Z" fill="#D6DAE2"/>
<path d="M258.606 25.7891C258.605 26.0131 258.603 26.2351 258.603 26.4582L258.6 28.0281L254.131 30.9044L252.702 27.4796L258.565 23.553C258.62 24.2556 258.613 25.0086 258.606 25.7891Z" fill="#D6DAE2"/>
<path d="M232.375 137.247C231.619 136.22 230.895 135.169 230.191 134.105C229.638 133.267 229.099 132.419 228.605 131.544C228.234 130.89 227.814 130.191 227.635 129.454C227.321 128.165 227.513 126.542 227.656 125.197C227.833 123.544 227.932 121.82 228.252 120.191C228.49 118.975 229.005 117.894 229.508 116.774C229.974 115.735 230.464 114.588 230.228 113.427C229.982 112.208 228.98 111.354 228.297 110.375C227.83 109.706 227.484 108.955 227.147 108.216C226.178 106.086 225.353 103.875 224.685 101.633C224.032 99.4454 223.796 97.1985 223.412 94.9558C222.994 92.5141 222.557 90.0609 221.941 87.658C221.136 84.5195 219.96 81.4857 219.173 78.3389C218.487 75.6028 218.116 72.7637 218.104 69.9437C218.103 69.6263 217.893 69.434 217.649 69.381C217.656 69.3773 217.662 69.374 217.669 69.3703C211.948 67.6897 206.241 65.9713 200.497 64.377C200.502 64.7926 200.338 65.1802 200.072 65.4865C205.708 67.0505 211.309 68.7337 216.921 70.3837C216.96 72.5667 217.211 74.7753 217.634 76.9138C218.257 80.0614 219.334 83.1018 220.278 86.1656C220.987 88.4696 221.46 90.8305 221.899 93.1983C222.336 95.5589 222.551 97.9911 223.103 100.328C223.655 102.661 224.493 104.941 225.408 107.157C225.786 108.07 226.178 108.983 226.627 109.864C227.08 110.75 227.675 111.501 228.293 112.277C228.635 112.706 228.992 113.181 229.083 113.736C229.192 114.398 228.93 115.084 228.688 115.69C228.265 116.753 227.701 117.752 227.363 118.852C226.898 120.361 226.864 121.973 226.669 123.533C226.473 125.108 226.271 126.684 226.336 128.276C226.381 129.356 226.58 130.193 227.056 131.159C227.55 132.157 228.139 133.109 228.741 134.045C229.448 135.146 230.185 136.231 230.952 137.294C226.725 139.105 222.497 140.92 218.271 142.733C217.642 143.003 217.013 143.273 216.384 143.543C215.685 143.842 216.288 144.867 216.982 144.569C221.413 142.668 225.844 140.766 230.275 138.865C230.904 138.595 231.533 138.325 232.161 138.055C232.434 137.94 232.549 137.485 232.375 137.247Z" fill="url(#paint0_linear_734_15635)"/>
<path d="M216.558 124.108C212.232 124.083 208.72 127.557 208.712 131.87C208.708 134.011 210.184 137.249 211.892 139.967C216.839 138.91 221.183 136.242 224.337 132.544C224.36 132.343 224.371 132.149 224.371 131.963C224.38 127.651 220.881 124.134 216.558 124.108ZM216.532 136.513C213.987 136.498 211.927 134.427 211.932 131.89C211.937 129.35 214.005 127.304 216.55 127.32C219.096 127.334 221.155 129.405 221.151 131.945C221.146 134.483 219.079 136.528 216.532 136.513Z" fill="#A92CCD"/>
<path d="M224.337 132.544C223.851 137.009 218.26 144.961 216.516 144.951C215.6 144.945 213.625 142.723 211.892 139.967C216.839 138.91 221.183 136.242 224.337 132.544Z" fill="#A92CCD"/>
<path d="M217.726 124.668C213.847 124.937 210.593 127.666 209.302 131.426C209.789 127.576 213.091 124.614 217.083 124.638C217.3 124.639 217.514 124.649 217.726 124.668Z" fill="#F8E9FE"/>
<path d="M220.369 134.493C220.629 133.92 220.774 133.285 220.775 132.615C220.78 130.076 218.72 128.006 216.174 127.99C214.578 127.981 213.169 128.782 212.34 130.006C213.064 128.412 214.678 127.308 216.55 127.319C219.096 127.334 221.156 129.405 221.151 131.944C221.149 132.89 220.862 133.766 220.369 134.493Z" fill="#D77DF5"/>
<path opacity="0.11" d="M202.489 68.4732C204.887 66.0957 204.887 62.2412 202.489 59.8638C200.09 57.4863 196.202 57.4863 193.804 59.8638C191.406 62.2412 191.406 66.0957 193.804 68.4732C196.202 70.8506 200.09 70.8506 202.489 68.4732Z" fill="#EFEFEF"/>
<path opacity="0.15" d="M195.357 62.1094C196.503 60.581 198.683 60.2635 200.225 61.4002C201.766 62.5369 202.087 64.6974 200.94 66.2258C199.793 67.7542 197.614 68.0717 196.072 66.935C194.53 65.7983 194.21 63.6378 195.357 62.1094Z" fill="#EFEFEF"/>
<path d="M199.901 65.2225C200.492 64.2669 200.19 63.0171 199.226 62.431C198.262 61.8449 197.001 62.1445 196.41 63.1002C195.819 64.0559 196.121 65.3057 197.085 65.8917C198.049 66.4778 199.31 66.1782 199.901 65.2225Z" fill="#EFEFEF"/>
<path opacity="0.59" d="M241.828 177.769H186.739C182.267 177.769 178.641 174.175 178.641 169.741C178.641 165.308 182.267 161.714 186.739 161.714H241.828C246.3 161.714 249.925 165.308 249.925 169.741C249.925 174.175 246.3 177.769 241.828 177.769Z" fill="#373C47"/>
<path d="M241.828 177.769C246.3 177.769 249.926 174.175 249.926 169.741C249.926 165.308 246.3 161.714 241.828 161.714C237.355 161.714 233.73 165.308 233.73 169.741C233.73 174.175 237.355 177.769 241.828 177.769Z" fill="white"/>
<path d="M241.503 166.05L238.339 171.785C238.172 172.088 238.458 172.442 238.781 172.333L241.711 171.341C241.787 171.316 241.869 171.316 241.945 171.341L244.874 172.333C245.197 172.442 245.483 172.088 245.316 171.785L242.152 166.05C242.01 165.792 241.646 165.792 241.503 166.05Z" fill="#A92CCD"/>
<path d="M194.99 168.868H222.154C222.873 168.868 223.456 168.29 223.456 167.577C223.456 166.864 222.873 166.286 222.154 166.286H194.99C194.27 166.286 193.688 166.864 193.688 167.577C193.687 168.29 194.27 168.868 194.99 168.868Z" fill="white"/>
<path d="M194.99 173.677H227.27C227.99 173.677 228.573 173.099 228.573 172.386C228.573 171.673 227.99 171.095 227.27 171.095H194.99C194.27 171.095 193.688 171.673 193.688 172.386C193.687 173.099 194.27 173.677 194.99 173.677Z" fill="white"/>
<path opacity="0.8" d="M250.994 38.5089H177.573C176.948 38.5089 176.44 38.0062 176.44 37.386V26.3092C176.44 25.689 176.948 25.1863 177.573 25.1863H250.994C251.619 25.1863 252.126 25.689 252.126 26.3092V37.386C252.126 38.0062 251.619 38.5089 250.994 38.5089Z" fill="white"/>
<path opacity="0.8" d="M250.994 54.9246H177.573C176.948 54.9246 176.44 54.4218 176.44 53.8018V42.7249C176.44 42.1047 176.948 41.6021 177.573 41.6021H250.994C251.619 41.6021 252.126 42.1048 252.126 42.7249V53.8018C252.126 54.4218 251.619 54.9246 250.994 54.9246Z" fill="white"/>
<path d="M192.204 31.1232H228.012C228.48 31.1232 228.86 30.7471 228.86 30.2833C228.86 29.8194 228.48 29.4434 228.012 29.4434H192.204C191.736 29.4434 191.357 29.8194 191.357 30.2833C191.357 30.7471 191.736 31.1232 192.204 31.1232Z" fill="#C8C8C8"/>
<path d="M192.204 34.2519H234.458C234.926 34.2519 235.306 33.8758 235.306 33.4119C235.306 32.948 234.926 32.572 234.458 32.572H192.204C191.736 32.572 191.357 32.9481 191.357 33.4119C191.357 33.8758 191.736 34.2519 192.204 34.2519Z" fill="#C8C8C8"/>
<path d="M192.204 47.4414H228.012C228.48 47.4414 228.86 47.0654 228.86 46.6015C228.86 46.1375 228.48 45.7615 228.012 45.7615H192.204C191.736 45.7615 191.357 46.1375 191.357 46.6015C191.357 47.0654 191.736 47.4414 192.204 47.4414Z" fill="#C8C8C8"/>
<path d="M192.204 50.57H234.458C234.926 50.57 235.306 50.1939 235.306 49.7301C235.306 49.2662 234.926 48.8901 234.458 48.8901H192.204C191.736 48.8901 191.357 49.2662 191.357 49.7301C191.357 50.1939 191.736 50.57 192.204 50.57Z" fill="#C8C8C8"/>
<path opacity="0.11" d="M183.506 35.6744C185.641 35.0316 186.846 32.7945 186.198 30.6779C185.549 28.5612 183.293 27.3664 181.157 28.0092C179.022 28.652 177.817 30.889 178.465 33.0057C179.114 35.1224 181.37 36.3172 183.506 35.6744Z" fill="#FED302"/>
<path opacity="0.15" d="M184.451 32.7027C184.926 31.5415 184.362 30.2181 183.191 29.7468C182.019 29.2755 180.684 29.8347 180.209 30.9959C179.733 32.1571 180.298 33.4805 181.469 33.9518C182.64 34.4231 183.975 33.8639 184.451 32.7027Z" fill="#FED302"/>
<path d="M181.239 31.0508C181.683 30.4589 182.527 30.3361 183.124 30.7761C183.721 31.2163 183.845 32.0528 183.401 32.6446C182.957 33.2364 182.113 33.3594 181.516 32.9192C180.919 32.479 180.795 31.6426 181.239 31.0508Z" fill="#BC38E7"/>
<path opacity="0.11" d="M183.403 52.0375C185.553 51.446 186.813 49.2386 186.216 47.1071C185.619 44.9756 183.393 43.7272 181.242 44.3187C179.092 44.9101 177.833 47.1176 178.43 49.2491C179.026 51.3806 181.253 52.629 183.403 52.0375Z" fill="#FF203F"/>
<path opacity="0.15" d="M183.625 50.0309C184.666 49.3193 184.928 47.9062 184.21 46.8746C183.492 45.8431 182.067 45.5836 181.026 46.2951C179.985 47.0067 179.724 48.4198 180.441 49.4514C181.159 50.483 182.585 50.7424 183.625 50.0309Z" fill="#FF203F"/>
<path d="M181.239 47.3689C181.683 46.777 182.527 46.6542 183.124 47.0942C183.721 47.5343 183.845 48.3709 183.401 48.9627C182.957 49.5545 182.113 49.6774 181.516 49.2373C180.919 48.7972 180.795 47.9607 181.239 47.3689Z" fill="#5CE1E6"/>
<path d="M245.919 47.0934C244.933 48.0711 243.947 49.0489 242.96 50.0266C242.672 50.3121 243.119 50.7551 243.407 50.4696C244.393 49.4919 245.38 48.5142 246.366 47.5364C246.654 47.251 246.207 46.8078 245.919 47.0934Z" fill="#C8C8C8"/>
<path d="M242.96 47.5361C243.947 48.5138 244.933 49.4916 245.919 50.4693C246.207 50.7548 246.654 50.3118 246.366 50.0263C245.38 49.0485 244.394 48.0708 243.407 47.0931C243.119 46.8077 242.672 47.2506 242.96 47.5361Z" fill="#C8C8C8"/>
<path d="M243.234 30.2761C243.234 31.4271 243.234 32.5781 243.234 33.729C243.234 34.1112 243.832 34.1119 243.832 33.729C243.832 32.578 243.832 31.4271 243.832 30.2761C243.832 29.894 243.234 29.8933 243.234 30.2761Z" fill="#C8C8C8"/>
<path d="M242.692 31.4269C243.043 31.1133 243.394 30.7997 243.745 30.4862C243.604 30.4862 243.463 30.4862 243.321 30.4862C243.672 30.7997 244.023 31.1133 244.374 31.4269C244.66 31.6823 245.085 31.2636 244.798 31.0069C244.447 30.6933 244.096 30.3797 243.745 30.0661C243.62 29.9545 243.447 29.9539 243.321 30.0661C242.971 30.3797 242.62 30.6933 242.269 31.0069C241.982 31.2634 242.407 31.6824 242.692 31.4269Z" fill="#C8C8C8"/>
<path d="M246.343 33.7955C246.343 32.6445 246.343 31.4935 246.343 30.3425C246.343 29.9604 245.745 29.9597 245.745 30.3425C245.745 31.4935 245.745 32.6445 245.745 33.7955C245.745 34.1776 246.343 34.1783 246.343 33.7955Z" fill="#C8C8C8"/>
<path d="M244.78 33.0646C245.131 33.3782 245.482 33.6917 245.833 34.0053C245.958 34.1169 246.131 34.1176 246.257 34.0053C246.608 33.6917 246.959 33.3782 247.31 33.0646C247.597 32.8081 247.172 32.389 246.886 32.6445C246.535 32.9581 246.184 33.2717 245.833 33.5853C245.974 33.5853 246.116 33.5853 246.257 33.5853C245.906 33.2717 245.555 32.9581 245.204 32.6445C244.918 32.3893 244.493 32.808 244.78 33.0646Z" fill="#C8C8C8"/>
<path d="M233.606 191.298L186.803 191.158C186.427 191.158 186.031 191.162 185.593 191.171C185.152 191.177 184.664 191.183 184.174 191.183C184.011 191.183 183.846 191.183 183.682 191.181C182.421 191.165 180.763 191.089 179.085 190.635C172.508 188.861 167.921 182.605 167.934 175.423C167.932 175.126 167.933 174.787 167.937 174.394L167.939 173.336C167.941 173.103 167.941 172.869 167.942 172.636L167.943 172.277C167.947 171.923 167.95 171.572 167.95 171.218L168.209 97.2462C167.98 97.1394 167.768 96.9912 167.583 96.8055C167.186 96.4119 166.961 95.8778 166.956 95.3083L167.017 77.5496C167.017 76.9981 167.231 76.4704 167.62 76.0689L167.797 75.8862L167.875 75.8473C167.927 75.8075 167.98 75.7703 168.036 75.7359C167.899 75.6498 167.772 75.5479 167.655 75.4313C167.254 75.0333 167.028 74.4943 167.028 73.9213L167.058 65.281L167.09 56.1743C167.09 55.7444 167.223 55.3232 167.473 54.9615L167.484 54.9464C167.508 54.9117 167.534 54.8776 167.56 54.8448L167.752 54.4799L168.105 54.3616C168.182 54.3127 168.263 54.269 168.346 54.2306L168.323 48.6305C168.2 48.5596 168.084 48.4764 167.977 48.382C167.518 47.975 167.257 47.3931 167.257 46.7822L167.288 37.6401C167.294 37.0665 167.523 36.5232 167.919 36.1359C168.05 36.0054 168.197 35.8933 168.358 35.8016L168.396 27.2427C168.399 25.9832 168.475 24.8496 168.628 23.7795C168.97 21.3354 169.73 19.2437 170.952 17.3891C173.635 13.321 178.07 10.7781 182.817 10.5866C183.053 10.5769 183.301 10.5723 183.596 10.5723C183.799 10.5723 183.999 10.5745 184.197 10.5766L184.277 10.5776C184.384 10.5796 184.489 10.5803 184.595 10.5809L184.771 10.5822L248.138 10.7722C248.138 10.7722 248.357 10.7745 248.409 10.7754C250.296 10.798 251.77 11.0048 253.178 11.4459C257.653 12.8611 261.282 16.4286 262.889 20.9902C263.777 23.4991 263.766 26.0311 263.758 28.0657L263.724 38.152L263.72 39.354L263.645 61.2189V61.4582L263.641 62.4875C263.852 62.5709 264.049 62.6855 264.223 62.8285L264.254 62.8546C264.729 63.2671 264.998 63.8574 264.993 64.4742L264.96 74.028L264.954 75.6047L264.923 84.2457L264.91 88.3337V88.8917L264.899 91.8808L264.897 91.918C264.87 92.4483 264.647 92.9431 264.269 93.313L264.223 93.3585L264.205 93.3753C264.025 93.5421 263.82 93.6733 263.596 93.7657C263.576 93.7745 263.555 93.7831 263.535 93.7914L263.504 104.818L263.499 106.297L263.486 111.305L263.473 115.046L263.455 122.31L263.434 130.007L263.431 130.454L263.312 172.344C263.309 172.556 263.309 172.766 263.309 172.977C263.309 173.198 263.309 173.42 263.307 173.642C263.308 173.87 263.308 174.099 263.308 174.33L263.307 174.707L263.306 174.745C263.306 175.099 263.303 175.472 263.298 175.915C263.246 181.731 260.087 186.992 255.053 189.64C252.95 190.751 250.678 191.324 248.303 191.342H248.295L233.606 191.298ZM234.674 187.176L248.308 187.216C250.12 187.2 251.837 186.742 253.412 185.855C256.954 183.867 259.172 180.013 259.202 175.794L259.206 175.497C259.206 175.227 259.206 174.957 259.209 174.687L259.209 174.66C259.211 174.495 259.212 174.329 259.212 174.165L259.212 174.152C259.214 173.975 259.215 173.804 259.215 173.636C259.216 173.272 259.221 171.778 259.222 171.392C259.225 170.642 259.227 169.895 259.228 169.146L259.233 167.947L259.238 165.817C259.24 165.109 259.243 164.402 259.246 163.694L259.326 137.76L259.345 130.807L259.349 130.467L259.368 123.797L259.397 114.359L259.413 108.901L259.421 106.644L259.423 106.316L259.477 88.1685L259.481 87.3459L259.496 82.3243L259.512 77.5132L259.548 66.1176L259.559 62.0873L259.563 61.1666L259.632 38.6053V38.3445L259.663 28.349C259.662 28.2379 259.663 28.1284 259.665 28.0174C259.665 27.9129 259.665 27.8086 259.666 27.7042L259.666 27.6776C259.68 26.3614 259.694 25.0005 259.396 23.6776C258.497 19.6123 255.409 16.3103 251.528 15.2597C251.157 15.159 250.763 15.0815 250.323 15.0224C249.958 14.9736 249.568 14.9401 249.132 14.9201C249.002 14.9142 248.876 14.9098 248.75 14.9067L248.733 14.9063C248.611 14.902 248.49 14.9006 248.374 14.8992L248 14.8976L184.935 14.7063L184.843 14.7067C184.746 14.7067 184.648 14.7055 184.549 14.7043L184.414 14.7029C184.145 14.7014 183.877 14.6997 183.607 14.6997C183.597 14.6997 183.588 14.6997 183.578 14.6997C183.534 14.6997 183.49 14.6998 183.446 14.7008L183.42 14.7012C183.037 14.7041 182.654 14.7268 182.28 14.769C182.203 14.7776 182.126 14.7878 182.049 14.7979C181.914 14.8157 181.767 14.8389 181.614 14.8668C181.441 14.8982 181.259 14.9357 181.072 14.9777L181.054 14.9817C181.011 14.9909 180.968 15.0011 180.926 15.0124L180.902 15.0185C180.614 15.0901 180.324 15.1749 180.041 15.2707C179.935 15.3061 179.829 15.3444 179.711 15.3896C179.591 15.4345 179.479 15.4785 179.367 15.524C177.971 16.1046 176.728 16.9516 175.673 18.0413C175.497 18.2229 175.332 18.4043 175.183 18.5806C175.126 18.6483 175.066 18.7203 175.008 18.7921C174.895 18.9316 174.786 19.0749 174.671 19.2318C174.619 19.3032 174.566 19.3797 174.512 19.4576C174.331 19.7179 174.162 19.9859 174.007 20.2572C173.969 20.4978 173.883 21.2375 173.781 23.3715C173.184 35.6133 172.749 76.7961 172.489 109.189C172.24 139.916 172.101 168.47 172.094 170.488C172.095 170.53 172.095 170.571 172.092 170.613C172.037 177.419 172.753 180.037 173.845 181.862L173.941 182.016C173.974 182.068 174.008 182.121 174.042 182.173C174.132 182.312 174.206 182.421 174.279 182.52L174.288 182.533C174.665 183.061 175.086 183.556 175.541 184.004C176.158 184.611 176.844 185.138 177.577 185.569C177.783 185.691 177.988 185.802 178.189 185.903C178.337 185.976 178.48 186.044 178.613 186.103C178.747 186.162 178.894 186.224 179.043 186.283C179.152 186.325 179.262 186.367 179.374 186.407C179.711 186.528 180.055 186.631 180.403 186.717C180.608 186.768 180.816 186.812 181.044 186.852L181.281 186.891C181.538 186.931 181.801 186.964 182.063 186.988C182.203 187.001 182.346 187.013 182.492 187.023C182.643 187.033 182.8 187.042 182.959 187.049C183.209 187.06 183.452 187.067 183.695 187.07C183.832 187.072 183.97 187.072 184.106 187.072C184.631 187.072 185.15 187.062 185.588 187.051L185.844 187.046C186.23 187.039 186.594 187.032 186.955 187.032C187.015 187.032 234.674 187.176 234.674 187.176Z" fill="#2E2E34"/>
<path d="M263.261 63.9772C263.128 63.8679 262.955 63.818 262.783 63.8197C262.702 63.8228 262.617 63.8261 262.539 63.8325C262.403 63.8437 262.273 63.863 262.152 63.8952C262.139 63.8968 262.131 63.8904 262.131 63.8791L262.139 61.4577V61.2133L262.213 39.3475L262.218 38.1464L262.252 28.0592C262.26 26.0382 262.269 23.7471 261.467 21.4817C260.016 17.3609 256.746 14.1406 252.724 12.8688C251.472 12.4765 250.134 12.2884 248.382 12.2675C248.29 12.2658 248.202 12.2658 248.111 12.2643L184.756 12.0746C184.586 12.0729 184.419 12.0729 184.249 12.0697C183.804 12.0649 183.345 12.0585 182.878 12.0777C178.614 12.2497 174.628 14.5425 172.213 18.2049C171.113 19.8738 170.435 21.726 170.119 23.9882C169.976 24.9882 169.905 26.067 169.902 27.2487L169.858 37.0449C169.858 37.0546 169.851 37.0627 169.84 37.061C169.756 37.0369 169.672 37.0192 169.581 37.008C169.532 37 169.483 37 169.435 37.0015C169.266 37.0111 169.097 37.0755 168.982 37.1929C168.862 37.307 168.796 37.471 168.794 37.6446L168.763 46.7816C168.763 46.9714 168.838 47.1418 168.977 47.2656C169.109 47.3813 169.289 47.4409 169.477 47.4328C169.498 47.4311 169.521 47.4311 169.543 47.4263C169.629 47.415 169.715 47.4006 169.803 47.3749C169.813 47.3749 169.824 47.3797 169.824 47.3893L169.858 55.5922C169.858 55.6019 169.847 55.61 169.839 55.6067C169.665 55.5568 169.472 55.5295 169.258 55.5263C169.089 55.5246 168.929 55.5873 168.812 55.6999C168.807 55.7015 168.807 55.7047 168.806 55.7064L168.778 55.7304C168.755 55.753 168.734 55.7787 168.715 55.806C168.64 55.9137 168.596 56.0407 168.596 56.179L168.564 65.2855L168.535 73.9208C168.535 74.0928 168.603 74.2585 168.728 74.3822C168.853 74.5076 169.02 74.5736 169.193 74.5768C169.234 74.5784 169.274 74.5751 169.315 74.5736C169.482 74.5671 169.633 74.5414 169.774 74.5013C169.785 74.4996 169.793 74.5061 169.793 74.5174L169.785 76.9676C169.785 76.9789 169.774 76.9853 169.764 76.9837C169.592 76.9322 169.398 76.9049 169.185 76.9049C169.015 76.9049 168.851 76.9644 168.733 77.0834C168.726 77.0865 168.719 77.093 168.713 77.0994L168.706 77.1026C168.59 77.2232 168.523 77.3807 168.523 77.5544L168.462 95.2946C168.463 95.4699 168.53 95.6323 168.655 95.756C168.781 95.8831 168.943 95.9538 169.12 95.9522C169.162 95.9522 169.204 95.9506 169.245 95.9506C169.415 95.9441 169.566 95.9184 169.701 95.8831C169.709 95.8783 169.72 95.8847 169.72 95.8975L169.678 107.819L169.456 171.217C169.456 171.579 169.453 171.938 169.449 172.299C169.448 172.648 169.448 173 169.445 173.349L169.443 174.401C169.44 174.743 169.438 175.087 169.44 175.425C169.428 181.933 173.556 187.596 179.482 189.194C180.995 189.604 182.528 189.673 183.698 189.687C184.327 189.694 184.954 189.686 185.563 189.678C186.054 189.668 186.521 189.663 186.987 189.665L233.61 189.805L248.291 189.848C250.424 189.832 252.463 189.316 254.347 188.321C258.893 185.928 261.745 181.164 261.792 175.896C261.797 175.503 261.8 175.11 261.8 174.714L261.801 174.675C261.801 174.327 261.803 173.981 261.801 173.638C261.803 173.418 261.803 173.196 261.803 172.976C261.803 172.757 261.803 172.54 261.806 172.322L261.889 143.15L261.902 138.645L261.925 130.442L261.928 130.002L261.949 122.305L261.967 115.04L261.98 111.3L261.985 109.483L261.993 106.292L261.998 104.812L262.028 93.9004L262.033 92.3794C262.033 92.3698 262.043 92.3617 262.053 92.3666C262.257 92.4197 262.483 92.4487 262.731 92.4487H262.765C262.849 92.4438 262.928 92.4278 263.002 92.3924C263.066 92.3683 263.125 92.3314 263.175 92.2848L263.207 92.2526C263.321 92.1433 263.384 92.0033 263.392 91.8426V91.8137L263.404 88.8908V88.3281L263.417 84.2395L263.448 75.5977L263.454 74.022L263.486 64.4606C263.488 64.2763 263.406 64.1026 263.261 63.9772ZM261.172 27.6928V27.7154C261.171 27.8199 261.171 27.9244 261.171 28.029C261.169 28.1334 261.167 28.2363 261.169 28.3408L261.138 38.3444V38.6098L261.068 61.1717L261.065 62.0914L261.054 66.1221L261.024 75.4327L261.018 77.5181L261.002 82.3269V82.3286L260.987 87.3545L260.982 88.1729L260.96 95.8259L260.929 106.323L260.927 106.649L260.919 108.905L260.914 110.453L260.903 114.364L260.874 123.801L260.854 130.482L260.851 130.811L260.831 137.765L260.815 143.152L260.752 163.69C260.749 164.401 260.745 165.11 260.744 165.821C260.742 166.533 260.741 167.243 260.739 167.953L260.734 169.149C260.732 169.9 260.731 170.647 260.728 171.395C260.726 172.142 260.723 172.888 260.721 173.636C260.721 173.81 260.719 173.987 260.718 174.165C260.718 174.342 260.716 174.52 260.715 174.697V174.699C260.711 174.967 260.711 175.236 260.711 175.504L260.708 175.805C260.674 180.554 258.165 184.903 254.156 187.153C252.362 188.164 250.391 188.693 248.311 188.709L234.669 188.669L187.124 188.526C186.651 188.523 186.166 188.534 185.624 188.544C185.026 188.558 184.351 188.571 183.676 188.563C183.402 188.56 183.139 188.552 182.886 188.54C182.718 188.532 182.552 188.523 182.392 188.513C182.231 188.502 182.074 188.489 181.92 188.474C181.613 188.445 181.321 188.408 181.041 188.365C180.953 188.351 180.867 188.336 180.781 188.322C180.525 188.277 180.279 188.225 180.04 188.166C179.641 188.068 179.25 187.95 178.869 187.813C178.741 187.768 178.615 187.72 178.49 187.672C178.324 187.606 178.159 187.537 177.995 187.465C177.833 187.392 177.671 187.315 177.512 187.236C177.273 187.117 177.038 186.989 176.809 186.854C175.966 186.358 175.186 185.759 174.479 185.063C173.965 184.556 173.489 184 173.058 183.395C172.961 183.262 172.868 183.125 172.777 182.985C172.724 182.903 172.672 182.82 172.62 182.738C172.599 182.704 172.578 182.67 172.557 182.636C171.237 180.437 170.526 177.41 170.586 170.54C170.588 170.535 170.589 170.527 170.588 170.515V170.512C170.591 169.478 170.724 141.066 170.982 109.177C171.263 74.2769 171.696 35.2127 172.276 23.3006C172.375 21.2378 172.481 19.9886 172.589 19.7168C172.589 19.7152 172.591 19.7136 172.591 19.712C172.596 19.704 172.599 19.6959 172.602 19.6895C172.807 19.3181 173.031 18.9579 173.269 18.6138C173.329 18.527 173.389 18.4418 173.451 18.3566C173.574 18.1878 173.7 18.0222 173.832 17.8599C173.897 17.7794 173.963 17.6991 174.03 17.6202C174.208 17.4096 174.395 17.2054 174.586 17.0077C175.783 15.7713 177.217 14.7986 178.788 14.1459C178.915 14.0945 179.041 14.0446 179.169 13.9963C179.296 13.9481 179.424 13.9014 179.554 13.858C179.876 13.7487 180.206 13.6522 180.537 13.5703C180.603 13.5525 180.67 13.5364 180.738 13.522C180.937 13.477 181.14 13.4352 181.343 13.3983C181.511 13.3677 181.682 13.3404 181.852 13.3178C181.938 13.3066 182.024 13.2953 182.11 13.2857C182.538 13.2374 182.973 13.2117 183.409 13.2085C183.475 13.2069 183.54 13.2069 183.607 13.2069C183.886 13.2069 184.161 13.2085 184.439 13.2101C184.607 13.2117 184.773 13.2149 184.937 13.2132L248.006 13.4046L248.386 13.4062C248.515 13.4079 248.65 13.4094 248.786 13.4142C248.922 13.4175 249.06 13.4223 249.201 13.4287C249.623 13.4479 250.067 13.4817 250.525 13.5428C250.981 13.6038 251.451 13.6907 251.925 13.8193C256.338 15.0139 259.849 18.7536 260.866 23.3518C261.2 24.8342 261.187 26.2892 261.172 27.6928Z" fill="#2C2C2B"/>
<path d="M260.866 23.3516C259.848 18.7532 256.337 15.0143 251.924 13.8189C251.451 13.6908 250.981 13.6034 250.525 13.5427C250.068 13.4819 249.624 13.4467 249.202 13.4286C249.06 13.4222 248.922 13.418 248.787 13.4137C248.65 13.4094 248.515 13.4073 248.385 13.4063L248.006 13.4041L184.937 13.2131C184.773 13.2153 184.608 13.212 184.439 13.21C184.162 13.2089 183.886 13.2068 183.607 13.2068H183.409C182.973 13.21 182.538 13.2356 182.11 13.2857C182.024 13.2953 181.938 13.3059 181.852 13.3176C181.682 13.3401 181.511 13.3677 181.343 13.3976C181.14 13.4338 180.938 13.4754 180.738 13.5214C180.67 13.5362 180.603 13.5523 180.536 13.5704C180.206 13.6524 179.877 13.7485 179.554 13.8584C179.424 13.901 179.296 13.948 179.169 13.9959C179.041 14.0439 178.915 14.094 178.788 14.1452C177.217 14.799 175.783 15.7715 174.587 17.0075C174.395 17.2059 174.21 17.4095 174.03 17.6196C173.964 17.6985 173.897 17.7796 173.832 17.8595C173.701 18.0217 173.574 18.188 173.451 18.3565C173.389 18.4418 173.329 18.5271 173.27 18.6135C173.031 18.9579 172.811 19.3184 172.604 19.6895C172.6 19.6969 172.597 19.7034 172.591 19.7119C172.591 19.713 172.59 19.7151 172.59 19.7162C171.917 20.9373 171.518 22.1753 171.284 23.6086C171.06 24.9875 170.987 26.5476 170.977 28.4555L170.724 109.018L170.517 176.241C170.517 178.011 171.238 180.493 172.558 182.636C172.578 182.67 172.6 182.704 172.621 182.737C172.673 182.819 172.725 182.904 172.778 182.985C172.869 183.125 172.961 183.262 173.059 183.395C173.49 184 173.965 184.556 174.479 185.062C175.187 185.759 175.967 186.359 176.81 186.854C177.038 186.989 177.274 187.117 177.513 187.237C177.671 187.315 177.833 187.392 177.996 187.465C178.159 187.537 178.325 187.606 178.491 187.672C178.615 187.72 178.741 187.769 178.87 187.813C179.251 187.949 179.642 188.064 180.041 188.164C180.28 188.223 180.526 188.275 180.782 188.321C180.868 188.336 180.954 188.351 181.041 188.365C181.322 188.409 181.614 188.445 181.92 188.475C182.075 188.489 182.232 188.501 182.392 188.513C182.553 188.523 182.718 188.532 182.887 188.54C183.14 188.552 183.403 188.559 183.677 188.563C184.351 188.571 185.027 188.558 185.625 188.543C186.166 188.533 186.651 188.523 187.125 188.526L234.67 188.671L248.312 188.709C250.392 188.693 252.363 188.165 254.156 187.152C258.165 184.903 260.675 180.555 260.709 175.805L260.711 175.503C260.711 175.236 260.712 174.969 260.715 174.699V174.698C260.717 174.521 260.718 174.342 260.718 174.166C260.721 173.989 260.722 173.813 260.724 173.638C260.725 172.89 260.727 172.143 260.728 171.395C260.732 170.648 260.733 169.9 260.736 169.149L260.74 167.953C260.742 167.244 260.743 166.533 260.745 165.821C260.746 165.11 260.749 164.399 260.752 163.689L260.816 143.153L260.832 137.765L260.854 130.812L260.855 130.482L260.873 123.802L260.904 114.364L260.913 110.454L260.92 108.905L260.928 106.65L260.929 106.324L260.961 95.8258L260.983 88.1732L260.987 87.3552L261.003 82.3291V82.3269L261.019 77.5185L261.025 75.4326L261.056 66.1227L261.066 62.0917L261.068 61.1725L261.139 38.6103V38.3448L261.171 28.3407C261.169 28.2362 261.171 28.1338 261.172 28.0293C261.172 27.9248 261.172 27.8203 261.174 27.7158V27.6934C261.187 26.2896 261.2 24.834 260.866 23.3516ZM258.346 27.6781C258.344 27.8967 258.342 28.1121 258.34 28.3328L258.317 36.4098L258.308 39.0054L258.24 61.0578L258.231 63.9148L258.203 72.8333L258.183 78.9524L258.181 79.8812L258.183 79.9665L258.159 86.0953L258.161 86.1519L258.106 104.18L258.094 107.648V108.082L258.086 111.366L258.029 128.843L258.026 130.583L258.01 135.041V135.308L257.991 141.824L257.97 148.322L257.924 162.689V163.68C257.917 165.102 257.912 166.525 257.912 167.946C257.908 169.84 257.901 171.731 257.893 173.625C257.893 173.973 257.89 174.319 257.886 174.668C257.885 175.034 257.883 175.395 257.882 175.753L257.88 175.776C257.858 179.474 255.927 182.847 252.842 184.576C251.49 185.339 250.011 185.735 248.441 185.749H248.302L237.542 185.714L187.293 185.562C187.138 185.562 186.982 185.562 186.825 185.564C186.403 185.566 185.976 185.574 185.56 185.584C185.196 185.591 184.823 185.597 184.452 185.601C184.257 185.603 184.065 185.603 183.874 185.601H183.714C182.493 185.588 181.555 185.489 180.763 185.294C178.629 184.764 176.806 183.518 175.493 181.683C174.209 179.89 173.507 177.622 173.503 176.253L173.712 108.947L173.811 76.9476L173.865 59.6333L173.961 28.4662C173.977 25.8684 174.098 24.1141 174.571 22.6265C174.742 22.0965 174.956 21.5995 175.225 21.109C176.893 18.0847 180.039 16.1928 183.429 16.1683H183.587C183.918 16.1672 184.245 16.1715 184.577 16.1715C184.75 16.1736 184.922 16.1747 185.094 16.1736L248.155 16.3645C248.275 16.3634 248.392 16.3645 248.51 16.3677C249.404 16.3762 250.361 16.422 251.3 16.677C254.65 17.5835 257.325 20.4532 258.107 23.9873C258.369 25.1507 258.356 26.3781 258.346 27.6781Z" fill="#393941"/>
<path d="M186.825 185.564C186.455 185.567 186.083 185.575 185.72 185.583C185.303 185.591 184.875 185.599 184.452 185.601C184.823 185.598 185.196 185.591 185.559 185.583C185.976 185.574 186.403 185.566 186.825 185.564Z" fill="#E9E9E9"/>
<path d="M268.156 191.526C268.156 193.561 244.794 194.02 215.974 194.02C187.155 194.02 163.793 193.561 163.793 191.526C163.793 189.491 187.155 187.842 215.974 187.842C244.793 187.842 268.156 189.491 268.156 191.526Z" fill="#DEDEDE"/>
<path d="M124.989 208C171.268 208 208.785 205.351 208.785 202.084C208.785 198.816 171.268 196.167 124.989 196.167C78.7094 196.167 41.1926 198.816 41.1926 202.084C41.1926 205.351 78.7094 208 124.989 208Z" fill="#DEDEDE"/>
<path d="M194.075 181.809L182.286 181.303L177.058 181.079L166.979 180.646L159.82 180.339L125.629 178.872L124.989 178.9L124.348 178.872L90.1574 180.339L82.998 180.646L72.9191 181.079L67.6912 181.303L55.9027 181.809L55.264 181.836L55.7564 190.62C55.7564 191.865 56.3605 192.968 57.2937 193.661L70.4306 194.154L72.9191 194.248L76.0694 194.366L76.427 194.379L109.126 195.605C114.411 195.804 119.7 195.899 124.989 195.89C130.278 195.899 135.566 195.804 140.852 195.605L173.551 194.379L173.908 194.366L177.058 194.248L179.547 194.154L192.684 193.661C193.617 192.968 194.221 191.865 194.221 190.62L194.714 181.836L194.075 181.809Z" fill="#989898"/>
<path d="M182.346 135.704H176.289V139.432H182.346V135.704Z" fill="#2E2E34"/>
<path d="M192.581 139.696H181.907C180.881 139.696 180.049 138.871 180.049 137.854V134.494C180.049 132.69 181.524 131.228 183.344 131.228H190.05C193.108 131.228 195.586 133.685 195.586 136.717C195.587 138.362 194.241 139.696 192.581 139.696Z" fill="#B8B9C1"/>
<path d="M183.946 203.548H190.802C194.606 203.548 197.69 200.491 197.69 196.72V170.652C197.69 166.881 194.606 163.824 190.802 163.824H183.946C180.142 163.824 177.059 166.881 177.059 170.652V196.72C177.059 200.491 180.142 203.548 183.946 203.548Z" fill="#2E2E34"/>
<path d="M67.6319 139.432H73.6886V135.705H67.6319V139.432Z" fill="#2E2E34"/>
<path d="M57.3962 139.696H68.0709C69.0968 139.696 69.9284 138.871 69.9284 137.854V134.494C69.9284 132.69 68.4532 131.228 66.6335 131.228H59.9277C56.8698 131.228 54.3909 133.685 54.3909 136.717C54.3909 138.362 55.7364 139.696 57.3962 139.696Z" fill="#B8B9C1"/>
<path d="M66.0314 203.548H59.1752C55.3714 203.548 52.2878 200.491 52.2878 196.72V170.652C52.2878 166.881 55.3714 163.824 59.1752 163.824H66.0314C69.8352 163.824 72.9188 166.881 72.9188 170.652V196.72C72.9188 200.491 69.8352 203.548 66.0314 203.548Z" fill="#2E2E34"/>
<path d="M195.356 158.954L195.003 165.24L194.076 181.808L194.073 181.835C193.996 183.205 193.919 184.575 193.842 185.942C193.79 186.906 193.74 187.872 193.68 188.833C193.613 189.949 193.802 191.262 193.121 192.228C192.627 192.928 191.759 193.285 190.909 193.425C188.033 193.899 184.941 193.827 182.028 194.004C181.2 194.054 180.375 194.103 179.547 194.152C178.717 194.204 177.887 194.253 177.059 194.305C176.513 194.337 175.966 194.369 175.419 194.404C175.347 194.409 175.27 194.416 175.198 194.416C174.648 194.416 174.099 194.404 173.55 194.379C173.455 194.374 173.361 194.372 173.266 194.367C170.786 194.234 168.322 193.849 165.917 193.216L160.687 191.841C158.303 191.215 155.862 190.831 153.399 190.695L131.994 189.525C129.66 189.397 127.326 189.333 124.989 189.333C122.653 189.333 120.316 189.397 117.982 189.525L96.5769 190.695C94.1137 190.831 91.6754 191.215 89.2917 191.841L84.0622 193.216C81.6561 193.849 79.193 194.234 76.7099 194.367C76.6155 194.372 76.5209 194.374 76.4266 194.379C75.8797 194.404 75.3305 194.416 74.7811 194.416C74.7066 194.416 74.632 194.409 74.5575 194.404C74.0132 194.369 73.4664 194.337 72.9195 194.305C72.0894 194.253 71.2591 194.204 70.4315 194.152C69.6038 194.103 68.7761 194.054 67.9484 194.004C65.0378 193.827 61.9458 193.899 59.0675 193.425C58.2174 193.285 57.3525 192.928 56.8554 192.228C56.1744 191.262 56.3632 189.949 56.2961 188.833C56.2389 187.872 56.1892 186.906 56.1345 185.942C56.0575 184.575 55.983 183.205 55.9034 181.835V181.808L54.9738 165.24L54.6234 158.954C54.6234 153.265 57.4942 147.955 62.2715 144.809C64.9037 143.074 67.8167 141.837 70.8641 141.142C72.768 140.709 74.7242 140.487 76.6978 140.487H173.279C175.253 140.487 177.211 140.709 179.115 141.142C182.163 141.837 185.076 143.074 187.705 144.809C192.485 147.955 195.356 153.265 195.356 158.954Z" fill="#D9D9DE"/>
<path d="M175.7 139.257L166.856 140.487H83.1201L74.2789 139.257L83.7217 117.298C84.7034 115.012 86.7838 113.405 89.1526 113.102L109.581 110.493C114.674 109.842 119.857 109.512 124.989 109.512C130.12 109.512 135.304 109.842 140.397 110.493L160.826 113.102C163.192 113.405 165.273 115.012 166.257 117.298L175.7 139.257Z" fill="#E0E8EE"/>
<path d="M166.856 140.487L175.7 139.257L166.257 117.298C165.273 115.012 163.193 113.405 160.826 113.102L140.397 110.493C135.305 109.842 130.12 109.512 124.989 109.512C119.857 109.512 114.674 109.842 109.581 110.493L89.1527 113.102C86.784 113.405 84.7035 115.012 83.7218 117.298L74.279 139.257L83.1202 140.487L86.0905 140.901C87.9821 141.162 89.8735 141.406 91.7675 141.633H70.6525L70.8638 141.142L71.5995 139.432L73.2028 135.704L81.517 116.367C82.8392 113.292 85.6206 111.161 88.8444 110.747L109.273 108.137C114.493 107.472 119.742 107.139 124.989 107.139C130.236 107.139 135.486 107.472 140.703 108.137L161.132 110.747C164.358 111.161 167.137 113.292 168.46 116.367L176.776 135.704L178.379 139.432L179.115 141.142L179.324 141.633H158.212C160.106 141.406 161.997 141.162 163.886 140.901L166.856 140.487Z" fill="#D9D9DE"/>
<path d="M158.212 141.632C147.178 142.939 136.084 143.593 124.988 143.591C113.894 143.593 102.8 142.939 91.7663 141.632H158.212Z" fill="#EAEAEA"/>
<path d="M75.1027 137.339L74.2782 139.257L83.1205 140.487L86.0915 140.9C87.9811 141.163 89.8726 141.407 91.7658 141.631C102.8 142.94 113.894 143.593 124.989 143.591C136.083 143.593 147.177 142.94 158.212 141.631C160.105 141.407 161.996 141.163 163.886 140.9L166.857 140.487L175.699 139.257L174.875 137.339H75.1027Z" fill="#2E2E34"/>
<path d="M162.069 138.113H133.202V134.53C133.202 129.478 137.333 125.383 142.429 125.383H152.842C157.938 125.383 162.068 129.478 162.068 134.53V138.113H162.069Z" fill="#2E2E34"/>
<path d="M87.909 138.113H116.776V134.53C116.776 129.478 112.645 125.383 107.549 125.383H97.1358C92.0399 125.383 87.909 129.478 87.909 134.53V138.113Z" fill="#2E2E34"/>
<g opacity="0.1">
<path d="M79.641 126.786L86.9148 141.014C86.6406 140.976 86.3657 140.938 86.0915 140.9L83.1205 140.487L74.2782 139.257L79.641 126.786Z" fill="white"/>
</g>
<g opacity="0.1">
<path d="M111.395 110.275L128.419 143.57C127.275 143.585 126.132 143.592 124.989 143.592C121.638 143.592 118.288 143.533 114.939 143.413L98.8107 111.869L109.582 110.493C110.185 110.416 110.789 110.343 111.395 110.275Z" fill="white"/>
</g>
<g opacity="0.1">
<path d="M144.349 141.014L145.294 142.862C144.056 142.951 142.818 143.032 141.579 143.105L124.404 109.515C124.599 109.514 124.794 109.513 124.989 109.513C126.079 109.513 127.172 109.528 128.266 109.558L137.075 126.786L144.349 141.014Z" fill="white"/>
</g>
<g opacity="0.1">
<path d="M154.44 142.053C152.411 142.265 150.38 142.456 148.347 142.626L147.523 141.014L140.25 126.786L131.508 109.69C133.733 109.808 135.958 109.989 138.168 110.23L154.44 142.053Z" fill="white"/>
</g>
<g opacity="0.1">
<path d="M175.699 139.257L167.026 140.463L152.491 112.038L160.826 113.103C163.193 113.405 165.274 115.013 166.256 117.298L175.699 139.257Z" fill="white"/>
</g>
<path d="M155.748 158.944L150.802 154.855C149.82 154.042 147.739 153.47 145.372 153.363L142.462 153.23C136.643 152.966 130.815 152.833 124.989 152.833C119.162 152.833 113.334 152.966 107.515 153.23L104.605 153.363C102.238 153.47 100.157 154.042 99.1752 154.855L94.2292 158.944C92.4239 160.436 93.696 162.858 96.3539 162.989L101.862 163.259C109.544 163.638 117.26 163.9 124.989 164.051C132.717 163.9 140.433 163.638 148.115 163.259L153.623 162.989C156.281 162.858 157.553 160.436 155.748 158.944Z" fill="#2E2E34"/>
<path d="M183.471 177.411C183.39 176.779 183.309 176.147 183.228 175.514C182.88 172.817 180.447 170.864 177.693 171.034C177.481 171.047 177.269 171.059 177.058 171.072C174.868 171.204 172.678 171.321 170.49 171.422C168.778 171.502 167.065 171.571 165.354 171.631C163.112 171.709 160.87 171.771 158.629 171.817C147.395 172.047 136.193 172.161 124.989 172.161C113.785 172.161 102.582 172.047 91.3478 171.817C89.1069 171.771 86.865 171.709 84.6233 171.631C82.9119 171.571 81.1997 171.502 79.4875 171.422C77.2989 171.321 75.1093 171.204 72.919 171.072C72.7078 171.059 72.4958 171.047 72.2838 171.034C69.5301 170.864 67.0975 172.817 66.7488 175.514C66.6681 176.147 66.5873 176.779 66.5067 177.411C66.3195 178.86 66.7852 180.252 67.6911 181.303C68.4807 182.219 69.6028 182.876 70.9167 183.086C71.5838 183.193 72.251 183.298 72.919 183.401C76.8544 184.013 80.7987 184.576 84.751 185.087C93.7555 186.255 102.801 187.166 111.875 187.819C116.237 188.133 120.613 188.29 124.989 188.29C129.364 188.29 133.74 188.133 138.103 187.819C147.176 187.166 156.222 186.255 165.226 185.087C169.179 184.575 173.123 184.013 177.058 183.401C177.726 183.299 178.393 183.193 179.061 183.086C180.374 182.876 181.497 182.219 182.286 181.303C183.192 180.252 183.658 178.86 183.471 177.411Z" fill="#EEEEF0"/>
<path d="M66.7488 175.515C66.6683 176.147 66.5877 176.78 66.5071 177.412C66.1562 180.122 68.0945 182.636 70.9165 183.087C75.5164 183.821 80.1283 184.488 84.7509 185.088C82.934 180.542 81.1796 175.987 79.4877 171.422C77.087 171.312 74.6859 171.182 72.2843 171.033C69.5302 170.864 67.0979 172.817 66.7488 175.515Z" fill="#989898"/>
<path d="M158.63 171.817C147.396 172.047 136.193 172.161 124.989 172.161C113.785 172.161 102.582 172.047 91.348 171.817C89.1071 171.772 86.8652 171.709 84.6234 171.631C84.6278 172.49 84.8886 173.368 85.468 174.145C87.009 176.218 88.5721 178.282 90.1575 180.339C90.5337 180.828 90.9116 181.316 91.2913 181.804C92.4676 183.319 95.1281 184.509 98.2234 184.872C99.4921 185.021 100.761 185.165 102.031 185.304C109.649 186.137 117.318 186.555 124.989 186.555C132.659 186.555 140.329 186.137 147.947 185.304C149.217 185.165 150.486 185.021 151.754 184.872C154.849 184.509 157.51 183.319 158.686 181.804C159.066 181.316 159.444 180.828 159.82 180.339C161.405 178.282 162.969 176.218 164.51 174.145C165.089 173.368 165.35 172.49 165.354 171.631C163.112 171.709 160.871 171.772 158.63 171.817Z" fill="#2E2E34"/>
<path d="M66.2026 146.859L87.5868 152.516C89.7665 153.093 91.2829 155.05 91.2829 157.286C91.2829 160.013 89.0532 162.223 86.3028 162.223H66.1802C63.844 162.223 61.8218 160.614 61.3175 158.352L60.0558 152.695C59.2496 149.08 62.5946 145.905 66.2026 146.859Z" fill="white"/>
<path d="M183.229 175.515C183.309 176.147 183.39 176.78 183.47 177.412C183.821 180.122 181.883 182.636 179.061 183.087C174.461 183.821 169.849 184.488 165.227 185.088C167.043 180.542 168.798 175.987 170.49 171.422C172.89 171.312 175.292 171.182 177.693 171.033C180.447 170.864 182.88 172.817 183.229 175.515Z" fill="#989898"/>
<path d="M183.775 146.859L162.391 152.516C160.211 153.093 158.695 155.05 158.695 157.286C158.695 160.013 160.924 162.223 163.675 162.223H183.797C186.133 162.223 188.156 160.614 188.66 158.352L189.922 152.695C190.728 149.08 187.383 145.905 183.775 146.859Z" fill="white"/>
<path d="M189.921 152.695L188.66 158.352C188.339 159.794 187.4 160.97 186.157 161.634C186.254 161.364 186.332 161.086 186.391 160.797L187.783 154.054C188.493 150.613 186.286 147.508 183.341 146.974L183.775 146.859C187.383 145.905 190.728 149.08 189.921 152.695Z" fill="#EAEAEA"/>
<path d="M60.0562 152.695L61.3178 158.352C61.639 159.794 62.5776 160.97 63.8204 161.634C63.7237 161.364 63.6457 161.086 63.5862 160.797L62.1942 154.054C61.4845 150.613 63.6917 147.508 66.6361 146.974L66.2023 146.859C62.5944 145.905 59.2497 149.08 60.0562 152.695Z" fill="#EAEAEA"/>
<defs>
<linearGradient id="paint0_linear_734_15635" x1="200.072" y1="64.377" x2="255.772" y2="86.8566" gradientUnits="userSpaceOnUse">
<stop stop-color="#5CE1E6"/>
<stop offset="1" stop-color="#BC38E7"/>
</linearGradient>
</defs>
</svg>
