<svg width="336" height="208" viewBox="0 0 336 208" fill="none" xmlns="http://www.w3.org/2000/svg">
<path d="M24.6332 45.8064H49.8699V76.4529H56.3609V59.1017H88.4496V86.5757H92.6956V22.1052H120.582V39.803H134.877V61.8154H139.206V47.9735H164.555V89.2943H171.973V55.6998H195.16V30.1878H210.924V15.6528H229.162V80.1038H235.292V53.2106H265.331V91.7055H269.489V60.2829H299.953V31.9742H315.497V140.728H24.6332V45.8064Z" fill="#EBEBEB"/>
<path d="M31.9978 49.6624H27.7274V55.5188H31.9978V49.6624Z" fill="white"/>
<path d="M39.4014 49.6624H35.131V55.5188H39.4014V49.6624Z" fill="white"/>
<path d="M46.8001 49.6624H42.5297V55.5188H46.8001V49.6624Z" fill="white"/>
<path d="M31.9978 58.4771H27.7274V64.3335H31.9978V58.4771Z" fill="white"/>
<path d="M39.4014 58.4771H35.131V64.3335H39.4014V58.4771Z" fill="white"/>
<path d="M46.8001 58.4771H42.5297V64.3335H46.8001V58.4771Z" fill="white"/>
<path d="M31.9978 67.2917H27.7274V73.1482H31.9978V67.2917Z" fill="white"/>
<path d="M39.4014 67.2917H35.131V73.1482H39.4014V67.2917Z" fill="white"/>
<path d="M46.8001 67.2917H42.5297V73.1482H46.8001V67.2917Z" fill="white"/>
<path d="M31.9978 76.1064H27.7274V81.9629H31.9978V76.1064Z" fill="white"/>
<path d="M39.4014 76.1064H35.131V81.9629H39.4014V76.1064Z" fill="white"/>
<path d="M46.8001 76.1064H42.5297V81.9629H46.8001V76.1064Z" fill="white"/>
<path d="M179.806 59.8875H175.536V64.7727H179.806V59.8875Z" fill="white"/>
<path d="M187.205 59.8875H182.935V64.7727H187.205V59.8875Z" fill="white"/>
<path d="M194.604 59.8875H190.333V64.7727H194.604V59.8875Z" fill="white"/>
<path d="M179.806 67.2429H175.536V72.1282H179.806V67.2429Z" fill="white"/>
<path d="M187.205 67.2429H182.935V72.1282H187.205V67.2429Z" fill="white"/>
<path d="M194.604 67.2429H190.333V72.1282H194.604V67.2429Z" fill="white"/>
<path d="M179.806 74.5981H175.536V79.4834H179.806V74.5981Z" fill="white"/>
<path d="M187.205 74.5981H182.935V79.4834H187.205V74.5981Z" fill="white"/>
<path d="M194.604 74.5981H190.333V79.4834H194.604V74.5981Z" fill="white"/>
<path d="M179.806 81.9487H175.536V86.834H179.806V81.9487Z" fill="white"/>
<path d="M187.205 81.9487H182.935V86.834H187.205V81.9487Z" fill="white"/>
<path d="M194.604 81.9487H190.333V86.834H194.604V81.9487Z" fill="white"/>
<path d="M179.806 89.4895H175.536V94.3748H179.806V89.4895Z" fill="white"/>
<path d="M187.205 89.4895H182.935V94.3748H187.205V89.4895Z" fill="white"/>
<path d="M194.604 89.4895H190.333V94.3748H194.604V89.4895Z" fill="white"/>
<path d="M179.806 97.0256H175.536V101.911H179.806V97.0256Z" fill="white"/>
<path d="M187.205 97.0256H182.935V101.911H187.205V97.0256Z" fill="white"/>
<path d="M194.604 97.0256H190.333V101.911H194.604V97.0256Z" fill="white"/>
<path d="M179.806 104.562H175.536V109.447H179.806V104.562Z" fill="white"/>
<path d="M187.205 104.562H182.935V109.447H187.205V104.562Z" fill="white"/>
<path d="M194.604 104.562H190.333V109.447H194.604V104.562Z" fill="white"/>
<path d="M179.806 112.097H175.536V116.983H179.806V112.097Z" fill="white"/>
<path d="M187.205 112.097H182.935V116.983H187.205V112.097Z" fill="white"/>
<path d="M194.604 112.097H190.333V116.983H194.604V112.097Z" fill="white"/>
<path d="M84.5843 62.8599H60.0065V66.525H84.5843V62.8599Z" fill="white"/>
<path d="M84.5843 69.9712H60.0065V73.6364H84.5843V69.9712Z" fill="white"/>
<path d="M84.5843 77.0825H60.0065V80.7477H84.5843V77.0825Z" fill="white"/>
<path d="M84.5843 84.189H60.0065V87.8541H84.5843V84.189Z" fill="white"/>
<path d="M84.5843 91.3003H60.0065V94.9655H84.5843V91.3003Z" fill="white"/>
<path d="M84.5843 98.4116H60.0065V102.077H84.5843V98.4116Z" fill="white"/>
<path d="M84.5843 105.523H60.0065V109.188H84.5843V105.523Z" fill="white"/>
<path d="M84.5843 112.629H60.0065V116.295H84.5843V112.629Z" fill="white"/>
<path d="M261.519 56.6272H238.923V60.2924H261.519V56.6272Z" fill="white"/>
<path d="M261.519 63.7385H238.923V67.4037H261.519V63.7385Z" fill="white"/>
<path d="M261.519 70.845H238.923V74.5101H261.519V70.845Z" fill="white"/>
<path d="M261.519 77.9563H238.923V81.6215H261.519V77.9563Z" fill="white"/>
<path d="M261.519 85.0676H238.923V88.7328H261.519V85.0676Z" fill="white"/>
<path d="M261.519 92.1741H238.923V95.8392H261.519V92.1741Z" fill="white"/>
<path d="M261.519 99.2854H238.923V102.951H261.519V99.2854Z" fill="white"/>
<path d="M261.519 106.397H238.923V110.062H261.519V106.397Z" fill="white"/>
<path d="M261.519 113.152H238.923V116.817H261.519V113.152Z" fill="white"/>
<path d="M261.519 119.907H238.923V123.572H261.519V119.907Z" fill="white"/>
<path d="M261.519 126.662H238.923V130.327H261.519V126.662Z" fill="white"/>
<path d="M261.519 133.422H238.923V137.087H261.519V133.422Z" fill="white"/>
<path d="M298.059 65.2124H274.189V68.8776H298.059V65.2124Z" fill="white"/>
<path d="M298.059 72.3237H274.189V75.9889H298.059V72.3237Z" fill="white"/>
<path d="M298.059 79.4351H274.189V83.1002H298.059V79.4351Z" fill="white"/>
<path d="M298.059 86.5464H274.189V90.2115H298.059V86.5464Z" fill="white"/>
<path d="M298.059 93.6528H274.189V97.318H298.059V93.6528Z" fill="white"/>
<path d="M298.059 100.764H274.189V104.429H298.059V100.764Z" fill="white"/>
<path d="M298.059 107.875H274.189V111.541H298.059V107.875Z" fill="white"/>
<path d="M298.059 114.982H274.189V118.647H298.059V114.982Z" fill="white"/>
<path d="M298.059 121.347H274.189V125.012H298.059V121.347Z" fill="white"/>
<path d="M298.059 127.711H274.189V131.376H298.059V127.711Z" fill="white"/>
<path d="M298.059 134.076H274.189V137.741H298.059V134.076Z" fill="white"/>
<path d="M154.213 51.2876H146.624V54.8259H154.213V51.2876Z" fill="white"/>
<path d="M154.213 58.1548H146.624V61.6931H154.213V58.1548Z" fill="white"/>
<path d="M154.213 65.0222H146.624V68.5606H154.213V65.0222Z" fill="white"/>
<path d="M154.213 71.8894H146.624V75.4277H154.213V71.8894Z" fill="white"/>
<path d="M154.213 78.7517H146.624V82.29H154.213V78.7517Z" fill="white"/>
<path d="M154.213 85.6191H146.624V89.1575H154.213V85.6191Z" fill="white"/>
<path d="M154.213 92.4863H146.624V96.0246H154.213V92.4863Z" fill="white"/>
<path d="M154.213 99.3538H146.624V102.892H154.213V99.3538Z" fill="white"/>
<path d="M164.54 51.2876H156.951V54.8259H164.54V51.2876Z" fill="white"/>
<path d="M164.54 58.1548H156.951V61.6931H164.54V58.1548Z" fill="white"/>
<path d="M164.54 65.0222H156.951V68.5606H164.54V65.0222Z" fill="white"/>
<path d="M164.54 71.8894H156.951V75.4277H164.54V71.8894Z" fill="white"/>
<path d="M164.54 78.7517H156.951V82.29H164.54V78.7517Z" fill="white"/>
<path d="M164.54 85.6191H156.951V89.1575H164.54V85.6191Z" fill="white"/>
<path d="M164.54 92.4863H156.951V96.0246H164.54V92.4863Z" fill="white"/>
<path d="M164.54 99.3538H156.951V102.892H164.54V99.3538Z" fill="white"/>
<path d="M104.833 25.8147H96.9269V31.3931H104.833V25.8147Z" fill="white"/>
<path d="M116.619 25.8147H108.713V31.3931H116.619V25.8147Z" fill="white"/>
<path d="M104.833 34.0144H96.9269V39.5928H104.833V34.0144Z" fill="white"/>
<path d="M116.619 34.0144H108.713V39.5928H116.619V34.0144Z" fill="white"/>
<path d="M104.833 42.2092H96.9269V47.7876H104.833V42.2092Z" fill="white"/>
<path d="M116.619 42.2092H108.713V47.7876H116.619V42.2092Z" fill="white"/>
<path d="M104.833 50.4089H96.9269V55.9873H104.833V50.4089Z" fill="white"/>
<path d="M116.619 50.4089H108.713V55.9873H116.619V50.4089Z" fill="white"/>
<path d="M104.833 58.6086H96.9269V64.187H104.833V58.6086Z" fill="white"/>
<path d="M116.619 58.6086H108.713V64.187H116.619V58.6086Z" fill="white"/>
<path d="M104.833 66.8037H96.9269V72.3821H104.833V66.8037Z" fill="white"/>
<path d="M116.619 66.8037H108.713V72.3821H116.619V66.8037Z" fill="white"/>
<path d="M104.833 75.0034H96.9269V80.5818H104.833V75.0034Z" fill="white"/>
<path d="M116.619 75.0034H108.713V80.5818H116.619V75.0034Z" fill="white"/>
<path d="M104.833 83.1982H96.9269V88.7766H104.833V83.1982Z" fill="white"/>
<path d="M116.619 83.1982H108.713V88.7766H116.619V83.1982Z" fill="white"/>
<path d="M131.231 42.2092H123.325V47.7876H131.231V42.2092Z" fill="white"/>
<path d="M131.231 50.4089H123.325V55.9873H131.231V50.4089Z" fill="white"/>
<path d="M131.231 58.6086H123.325V64.187H131.231V58.6086Z" fill="white"/>
<path d="M131.231 66.8037H123.325V72.3821H131.231V66.8037Z" fill="white"/>
<path d="M131.231 75.0034H123.325V80.5818H131.231V75.0034Z" fill="white"/>
<path d="M131.231 83.1982H123.325V88.7766H131.231V83.1982Z" fill="white"/>
<path d="M104.833 91.3003H96.9269V96.8786H104.833V91.3003Z" fill="white"/>
<path d="M116.619 91.3003H108.713V96.8786H116.619V91.3003Z" fill="white"/>
<path d="M131.231 91.3003H123.325V96.8786H131.231V91.3003Z" fill="white"/>
<path d="M104.833 99.4026H96.9269V104.981H104.833V99.4026Z" fill="white"/>
<path d="M116.619 99.4026H108.713V104.981H116.619V99.4026Z" fill="white"/>
<path d="M131.231 99.4026H123.325V104.981H131.231V99.4026Z" fill="white"/>
<path d="M104.833 107.5H96.9269V113.078H104.833V107.5Z" fill="white"/>
<path d="M116.619 107.5H108.713V113.078H116.619V107.5Z" fill="white"/>
<path d="M131.231 107.5H123.325V113.078H131.231V107.5Z" fill="white"/>
<path d="M104.833 115.602H96.9269V121.18H104.833V115.602Z" fill="white"/>
<path d="M116.619 115.602H108.713V121.18H116.619V115.602Z" fill="white"/>
<path d="M131.231 115.602H123.325V121.18H131.231V115.602Z" fill="white"/>
<path d="M104.833 123.699H96.9269V129.278H104.833V123.699Z" fill="white"/>
<path d="M116.619 123.699H108.713V129.278H116.619V123.699Z" fill="white"/>
<path d="M131.231 123.699H123.325V129.278H131.231V123.699Z" fill="white"/>
<path d="M202.652 33.78H198.381V38.6653H202.652V33.78Z" fill="white"/>
<path d="M210.05 33.78H205.78V38.6653H210.05V33.78Z" fill="white"/>
<path d="M202.652 41.1355H198.381V46.0208H202.652V41.1355Z" fill="white"/>
<path d="M210.05 41.1355H205.78V46.0208H210.05V41.1355Z" fill="white"/>
<path d="M202.652 48.4907H198.381V53.376H202.652V48.4907Z" fill="white"/>
<path d="M210.05 48.4907H205.78V53.376H210.05V48.4907Z" fill="white"/>
<path d="M202.652 55.8462H198.381V60.7315H202.652V55.8462Z" fill="white"/>
<path d="M210.05 55.8462H205.78V60.7315H210.05V55.8462Z" fill="white"/>
<path d="M202.652 63.3823H198.381V68.2676H202.652V63.3823Z" fill="white"/>
<path d="M210.05 63.3823H205.78V68.2676H210.05V63.3823Z" fill="white"/>
<path d="M202.652 70.9182H198.381V75.8035H202.652V70.9182Z" fill="white"/>
<path d="M210.05 70.9182H205.78V75.8035H210.05V70.9182Z" fill="white"/>
<path d="M202.652 78.4541H198.381V83.3394H202.652V78.4541Z" fill="white"/>
<path d="M210.05 78.4541H205.78V83.3394H210.05V78.4541Z" fill="white"/>
<path d="M202.652 85.99H198.381V90.8753H202.652V85.99Z" fill="white"/>
<path d="M210.05 85.99H205.78V90.8753H210.05V85.99Z" fill="white"/>
<path d="M202.652 93.6089H198.381V98.4942H202.652V93.6089Z" fill="white"/>
<path d="M210.05 93.6089H205.78V98.4942H210.05V93.6089Z" fill="white"/>
<path d="M202.652 101.228H198.381V106.113H202.652V101.228Z" fill="white"/>
<path d="M210.05 101.228H205.78V106.113H210.05V101.228Z" fill="white"/>
<path d="M202.652 108.842H198.381V113.727H202.652V108.842Z" fill="white"/>
<path d="M210.05 108.842H205.78V113.727H210.05V108.842Z" fill="white"/>
<path d="M202.652 116.461H198.381V121.346H202.652V116.461Z" fill="white"/>
<path d="M210.05 116.461H205.78V121.346H210.05V116.461Z" fill="white"/>
<path d="M306.898 34.5757H302.627V40.3346H306.898V34.5757Z" fill="white"/>
<path d="M314.296 34.5757H310.026V40.3346H314.296V34.5757Z" fill="white"/>
<path d="M306.898 43.2393H302.627V48.9981H306.898V43.2393Z" fill="white"/>
<path d="M314.296 43.2393H310.026V48.9981H314.296V43.2393Z" fill="white"/>
<path d="M306.898 51.9075H302.627V57.6663H306.898V51.9075Z" fill="white"/>
<path d="M314.296 51.9075H310.026V57.6663H314.296V51.9075Z" fill="white"/>
<path d="M306.898 60.5708H302.627V66.3297H306.898V60.5708Z" fill="white"/>
<path d="M314.296 60.5708H310.026V66.3297H314.296V60.5708Z" fill="white"/>
<path d="M306.898 69.449H302.627V75.2078H306.898V69.449Z" fill="white"/>
<path d="M314.296 69.449H310.026V75.2078H314.296V69.449Z" fill="white"/>
<path d="M306.898 78.3271H302.627V84.086H306.898V78.3271Z" fill="white"/>
<path d="M314.296 78.3271H310.026V84.086H314.296V78.3271Z" fill="white"/>
<path d="M306.898 87.2053H302.627V92.9642H306.898V87.2053Z" fill="white"/>
<path d="M314.296 87.2053H310.026V92.9642H314.296V87.2053Z" fill="white"/>
<path d="M306.898 96.0884H302.627V101.847H306.898V96.0884Z" fill="white"/>
<path d="M314.296 96.0884H310.026V101.847H314.296V96.0884Z" fill="white"/>
<path d="M306.898 105.059H302.627V110.818H306.898V105.059Z" fill="white"/>
<path d="M314.296 105.059H310.026V110.818H314.296V105.059Z" fill="white"/>
<path d="M306.898 114.035H302.627V119.794H306.898V114.035Z" fill="white"/>
<path d="M314.296 114.035H310.026V119.794H314.296V114.035Z" fill="white"/>
<path d="M306.898 123.006H302.627V128.765H306.898V123.006Z" fill="white"/>
<path d="M314.296 123.006H310.026V128.765H314.296V123.006Z" fill="white"/>
<path d="M306.898 131.982H302.627V137.741H306.898V131.982Z" fill="white"/>
<path d="M314.296 131.982H310.026V137.741H314.296V131.982Z" fill="white"/>
<path d="M218.474 33.78H214.204V38.6653H218.474V33.78Z" fill="white"/>
<path d="M225.873 33.78H221.602V38.6653H225.873V33.78Z" fill="white"/>
<path d="M218.474 26.2393H214.204V31.1245H218.474V26.2393Z" fill="white"/>
<path d="M225.873 26.2393H221.602V31.1245H225.873V26.2393Z" fill="white"/>
<path d="M218.474 18.6985H214.204V23.5838H218.474V18.6985Z" fill="white"/>
<path d="M225.873 18.6985H221.602V23.5838H225.873V18.6985Z" fill="white"/>
<path d="M218.474 41.1355H214.204V46.0208H218.474V41.1355Z" fill="white"/>
<path d="M225.873 41.1355H221.602V46.0208H225.873V41.1355Z" fill="white"/>
<path d="M218.474 48.4907H214.204V53.376H218.474V48.4907Z" fill="white"/>
<path d="M225.873 48.4907H221.602V53.376H225.873V48.4907Z" fill="white"/>
<path d="M218.474 55.8462H214.204V60.7315H218.474V55.8462Z" fill="white"/>
<path d="M225.873 55.8462H221.602V60.7315H225.873V55.8462Z" fill="white"/>
<path d="M218.474 63.3823H214.204V68.2676H218.474V63.3823Z" fill="white"/>
<path d="M225.873 63.3823H221.602V68.2676H225.873V63.3823Z" fill="white"/>
<path d="M218.474 70.9182H214.204V75.8035H218.474V70.9182Z" fill="white"/>
<path d="M225.873 70.9182H221.602V75.8035H225.873V70.9182Z" fill="white"/>
<path d="M218.474 78.4541H214.204V83.3394H218.474V78.4541Z" fill="white"/>
<path d="M225.873 78.4541H221.602V83.3394H225.873V78.4541Z" fill="white"/>
<path d="M218.474 85.99H214.204V90.8753H218.474V85.99Z" fill="white"/>
<path d="M225.873 85.99H221.602V90.8753H225.873V85.99Z" fill="white"/>
<path d="M218.474 93.6089H214.204V98.4942H218.474V93.6089Z" fill="white"/>
<path d="M225.873 93.6089H221.602V98.4942H225.873V93.6089Z" fill="white"/>
<path d="M218.474 101.228H214.204V106.113H218.474V101.228Z" fill="white"/>
<path d="M225.873 101.228H221.602V106.113H225.873V101.228Z" fill="white"/>
<path d="M218.474 108.842H214.204V113.727H218.474V108.842Z" fill="white"/>
<path d="M225.873 108.842H221.602V113.727H225.873V108.842Z" fill="white"/>
<path d="M218.474 116.461H214.204V121.346H218.474V116.461Z" fill="white"/>
<path d="M225.873 116.461H221.602V121.346H225.873V116.461Z" fill="white"/>
<path d="M76.7415 40.6621L33.9889 40.5986C33.9889 40.5986 36.1168 37.8312 38.4594 37.4896C38.4594 37.4896 43.0372 23.9258 50.6605 23.8233C57.7566 23.7452 60.5873 32.1841 60.5873 32.1841C60.5873 32.1841 63.8816 28.4063 67.0196 30.1439C70.1577 31.8815 71.9245 36.8356 71.9245 36.8356C71.9245 36.8356 75.4677 38.7585 76.7415 40.6621Z" fill="#EBEBEB"/>
<path d="M259.416 24.9117L313.486 24.9947C313.486 24.9947 313.486 21.5391 306.043 20.8509C306.043 20.8509 299.265 5.72043 288.879 7.75574C282.412 8.98568 279.094 17.859 279.094 17.859C279.094 17.859 274.213 10.8648 270.309 12.2119C266.405 13.5591 264.062 20.9973 264.062 20.9973C264.062 20.9973 260.031 22.9594 259.416 24.9117Z" fill="#EBEBEB"/>
<path d="M128.24 23.0325L165.009 23.0861C165.009 23.0861 161.544 19.8501 160.002 19.8501C158.459 19.8501 153.96 9.00009 148.22 9.44911C142.481 9.89812 139.406 17.971 139.406 17.971C139.406 17.971 132.422 15.7698 128.24 23.0325Z" fill="#EBEBEB"/>
<path d="M230.948 44.5608L262.388 44.6096C262.388 44.6096 260.826 42.5696 259.104 42.3158C259.104 42.3158 255.77 32.3305 250.158 32.2524C244.941 32.1791 242.837 38.3773 242.837 38.3773C242.837 38.3773 240.426 35.5906 238.118 36.8595C235.809 38.1284 234.487 41.7692 234.487 41.7692C234.487 41.7692 231.89 43.165 230.948 44.5608Z" fill="#EBEBEB"/>
<path d="M168.113 181.122C242.193 181.122 302.247 176.045 302.247 169.783C302.247 163.522 242.193 158.445 168.113 158.445C94.033 158.445 33.9793 163.522 33.9793 169.783C33.9793 176.045 94.033 181.122 168.113 181.122Z" fill="#EBEBEB"/>
<path d="M221.227 197.687C257.951 197.687 287.722 193.703 287.722 188.789C287.722 183.875 257.951 179.892 221.227 179.892C184.502 179.892 154.731 183.875 154.731 188.789C154.731 193.703 184.502 197.687 221.227 197.687Z" fill="#EBEBEB"/>
<path d="M10.2359 142.974L50.192 142.856L90.148 142.812L170.065 142.729L249.982 142.812L289.938 142.856L329.894 142.974L289.938 143.095L249.982 143.139L170.065 143.217L90.148 143.139L50.192 143.095L10.2359 142.974Z" fill="#263238"/>
<path d="M329.894 137.814H10.2359V142.978H329.894V137.814Z" fill="#C7C7C7"/>
<path d="M26.683 137.814C27.0084 139.519 27.0084 141.269 26.683 142.973C26.5076 142.126 26.4257 141.261 26.439 140.396C26.4279 139.529 26.5097 138.664 26.683 137.814Z" fill="#263238"/>
<path d="M45.7995 137.814C45.9728 138.664 46.0546 139.529 46.0436 140.396C46.0568 141.261 45.9749 142.126 45.7995 142.973C45.6265 142.125 45.5447 141.261 45.5555 140.396C45.547 139.529 45.6288 138.664 45.7995 137.814Z" fill="#263238"/>
<path d="M64.9162 137.814C65.2416 139.519 65.2416 141.269 64.9162 142.973C64.5909 141.269 64.5909 139.519 64.9162 137.814Z" fill="#263238"/>
<path d="M84.0377 137.814C84.3565 139.519 84.3565 141.268 84.0377 142.973C83.7124 141.269 83.7124 139.519 84.0377 137.814Z" fill="#263238"/>
<path d="M103.154 137.814C103.48 139.519 103.48 141.269 103.154 142.973C102.829 141.269 102.829 139.519 103.154 137.814Z" fill="#263238"/>
<path d="M122.271 137.814C122.442 138.664 122.524 139.529 122.515 140.396C122.526 141.261 122.444 142.125 122.271 142.973C122.096 142.126 122.014 141.261 122.027 140.396C122.018 139.529 122.1 138.664 122.271 137.814Z" fill="#263238"/>
<path d="M141.388 137.814C141.561 138.664 141.643 139.529 141.632 140.396C141.645 141.261 141.563 142.126 141.388 142.973C141.062 141.269 141.062 139.519 141.388 137.814Z" fill="#263238"/>
<path d="M160.504 137.814C160.83 139.519 160.83 141.269 160.504 142.973C160.179 141.269 160.179 139.519 160.504 137.814Z" fill="#263238"/>
<path d="M179.626 137.814C179.951 139.519 179.951 141.269 179.626 142.973C179.3 141.269 179.3 139.519 179.626 137.814Z" fill="#263238"/>
<path d="M198.742 137.814C199.068 139.519 199.068 141.269 198.742 142.973C198.567 142.126 198.485 141.261 198.498 140.396C198.487 139.529 198.569 138.664 198.742 137.814Z" fill="#263238"/>
<path d="M217.859 137.814C218.03 138.664 218.112 139.529 218.103 140.396C218.116 141.261 218.034 142.126 217.859 142.973C217.686 142.125 217.604 141.261 217.615 140.396C217.606 139.529 217.688 138.664 217.859 137.814Z" fill="#263238"/>
<path d="M236.976 137.814C237.301 139.519 237.301 141.269 236.976 142.973C236.65 141.269 236.65 139.519 236.976 137.814Z" fill="#263238"/>
<path d="M256.097 137.814C256.416 139.519 256.416 141.268 256.097 142.973C255.772 141.269 255.772 139.519 256.097 137.814Z" fill="#263238"/>
<path d="M275.214 137.814C275.539 139.519 275.539 141.269 275.214 142.973C274.888 141.269 274.888 139.519 275.214 137.814Z" fill="#263238"/>
<path d="M294.33 137.814C294.501 138.664 294.583 139.529 294.574 140.396C294.585 141.261 294.504 142.125 294.33 142.973C294.155 142.126 294.073 141.261 294.086 140.396C294.075 139.529 294.157 138.664 294.33 137.814Z" fill="#263238"/>
<path d="M313.447 137.814C313.62 138.664 313.702 139.529 313.691 140.396C313.704 141.261 313.622 142.126 313.447 142.973C313.122 141.269 313.122 139.519 313.447 137.814Z" fill="#263238"/>
<path d="M316.873 129.815H314.667L315.228 82.7249L315.277 78.8008H316.263L316.312 82.7249L316.873 129.815Z" fill="#393941"/>
<path d="M316.312 82.7246H315.228L315.277 78.8008H316.263L316.312 82.7246Z" fill="#263238"/>
<path d="M310.27 64.5194L311.134 79.8891L312.149 80.0501L313.071 80.1965V63.6018L311.109 64.2461L310.27 64.5194Z" fill="#393941"/>
<path d="M311.226 66.3157C311.226 66.3157 307.483 66.3499 307.561 66.5597C307.639 66.7695 309.143 67.1893 309.279 67.2869C309.416 67.3845 310.841 70.1126 311.231 70.1126C311.622 70.1126 311.226 66.3157 311.226 66.3157Z" fill="#393941"/>
<path d="M311.5 70.6643C311.5 70.6643 307.761 70.7034 307.835 70.9132C307.908 71.123 309.421 71.5428 309.552 71.6404C309.684 71.738 311.119 74.4613 311.505 74.4613C311.89 74.4613 311.5 70.6643 311.5 70.6643Z" fill="#393941"/>
<path d="M311.778 75.0181C311.778 75.0181 308.035 75.0571 308.113 75.267C308.191 75.4768 309.694 75.8965 309.831 75.9893C309.967 76.082 311.392 78.815 311.783 78.815C312.173 78.815 311.778 75.0181 311.778 75.0181Z" fill="#393941"/>
<path opacity="0.1" d="M311.109 64.2461L312.149 80.0501L313.071 80.1965V63.6018L311.109 64.2461Z" fill="black"/>
<path d="M321.27 64.5194L320.407 79.8891L319.391 80.0501L318.469 80.1965V63.6018L320.431 64.2461L321.27 64.5194Z" fill="#393941"/>
<path d="M320.319 66.3157C320.319 66.3157 324.057 66.3499 323.979 66.5597C323.901 66.7695 322.398 67.1893 322.261 67.2869C322.124 67.3845 320.699 70.1126 320.309 70.1126C319.919 70.1126 320.319 66.3157 320.319 66.3157Z" fill="#393941"/>
<path d="M320.04 70.6643C320.04 70.6643 323.784 70.7034 323.706 70.9132C323.628 71.123 322.119 71.5428 321.988 71.6404C321.856 71.738 320.421 74.4613 320.036 74.4613C319.65 74.4613 320.04 70.6643 320.04 70.6643Z" fill="#393941"/>
<path d="M319.767 75.0181C319.767 75.0181 323.506 75.0571 323.428 75.267C323.349 75.4768 321.846 75.8965 321.71 75.9893C321.573 76.082 320.148 78.815 319.757 78.815C319.367 78.815 319.767 75.0181 319.767 75.0181Z" fill="#393941"/>
<path opacity="0.1" d="M320.431 64.2461L319.391 80.0501L318.469 80.1965V63.6018L320.431 64.2461Z" fill="black"/>
<path d="M319.284 62.3523L318.977 80.5724H312.564L312.256 62.3523H319.284Z" fill="#393941"/>
<path d="M318.054 65.5831C318.054 66.8445 317.032 67.8672 315.77 67.8672C314.509 67.8672 313.486 66.8445 313.486 65.5831C313.486 64.3217 314.509 63.2991 315.77 63.2991C317.032 63.2991 318.054 64.3217 318.054 65.5831Z" fill="#DD6A57"/>
<path d="M318.054 77.1361C318.054 78.3975 317.032 79.4201 315.77 79.4201C314.509 79.4201 313.486 78.3975 313.486 77.1361C313.486 75.8747 314.509 74.8521 315.77 74.8521C317.032 74.8521 318.054 75.8747 318.054 77.1361Z" fill="white"/>
<path d="M318.054 71.411C318.051 72.6724 317.027 73.6928 315.765 73.6902C314.504 73.6875 313.483 72.6627 313.486 71.4012C313.489 70.1417 314.511 69.1221 315.77 69.1221C317.032 69.1221 318.054 70.1447 318.054 71.4061C318.054 71.4077 318.054 71.4093 318.054 71.411Z" fill="white"/>
<path d="M317.537 137.813H314.003L314.306 128.56L314.399 125.686H317.068L317.181 128.56L317.537 137.813Z" fill="#393941"/>
<path d="M317.181 128.56H314.306L314.399 125.686H317.068L317.181 128.56Z" fill="#455A64"/>
<path d="M55.375 149.514H113.452C113.452 149.514 107.107 122.381 84.4184 122.381C61.7293 122.381 56.351 143.457 55.375 149.514Z" fill="#2E2E34"/>
<path opacity="0.2" d="M55.375 149.514H113.452C113.452 149.514 107.107 122.381 84.4184 122.381C61.7293 122.381 56.351 143.457 55.375 149.514Z" fill="#2E2E34"/>
<path d="M223.896 152.442H281.973C281.973 152.442 275.629 125.31 252.94 125.31C230.25 125.31 224.897 146.385 223.896 152.442Z" fill="#2E2E34"/>
<path opacity="0.2" d="M223.896 152.442H281.973C281.973 152.442 275.629 125.31 252.94 125.31C230.25 125.31 224.897 146.385 223.896 152.442Z" fill="black"/>
<path d="M42.0856 100.027C40.841 101.98 38.6693 123.792 38.5278 124.553C38.3862 125.315 36.5756 128.653 36.5756 129.288C36.5756 129.922 36.0876 139.742 36.3559 140.377C36.9438 141.535 37.6124 142.651 38.3569 143.715C38.6742 144.096 46.9026 151.178 47.825 151.276C48.7474 151.373 57.2588 151.432 57.4199 151.276C57.5809 151.119 58.5618 124.919 84.3891 124.919C110.216 124.919 109.933 152.74 110.412 152.847C110.89 152.955 226.502 155.58 226.502 155.58C226.502 151.319 226.834 125.969 252.168 125.969C268.674 125.969 277.015 139.571 277.303 149.606C277.42 153.784 276.722 158.392 276.951 158.392C277.712 158.392 280.319 158.582 280.763 158.392C281.207 158.201 286.619 154.638 287.054 154.512C287.488 154.385 290.611 154.321 291.373 154.131C292.134 153.94 297.473 149.25 297.571 149.079C297.669 148.908 297.825 147.049 297.854 146.888C297.883 146.727 303.291 140.118 303.545 139.391C303.798 138.664 303.891 132.621 303.891 132.016C303.891 131.411 294.077 115.494 291.788 113.781C289.499 112.068 273.203 106.348 268.435 105.484C263.667 104.62 237.459 100.715 236.507 100.051C235.555 99.3877 190.802 73.7196 183.018 71.8112C176.727 70.2884 103.911 72.3823 100.099 72.5726C96.2876 72.763 85.7361 74.6714 84.721 74.6714C83.7058 74.6714 72.0318 74.6079 71.3144 74.9251C70.5969 75.2424 71.3144 78.0391 72.2026 78.5467C73.091 79.0545 44.2477 96.596 42.0856 100.027Z" fill="#D9D9DE"/>
<path d="M43.7547 98.3728C44.028 98.6266 48.5814 98.7388 49.0597 98.5485C49.538 98.3582 78.2153 79.2791 78.2349 78.7228C78.2349 78.4445 72.8665 78.5178 72.2027 78.547C71.5389 78.5763 43.2277 97.8945 43.7547 98.3728Z" fill="#455A64"/>
<path d="M75.6922 98.0701C76.9368 101.741 227.561 108.603 228.386 106.826C228.996 105.508 215.521 94.6878 209.23 91.1589C202.94 87.63 184.926 77.4341 176.044 76.3847C167.161 75.3353 149.201 75.4085 133.535 75.7209C117.996 76.004 99.6991 76.3847 93.2178 79.1374C87.5517 81.578 74.7064 95.1515 75.6922 98.0701Z" fill="#263238"/>
<path d="M79.8942 95.9275C80.27 97.3087 113.535 100.886 152.52 102.697C191.505 104.508 210.753 104.791 211.231 104.601C211.71 104.41 209.894 94.0239 209.23 93.1649C208.567 92.3058 180.636 78.01 176.253 77.6245C171.871 77.2389 148.181 77.1949 136.234 77.3853C124.287 77.5756 99.3525 79.0057 95.1065 80.7188C91.3632 82.2319 79.5087 94.5461 79.8942 95.9275Z" fill="#455A64"/>
<g opacity="0.1">
<path d="M131.51 77.5073L109.182 99.837C105.199 99.4856 101.515 99.1341 98.2056 98.7974L118.894 78.1126C123.306 77.8295 127.703 77.6244 131.51 77.5073Z" fill="white"/>
<path d="M211.153 102.399L208.903 104.649C206.626 104.649 202.697 104.574 197.117 104.424L208.733 92.8135C208.906 92.9134 209.069 93.0294 209.221 93.16C209.704 93.7749 210.768 99.2508 211.153 102.399Z" fill="white"/>
<path d="M148.152 77.2925L124.409 101.052C122.505 100.92 120.636 100.784 118.816 100.642L142.115 77.3364C144.028 77.3072 146.063 77.2925 148.152 77.2925Z" fill="white"/>
<path d="M199.118 87.6984L182.847 103.981L177.059 103.766L195.116 85.707C196.488 86.3757 197.835 87.0444 199.118 87.6984Z" fill="white"/>
<path d="M114.916 78.3369L94.8332 98.4312L93.3008 98.2603L113.096 78.4638L114.916 78.3369Z" fill="white"/>
<path d="M202.578 89.4702L187.937 104.142L186.288 104.083L201.475 88.8894L202.578 89.4702Z" fill="white"/>
<path d="M181.51 79.3912L157.962 102.941L156.322 102.873L180.314 78.8982L181.51 79.3912Z" fill="white"/>
<path d="M98.9572 79.8694L82.149 96.6593C81.5877 96.5471 81.1241 96.4397 80.7678 96.3323L96.8732 80.2257C97.4833 80.1085 98.1763 79.9866 98.9572 79.8694Z" fill="white"/>
</g>
<path d="M100.763 79.6158C100.919 79.6158 100.992 79.8208 100.856 80.1869C100.075 82.3491 93.9792 94.595 92.4564 97.4552C92.2627 97.7659 91.9508 97.9845 91.5926 98.0604L102.33 99.2074C101.941 99.0514 101.718 98.6421 101.798 98.2313C101.905 97.5528 105.892 83.1594 107.166 79.6207C107.309 79.2931 107.563 79.0267 107.883 78.8691C108.098 78.8691 106.053 78.8984 104.111 79.0986C102.383 79.2839 100.763 79.6158 100.763 79.6158Z" fill="#263238"/>
<path d="M114.916 78.3369C114.916 78.3369 115.111 78.4443 115.121 78.825C115.19 82.2123 115.57 99.173 115.243 100.1C115.222 100.193 115.166 100.273 115.087 100.325L117.117 100.486C117.012 100.343 116.948 100.174 116.932 99.9979C116.702 97.1328 116.497 81.5827 116.537 78.7078C116.549 78.5295 116.615 78.3591 116.727 78.2197L114.916 78.3369Z" fill="#263238"/>
<path d="M148.313 77.9905C148.552 78.7422 148.947 100.886 148.947 101.599C148.947 102.311 148.132 102.482 148.132 102.482L160.719 103.068C160.719 103.068 159.904 102.839 159.743 102.458C159.582 102.077 155.643 78.2003 155.668 77.8879C155.692 77.5755 156.312 77.2827 156.312 77.2827H147.527C147.875 77.4007 148.159 77.6566 148.313 77.9905Z" fill="#263238"/>
<path d="M44.3111 103.141C42.764 103.336 39.2891 106.953 39.0354 107.715C38.7816 108.476 37.8299 113.625 38.3375 114.387C38.845 115.148 40.6898 117.056 42.276 117.12C43.8622 117.183 51.6171 113.498 52.315 112.864C53.0129 112.229 53.5205 108.359 52.6957 107.114C51.8708 105.87 46.2779 102.887 44.3111 103.141Z" fill="white"/>
<path d="M52.3149 112.864C51.6171 113.498 43.862 117.183 42.2759 117.12C41.0656 117.071 39.7039 115.949 38.9036 115.08C39.8053 115.732 40.8945 116.075 42.0075 116.056C42.8616 115.978 50.1237 112.854 51.0559 112C51.988 111.146 52.0319 107.929 51.905 107.349C51.7781 106.768 47.0929 103.747 47.0929 103.747C49.4111 104.64 52.1393 106.27 52.6956 107.109C53.5204 108.373 53.0129 112.224 52.3149 112.864Z" fill="#EBEBEB"/>
<path d="M37.8933 131.894C37.4638 132.323 37.3174 135.549 37.7664 135.832C38.2154 136.115 40.8167 136.086 41.3242 135.832C41.8317 135.579 43.1348 133.163 43.0372 132.338C42.9397 131.513 38.4008 131.386 37.8933 131.894Z" fill="white"/>
<path d="M269.845 114.035C271.217 116.255 281.285 120.184 285.048 120.804C287.42 121.194 295.629 121.712 296.107 121.292C296.585 120.872 292.627 115.382 290.577 114.044C288.528 112.707 278.284 109.281 275.185 109.423C272.085 109.564 268.464 111.79 269.845 114.035Z" fill="white"/>
<path d="M296.107 121.282C295.619 121.712 287.42 121.194 285.048 120.794C281.285 120.174 271.217 116.246 269.845 114.025C268.474 111.805 272.085 109.55 275.185 109.403C275.425 109.389 275.666 109.389 275.907 109.403C273.023 110.467 272.432 112.722 274.189 114.011C275.946 115.299 281.578 118.31 283.828 118.94C285.995 119.55 294.077 120.809 294.779 120.257C295.051 119.936 295.163 119.51 295.087 119.096C295.829 120.233 296.287 121.121 296.107 121.282Z" fill="#EBEBEB"/>
<g opacity="0.5">
<path d="M76.4731 113.517C76.4828 114.873 75.9566 116.178 75.009 117.148C73.0057 119.209 69.7119 119.257 67.6493 117.256C65.586 115.256 65.5344 111.962 67.534 109.899C67.5718 109.86 67.6103 109.822 67.6493 109.784C69.7058 107.781 72.9965 107.825 74.9992 109.881C75.0025 109.885 75.0057 109.888 75.009 109.891C75.9562 110.859 76.4825 112.163 76.4731 113.517ZM76.4731 113.517C76.4619 112.169 75.916 110.881 74.9553 109.935C73.9949 109.01 72.7063 108.504 71.373 108.53C70.0605 108.556 68.8117 109.1 67.8982 110.042C66.0181 111.979 66.0181 115.06 67.8982 116.997C68.8117 117.94 70.0606 118.484 71.373 118.51C72.7063 118.535 73.9949 118.029 74.9553 117.104C75.9154 116.156 76.4611 114.867 76.4731 113.517Z" fill="black"/>
<path d="M55.375 129.004C54.8576 127.853 54.3989 126.691 53.9108 125.52C53.4228 124.348 53.0129 123.177 52.5638 122C52.1148 120.824 51.7097 119.638 51.3095 118.447C50.9093 117.256 50.5092 116.061 50.1577 114.85C50.6799 116.002 51.1338 117.164 51.6218 118.33C52.1099 119.497 52.5198 120.678 52.9737 121.854C53.4276 123.03 53.8278 124.216 54.228 125.407C54.6283 126.598 55.0138 127.794 55.375 129.004Z" fill="black"/>
<path d="M37.4931 129.004C39.9967 128.956 42.4956 128.96 44.9992 128.97L52.5004 129.048L60.0016 129.229C62.5003 129.307 64.9992 129.39 67.4979 129.522C64.9992 129.571 62.4955 129.566 59.9967 129.561L52.4906 129.478L44.9894 129.297C42.4906 129.219 39.9919 129.136 37.4931 129.004Z" fill="black"/>
<path d="M155.59 104.664L156.449 110.76L156.82 113.816C156.878 114.328 156.932 114.836 156.971 115.353C157.01 115.87 156.971 116.378 156.971 116.895L156.888 129.205L156.79 135.364L156.737 138.439L156.712 139.982L156.595 141.514L156.107 147.654L155.59 153.765L155.902 147.62L156.254 141.48L156.341 139.943V138.405L156.371 135.33L156.434 129.185L156.644 116.886C156.644 116.373 156.688 115.856 156.644 115.353C156.6 114.85 156.571 114.333 156.522 113.825L156.215 110.765L155.59 104.664Z" fill="black"/>
<path d="M223.179 107.461L224.238 113.586L224.726 116.671L224.853 117.437C224.908 117.692 224.939 117.952 224.945 118.213C224.945 118.731 224.945 119.248 224.945 119.77C224.911 123.914 224.809 128.068 224.682 132.197C224.649 133.231 224.605 134.266 224.55 135.301C224.492 136.345 224.292 137.376 223.955 138.366C223.389 140.362 222.74 142.329 222.027 144.282C221.332 146.239 220.504 148.147 219.548 149.992L219.162 150.675C219.03 150.9 218.879 151.115 218.738 151.334C218.589 151.555 218.426 151.765 218.249 151.964L217.996 152.271C217.858 152.354 217.702 152.401 217.542 152.408C216.493 152.515 215.463 152.53 214.423 152.564C206.127 152.735 197.854 152.662 189.567 152.603C181.28 152.545 172.998 152.423 164.711 152.271C156.424 152.12 148.147 151.891 139.865 151.588C135.726 151.417 131.568 151.281 127.449 150.91C126.919 150.871 126.394 150.787 125.878 150.661C125.585 150.549 125.414 150.412 125.165 150.305C124.916 150.197 124.706 150.08 124.472 149.973C123.53 149.548 122.564 149.172 121.627 148.704C120.677 148.253 119.798 147.668 119.016 146.966C118.335 146.17 117.706 145.333 117.132 144.457C114.799 141.041 112.569 137.536 110.343 134.047C108.118 130.557 105.912 127.043 103.721 123.528C101.529 120.014 99.3672 116.476 97.2296 112.927L96.439 111.59L96.2486 111.239L96.1559 111.063C96.1406 110.999 96.1325 110.933 96.1315 110.868L96.0534 110.096C95.9656 109.062 95.8875 108.027 95.8484 106.992C95.8484 106.734 95.8484 106.475 95.8484 106.211C95.8822 105.953 95.9377 105.699 96.0143 105.45C96.1559 104.962 96.3267 104.474 96.5024 103.986C96.8489 103.009 97.2198 102.033 97.6054 101.082C97.228 102.058 96.8685 103.034 96.5268 104.01C96.3609 104.498 96.1949 104.986 96.0388 105.474C95.9642 105.721 95.9104 105.975 95.8778 106.231C95.8778 106.489 95.8778 106.748 95.8778 107.007C95.9217 108.037 96.0144 109.071 96.1072 110.101L96.1902 110.872C96.1948 110.936 96.2045 111 96.2195 111.063L96.3122 111.229C96.3756 111.336 96.4293 111.443 96.4977 111.556L97.2981 112.888C99.4601 116.417 101.69 119.926 103.877 123.431C108.269 130.435 112.696 137.458 117.347 144.311C117.911 145.162 118.527 145.977 119.192 146.751C119.957 147.43 120.815 147.997 121.739 148.435C122.662 148.889 123.623 149.26 124.575 149.689C124.814 149.797 125.063 149.904 125.282 150.021C125.502 150.138 125.771 150.295 125.961 150.363C126.452 150.475 126.952 150.55 127.454 150.588C131.569 150.949 135.717 151.076 139.855 151.227C148.152 151.51 156.415 151.691 164.697 151.842C172.979 151.993 181.261 152.154 189.548 152.247C197.835 152.34 206.141 152.428 214.394 152.281C215.424 152.252 216.468 152.237 217.484 152.135C217.601 152.135 217.752 152.086 217.772 152.081L218.016 151.788C218.183 151.597 218.337 151.393 218.474 151.178C218.611 150.963 218.762 150.753 218.894 150.534L219.275 149.865C220.247 148.029 221.09 146.127 221.798 144.174C222.517 142.222 223.168 140.258 223.75 138.283C224.082 137.31 224.282 136.297 224.345 135.272L224.487 132.167C224.653 128.028 224.79 123.87 224.858 119.746C224.858 119.228 224.858 118.711 224.858 118.199C224.85 117.939 224.821 117.681 224.77 117.427L224.648 116.661L224.16 113.596L223.179 107.461Z" fill="black"/>
<path d="M276.492 117.993C275.416 118.899 274.275 119.722 273.076 120.458C271.89 121.224 270.68 121.947 269.479 122.684C268.279 123.421 267.039 124.104 265.814 124.787C264.589 125.47 263.345 126.139 262.081 126.768C263.257 125.988 264.452 125.241 265.648 124.499L269.26 122.313L272.9 120.18L274.726 119.116C275.337 118.778 275.927 118.403 276.492 117.993Z" fill="black"/>
<path d="M102.1 130.113L118.235 130.537L134.374 131.025L166.649 132.011L198.918 133.138L215.053 133.705L231.183 134.339L215.043 133.914L198.908 133.426L166.634 132.441L134.365 131.313L118.23 130.742L102.1 130.113Z" fill="black"/>
<path d="M101.148 106.982L100.514 107.016H100.358C100.324 107.016 100.319 107.046 100.299 107.095C100.272 107.194 100.253 107.295 100.241 107.397C100.201 107.811 100.193 108.227 100.216 108.642C100.222 108.847 100.24 109.053 100.27 109.257C100.282 109.348 100.305 109.438 100.338 109.525H100.387H100.504C100.914 109.564 101.339 109.574 101.754 109.588C103.432 109.642 105.116 109.696 106.795 109.725L109.313 109.798H110.573H111.109C111.137 109.748 111.16 109.696 111.178 109.642C111.203 109.547 111.222 109.451 111.236 109.354C111.291 108.947 111.309 108.535 111.29 108.124C111.284 107.92 111.266 107.716 111.236 107.514C111.223 107.433 111.2 107.355 111.168 107.28C111.094 107.244 111.015 107.221 110.934 107.212C110.119 107.07 109.27 107.021 108.435 106.938C109.28 106.915 110.125 106.938 110.968 107.006C111.094 107.008 111.218 107.046 111.324 107.114C111.402 107.217 111.452 107.338 111.471 107.465C111.516 107.678 111.547 107.893 111.563 108.109C111.6 108.538 111.6 108.969 111.563 109.398C111.552 109.51 111.534 109.62 111.51 109.73C111.487 109.883 111.404 110.022 111.28 110.115C111.245 110.141 111.202 110.155 111.158 110.154H111.061H110.89H109.309L106.78 110.12C105.102 110.057 103.418 110.008 101.739 109.886C101.314 109.847 100.9 109.822 100.47 109.759C100.407 109.755 100.344 109.742 100.285 109.72C100.247 109.714 100.21 109.7 100.177 109.681C100.141 109.651 100.114 109.613 100.099 109.569C100.056 109.459 100.03 109.344 100.021 109.227C99.9983 109.013 99.9901 108.798 99.9965 108.583C100.003 108.157 100.044 107.733 100.119 107.314C100.139 107.207 100.168 107.103 100.206 107.002C100.215 106.974 100.229 106.947 100.245 106.923C100.27 106.891 100.308 106.873 100.348 106.875H100.504L101.148 106.982Z" fill="black"/>
<path d="M162.91 108.51L162.281 108.544H162.125C162.09 108.544 162.081 108.574 162.061 108.622C162.033 108.721 162.015 108.823 162.007 108.925C161.966 109.338 161.956 109.754 161.978 110.17C161.978 110.379 162.003 110.584 162.032 110.784C162.046 110.877 162.07 110.967 162.105 111.053H162.149H162.271C162.681 111.092 163.105 111.102 163.52 111.116C165.199 111.17 166.878 111.224 168.557 111.253L171.08 111.326H172.334H172.852C172.881 111.326 172.901 111.326 172.852 111.326C172.88 111.279 172.902 111.228 172.915 111.175C172.942 111.08 172.963 110.984 172.979 110.887C173.031 110.479 173.049 110.068 173.032 109.657C173.025 109.453 173.006 109.249 172.974 109.047C172.962 108.967 172.94 108.888 172.91 108.813C172.837 108.777 172.758 108.754 172.676 108.745C171.856 108.603 171.012 108.554 170.177 108.471C171.021 108.449 171.864 108.47 172.705 108.535C172.832 108.537 172.956 108.576 173.062 108.647C173.141 108.75 173.193 108.87 173.213 108.998C173.257 109.213 173.281 109.428 173.306 109.642C173.342 110.071 173.342 110.502 173.306 110.931C173.295 111.043 173.277 111.153 173.252 111.263C173.203 111.375 173.223 111.497 173.023 111.648C172.986 111.675 172.941 111.688 172.896 111.687H172.803H172.632H171.046L168.523 111.653C166.839 111.59 165.16 111.541 163.476 111.414C163.057 111.38 162.642 111.351 162.212 111.292C162.147 111.288 162.083 111.275 162.022 111.253C161.987 111.244 161.952 111.23 161.919 111.214C161.885 111.182 161.857 111.144 161.836 111.102C161.795 110.992 161.771 110.877 161.763 110.76C161.741 110.546 161.732 110.331 161.734 110.116C161.744 109.69 161.787 109.266 161.861 108.847C161.879 108.741 161.907 108.636 161.944 108.535C161.955 108.507 161.97 108.481 161.988 108.457C162.011 108.424 162.05 108.405 162.09 108.408H162.246L162.91 108.51Z" fill="black"/>
</g>
<path d="M83.8957 174.807C97.1597 174.807 107.912 164.054 107.912 150.789C107.912 137.524 97.1597 126.77 83.8957 126.77C70.6317 126.77 59.8791 137.524 59.8791 150.789C59.8791 164.054 70.6317 174.807 83.8957 174.807Z" fill="#263238"/>
<path d="M83.8957 168.325C93.5802 168.325 101.431 160.474 101.431 150.789C101.431 141.103 93.5802 133.252 83.8957 133.252C74.2112 133.252 66.3603 141.103 66.3603 150.789C66.3603 160.474 74.2112 168.325 83.8957 168.325Z" fill="#DBDBDB"/>
<path d="M83.8962 166.962C92.826 166.962 100.065 159.723 100.065 150.792C100.065 141.862 92.826 134.622 83.8962 134.622C74.9664 134.622 67.7274 141.862 67.7274 150.792C67.7274 159.723 74.9664 166.962 83.8962 166.962Z" fill="#A6A6A6"/>
<path d="M86.4341 146.736H81.3536C83.0666 144.256 77.0978 135.618 77.0978 135.618L79.7771 134.73C81.5536 137.78 82.4419 138.673 83.906 138.673C85.3701 138.673 86.2535 137.78 88.0349 134.73L90.7044 135.623C90.7044 135.623 84.721 144.256 86.4341 146.736Z" fill="#DBDBDB"/>
<path d="M80.929 147.043L79.3623 151.875C77.537 149.479 67.4737 152.49 67.4737 152.49V149.674C70.9241 148.927 72.0466 148.356 72.5005 146.965C72.9543 145.574 72.3735 144.457 70.0261 141.816L71.7 139.557C71.7 139.557 78.0446 147.907 80.929 147.043Z" fill="#DBDBDB"/>
<path d="M79.5234 152.374L83.6327 155.361C80.7874 156.337 80.5433 166.855 80.5433 166.855L77.8591 166.011C78.2105 162.497 78.0201 161.252 76.8342 160.393C75.6483 159.534 74.394 159.734 71.1729 161.154L69.5282 158.865C69.5282 158.865 79.455 155.385 79.5234 152.374Z" fill="#DBDBDB"/>
<path d="M84.1695 155.361L88.2788 152.374C88.3471 155.385 98.2592 158.865 98.2592 158.865L96.6243 161.159C93.3934 159.734 92.1489 159.534 90.9679 160.393C89.7868 161.252 89.5916 162.496 89.943 166.011L87.2588 166.855C87.2588 166.855 87.0001 156.356 84.1695 155.361Z" fill="#DBDBDB"/>
<path d="M88.4301 151.875L86.8587 147.043C89.743 147.907 96.1315 139.557 96.1315 139.557L97.8103 141.821C95.458 144.452 94.8821 145.574 95.3311 146.965C95.7801 148.356 96.9124 148.918 100.363 149.679L100.333 152.49C100.333 152.49 90.2554 149.479 88.4301 151.875Z" fill="#DBDBDB"/>
<path d="M87.2134 153.994C89.0468 152.161 89.0468 149.188 87.2134 147.354C85.38 145.521 82.4075 145.521 80.5741 147.354C78.7407 149.188 78.7407 152.161 80.5741 153.994C82.4075 155.828 85.38 155.828 87.2134 153.994Z" fill="#DBDBDB"/>
<path d="M269.147 166.305C278.522 156.929 278.522 141.728 269.147 132.352C259.771 122.976 244.571 122.976 235.196 132.352C225.821 141.728 225.821 156.929 235.196 166.305C244.571 175.681 259.771 175.681 269.147 166.305Z" fill="#263238"/>
<path d="M264.355 163.202C271.203 156.354 271.203 145.25 264.355 138.402C257.507 131.553 246.404 131.553 239.556 138.402C232.709 145.25 232.709 156.354 239.556 163.202C246.404 170.051 257.507 170.051 264.355 163.202Z" fill="#DBDBDB"/>
<path d="M263.378 162.226C269.693 155.912 269.693 145.673 263.378 139.359C257.064 133.044 246.827 133.044 240.512 139.359C234.198 145.673 234.198 155.912 240.512 162.226C246.827 168.541 257.064 168.541 263.378 162.226Z" fill="#A6A6A6"/>
<path d="M254.496 146.736H249.406C251.124 144.256 245.15 135.618 245.15 135.618L247.82 134.725C249.597 137.775 250.485 138.668 251.949 138.668C253.413 138.668 254.296 137.775 256.083 134.725L258.747 135.618C258.747 135.618 252.774 144.256 254.496 146.736Z" fill="#DBDBDB"/>
<path d="M248.982 147.043L247.415 151.875C245.59 149.479 235.526 152.49 235.526 152.49L235.502 149.674C238.952 148.927 240.075 148.356 240.529 146.965C240.982 145.574 240.402 144.457 238.054 141.816L239.728 139.557C239.728 139.557 246.097 147.907 248.982 147.043Z" fill="#DBDBDB"/>
<path d="M247.576 152.374L251.685 155.361C248.845 156.337 248.596 166.855 248.596 166.855L245.912 166.011C246.268 162.497 246.073 161.252 244.892 160.393C243.711 159.534 242.451 159.734 239.23 161.154L237.595 158.865C237.596 158.865 247.508 155.385 247.576 152.374Z" fill="#DBDBDB"/>
<path d="M252.212 155.361L256.322 152.374C256.39 155.385 266.297 158.865 266.297 158.865L264.662 161.159C261.431 159.734 260.187 159.534 259.006 160.393C257.825 161.252 257.629 162.496 257.981 166.011L255.297 166.855C255.297 166.855 255.053 156.356 252.212 155.361Z" fill="#DBDBDB"/>
<path d="M256.483 151.875L254.911 147.043C257.796 147.907 264.184 139.557 264.184 139.557L265.858 141.821C263.506 144.452 262.93 145.574 263.384 146.965C263.838 148.356 264.96 148.918 268.41 149.679L268.381 152.49C268.381 152.49 258.308 149.479 256.483 151.875Z" fill="#DBDBDB"/>
<path d="M255.265 153.995C257.098 152.162 257.098 149.189 255.265 147.355C253.431 145.522 250.459 145.522 248.626 147.355C246.792 149.189 246.792 152.162 248.626 153.995C250.459 155.829 253.431 155.829 255.265 153.995Z" fill="#DBDBDB"/>
<path d="M205.716 95.6394C204.843 96.5179 204.921 104.346 205.555 104.981C206.19 105.615 214.897 106.191 215.594 101.33C216.292 96.469 207.083 94.2729 205.716 95.6394Z" fill="#393941"/>
<path d="M237.483 100.32H230.402C211.973 88.1621 186.683 76.1309 186.683 76.1309L190.88 75.1206C206.19 82.5296 235.712 99.4807 236.488 100.013C236.806 100.154 237.14 100.258 237.483 100.32Z" fill="#455A64"/>
<g opacity="0.5">
<path d="M55.375 135.101C56.8517 132.661 58.6582 130.437 60.7434 128.492C62.8285 126.528 65.1538 124.835 67.6638 123.455C72.7253 120.705 78.4098 119.305 84.1694 119.389L86.3168 119.487L87.3905 119.541C87.7467 119.58 88.1031 119.638 88.4593 119.687L90.5872 119.99C91.2899 120.136 91.983 120.322 92.6809 120.478C95.4727 121.168 98.1333 122.309 100.558 123.855C102.967 125.412 105.117 127.335 106.932 129.556C108.699 131.798 110.21 134.231 111.436 136.809C110.119 134.29 108.537 131.919 106.717 129.737C104.885 127.579 102.728 125.72 100.324 124.226C95.5116 121.225 89.7966 120.004 84.1695 119.951C81.3433 119.906 78.5224 120.209 75.7703 120.854C73.0197 121.508 70.3631 122.509 67.864 123.831C65.3565 125.153 63.0249 126.784 60.924 128.687C58.8008 130.572 56.9349 132.728 55.375 135.101Z" fill="white"/>
<path d="M223.642 135.101C225.119 132.661 226.926 130.437 229.011 128.492C231.102 126.526 233.434 124.834 235.951 123.455C241.015 120.703 246.703 119.303 252.466 119.389L254.614 119.487L255.687 119.541C256.044 119.58 256.4 119.638 256.751 119.687L258.884 119.99C259.582 120.136 260.28 120.321 260.978 120.478C263.77 121.168 266.43 122.309 268.855 123.855C271.263 125.412 273.414 127.335 275.229 129.556C276.996 131.798 278.507 134.231 279.733 136.809C278.337 134.329 276.898 131.865 275.014 129.737C273.179 127.581 271.023 125.723 268.62 124.226C263.808 121.224 258.093 120.004 252.461 119.951C249.637 119.906 246.818 120.21 244.067 120.854C238.538 122.175 233.432 124.869 229.221 128.687C227.086 130.569 225.21 132.725 223.642 135.101Z" fill="white"/>
<path d="M58.8401 95.2389C62.5834 92.3105 66.3804 89.4454 70.2018 86.6194C74.0232 83.7935 77.8885 81.0163 81.866 78.3856C82.3541 78.0683 82.8714 77.7462 83.3936 77.4485C83.6522 77.2923 83.9158 77.1459 84.194 77.0092C84.4741 76.8725 84.7666 76.763 85.0676 76.6821C86.2194 76.3454 87.3711 76.0525 88.523 75.7645C90.8363 75.1935 93.1496 74.6468 95.4873 74.193C97.8334 73.7426 100.214 73.4976 102.603 73.4608C104.985 73.412 107.361 73.4169 109.738 73.5291C107.361 73.5291 104.985 73.5974 102.618 73.7439C100.251 73.8322 97.896 74.1262 95.5801 74.6224C93.2668 75.1447 90.9485 75.6767 88.6548 76.2672C87.5029 76.565 86.3512 76.8627 85.2385 77.2043C84.9652 77.2776 84.7002 77.379 84.4479 77.5069C84.1941 77.6387 83.9354 77.7803 83.6865 77.9316C83.1985 78.2293 82.6811 78.5466 82.1833 78.8687C78.2057 81.4457 74.3746 84.2375 70.4703 86.9757L58.8401 95.2389Z" fill="white"/>
</g>
<path opacity="0.1" d="M245.15 126.696C226.751 130.903 226.483 151.744 226.483 155.566C226.483 155.566 110.865 152.93 110.392 152.833C110.006 152.75 110.124 134.505 96.4779 127.55C102.608 130.581 110.46 137.922 113.432 148.64C113.755 149.782 130.592 151.569 159.372 152.491C188.152 153.414 213.169 152.833 217.937 152.164C222.705 151.495 228.235 126.623 245.15 126.696Z" fill="black"/>
<path opacity="0.1" d="M303.525 139.362C303.271 140.094 297.864 146.683 297.839 146.858C297.815 147.034 297.649 148.86 297.552 149.055C297.454 149.25 292.115 153.936 291.353 154.102C290.592 154.268 287.478 154.355 287.039 154.482C286.6 154.609 281.183 158.167 280.743 158.358C280.304 158.548 277.693 158.358 276.932 158.358C276.702 158.358 277.42 153.765 277.283 149.572C277.073 142.29 272.627 133.124 263.891 128.648C268.63 129.659 276.536 136.13 279.728 142.803C282.92 149.475 282.1 149.968 282.847 150.773C283.593 151.578 286.068 149.953 287.21 149.665C288.352 149.377 292.09 149.284 293.506 149.001C294.921 148.718 295.165 146.141 296.146 145.585C297.127 145.028 302.11 141.045 303.525 139.362Z" fill="black"/>
<path d="M182.266 27.8937C181.661 21.8025 177.464 15.7405 170.065 15.7405C162.666 15.7405 158.498 21.8025 157.893 27.8937C156.961 37.2941 163.306 45.8111 170.065 53.5813C176.829 45.8111 183.174 37.2941 182.266 27.8937ZM170.065 34.6732C166.38 34.6705 163.396 31.6811 163.398 27.9963C163.401 24.3114 166.39 21.3264 170.075 21.3291C173.759 21.3318 176.744 24.3211 176.741 28.006C176.744 31.6855 173.764 34.6705 170.085 34.6732C170.078 34.6732 170.072 34.6732 170.065 34.6732Z" fill="#A92CCD"/>
<path d="M199.147 190.649C200.123 190.956 227.244 190.605 228.269 189.931C228.664 189.683 228.84 185.724 228.923 180.936V180.785C228.923 179.809 228.952 178.784 228.957 177.754C228.957 177.612 228.957 177.471 228.957 177.329L227.654 163.248L209.494 163.429L211.285 177.378L211.31 177.93L211.417 180.819V181.117C211.417 181.117 201.09 185.895 200.041 186.754C198.991 187.613 198.196 190.371 199.147 190.649Z" fill="#FFC2B8"/>
<path d="M199.147 190.649C200.123 190.957 227.244 190.605 228.269 189.932C228.664 189.683 228.84 185.724 228.923 180.936V180.785C228.923 179.809 228.952 178.784 228.957 177.754C228.957 177.612 228.957 177.471 228.957 177.329L211.27 177.378L211.295 177.93L211.402 180.819V181.117C211.402 181.117 201.075 185.895 200.026 186.754C198.977 187.613 198.196 190.371 199.147 190.649Z" fill="#EBEBEB"/>
<path d="M199.147 190.643C199.635 190.804 207.01 190.785 214.218 190.643C215.682 190.614 217.107 190.585 218.484 190.546C223.623 190.404 227.874 190.194 228.245 189.936C228.616 189.677 228.816 185.841 228.894 181.151C228.894 181.083 228.894 181.019 228.894 180.951C228.894 180.883 228.894 180.848 228.894 180.8L211.397 180.829V181.131C211.397 181.131 201.065 185.909 200.021 186.763C198.977 187.618 198.196 190.341 199.147 190.643Z" fill="#4C4D58"/>
<path d="M199.44 189.59C204.018 189.419 222.481 189.16 227.015 189.336C227.054 189.336 227.054 189.36 227.015 189.365C222.486 189.634 204.018 189.746 199.445 189.668C199.348 189.663 199.348 189.595 199.44 189.59Z" fill="#263238"/>
<path d="M209.46 180.892C211.256 180.536 213.462 180.78 214.828 182.049C214.882 182.098 214.828 182.171 214.755 182.156C213.027 181.622 211.247 181.275 209.445 181.122C209.383 181.105 209.345 181.041 209.362 180.979C209.374 180.933 209.413 180.898 209.46 180.892Z" fill="#263238"/>
<path d="M208.171 181.693C209.967 181.336 212.173 181.58 213.564 182.844C213.618 182.898 213.564 182.971 213.491 182.952C211.763 182.419 209.983 182.074 208.181 181.922C208.117 181.912 208.074 181.852 208.084 181.788C208.091 181.742 208.126 181.704 208.171 181.693Z" fill="#263238"/>
<path d="M206.878 182.493C208.674 182.132 210.88 182.381 212.276 183.645C212.329 183.694 212.276 183.772 212.198 183.752C210.471 183.219 208.693 182.874 206.893 182.722C206.829 182.714 206.783 182.655 206.792 182.591C206.798 182.544 206.832 182.505 206.878 182.493Z" fill="#263238"/>
<path d="M214.218 190.639C215.682 190.609 217.107 190.58 218.484 190.541C223.623 190.399 227.874 190.19 228.245 189.931C228.616 189.672 228.816 185.836 228.894 181.146C228.894 181.078 228.894 181.014 228.894 180.946C228.894 180.878 228.894 180.843 228.894 180.795C226.507 182.464 218.059 188.086 214.218 190.639Z" fill="#263238"/>
<path d="M210.216 180.878H229.767C229.767 180.878 225.829 135.218 225.985 134.417C226.18 133.397 227.332 128.775 228.869 122.738L230.407 116.72C231.871 111.043 233.472 104.835 234.872 99.4318C236.976 91.3345 238.615 85.0481 238.615 85.0481H222.022C222.022 85.0481 220.07 91.1686 217.659 99.134C213.691 112.078 208.386 129.883 207.869 134.227C207.049 141.216 210.216 180.878 210.216 180.878Z" fill="#737584"/>
<path d="M211.061 177.544C214.047 177.481 213.188 177.456 216.175 177.427C217.639 177.427 227.239 177.329 228.606 177.554C228.635 177.554 228.635 177.612 228.606 177.617C227.239 177.842 217.639 177.759 216.175 177.744C213.188 177.715 214.047 177.69 211.061 177.632C211.026 177.627 211.026 177.544 211.061 177.544Z" fill="#263238"/>
<path d="M222.286 131.63C222.925 128.804 223.881 126.032 224.726 123.26C226.421 117.621 228.126 111.987 229.84 106.358C230.696 103.543 231.555 100.728 232.417 97.9139C232.857 96.4936 233.291 95.0733 233.74 93.6578C234.189 92.2424 234.667 90.8953 235.062 89.4945C235.219 88.9234 235.306 89.2358 235.102 89.9825C234.692 91.4468 234.282 92.911 233.857 94.3752C233.018 97.2549 232.17 100.135 231.314 103.014C229.623 108.741 227.914 114.465 226.19 120.185L223.598 128.785C223.165 130.15 222.813 131.541 222.544 132.948C222.312 134.42 222.254 135.914 222.373 137.4C222.559 140.391 222.905 143.379 223.184 146.366C223.462 149.353 223.735 152.345 224.013 155.336C224.56 161.285 225.105 167.236 225.648 173.19C225.717 173.942 225.785 174.699 225.843 175.455C225.843 175.704 225.477 175.685 225.453 175.455C224.809 169.569 224.316 163.663 223.759 157.772C223.203 151.881 222.661 146.058 222.115 140.177C221.978 138.712 221.822 137.248 221.817 135.75C221.817 134.363 221.974 132.982 222.286 131.63Z" fill="#263238"/>
<path d="M223.925 85.0479C225.077 93.9505 227.269 110.633 228.869 122.737C232.608 108.071 238.63 85.0479 238.63 85.0479L223.925 85.0479Z" fill="#263238"/>
<path d="M219.845 190.908C220.792 191.22 247.937 190.966 248.967 190.298C249.362 190.054 249.553 186.095 249.65 181.307V181.156C249.65 180.18 249.689 179.155 249.694 178.125C249.694 177.984 249.694 177.842 249.694 177.7C249.758 170.789 249.26 163.615 249.26 163.615L231.514 163.732L232.046 177.681V178.232L232.149 181.122V181.415C232.149 181.415 221.802 186.164 220.748 187.013C219.694 187.862 218.908 190.6 219.845 190.908Z" fill="#FFC2B8"/>
<path d="M219.845 190.908C220.792 191.22 247.937 190.966 248.967 190.298C249.362 190.054 249.553 186.095 249.65 181.307V181.156C249.65 180.18 249.689 179.155 249.694 178.125C249.694 177.984 249.694 177.842 249.694 177.7L232.046 177.681V178.232L232.149 181.122V181.415C232.149 181.415 221.802 186.164 220.748 187.013C219.694 187.862 218.908 190.6 219.845 190.908Z" fill="#EBEBEB"/>
<path d="M219.845 190.907C220.792 191.219 247.937 190.966 248.967 190.297C249.362 190.053 249.553 186.095 249.65 181.307V181.156L232.139 181.127V181.42C232.139 181.42 221.793 186.168 220.739 187.017C219.684 187.867 218.908 190.6 219.845 190.907Z" fill="#4C4D58"/>
<path d="M220.158 189.854C224.731 189.697 243.198 189.507 247.732 189.697C247.766 189.697 247.766 189.727 247.732 189.727C243.198 189.98 224.731 190.024 220.158 189.927C220.06 189.927 220.06 189.883 220.158 189.854Z" fill="#263238"/>
<path d="M230.202 181.195C232.003 180.839 234.204 181.097 235.57 182.366C235.624 182.415 235.57 182.488 235.492 182.474C233.767 181.932 231.988 181.579 230.187 181.419C230.125 181.415 230.078 181.362 230.082 181.3C230.086 181.238 230.14 181.191 230.202 181.195Z" fill="#263238"/>
<path d="M228.913 181.991C230.709 181.634 232.915 181.893 234.282 183.162C234.335 183.211 234.282 183.284 234.208 183.269C232.483 182.728 230.704 182.375 228.903 182.215C228.841 182.212 228.793 182.16 228.796 182.098C228.799 182.036 228.851 181.988 228.913 181.991Z" fill="#263238"/>
<path d="M227.62 182.781C229.416 182.43 231.622 182.689 232.988 183.957C233.042 184.006 232.988 184.08 232.915 184.065C231.204 183.527 229.44 183.174 227.654 183.011C227.589 183.011 227.537 182.959 227.536 182.894C227.536 182.842 227.57 182.796 227.62 182.781Z" fill="#263238"/>
<path d="M222.583 85.0479C222.583 85.0479 222.964 92.9792 224.779 99.2559C224.926 99.7733 225.082 100.286 225.267 100.774C226.929 101.442 228.526 102.259 230.041 103.214C230.041 103.214 230.231 109.593 230.421 116.705C230.636 124.66 230.856 133.529 230.812 135.408C230.646 142.446 231.69 181.151 231.69 181.151L251.212 181.229C251.212 181.229 247.678 138.009 247.703 135.432C247.737 131.289 246.756 112.981 245.995 99.6122C245.507 91.3783 245.15 85.0332 245.15 85.0332L222.583 85.0479Z" fill="#737584"/>
<path d="M232.344 177.681C235.331 177.627 234.472 177.603 237.459 177.583C238.923 177.583 248.523 177.534 249.889 177.769C249.905 177.769 249.918 177.782 249.918 177.798C249.918 177.814 249.905 177.827 249.889 177.827C248.523 178.047 238.918 177.925 237.459 177.9C234.472 177.861 235.331 177.842 232.344 177.764C232.318 177.764 232.297 177.748 232.298 177.722C232.298 177.696 232.318 177.675 232.344 177.675C232.344 177.675 232.344 177.675 232.344 177.681Z" fill="#263238"/>
<path d="M243.515 87.8741C243.876 98.7778 244.257 109.682 244.745 120.575C245.233 131.469 245.892 142.446 246.81 153.355C247.298 159.451 247.786 168.027 248.459 174.108C248.459 174.147 248.401 174.162 248.396 174.108C246.971 163.292 246.18 149.914 245.468 139.03C244.755 128.146 244.296 117.242 243.925 106.328C243.715 100.159 243.554 93.9947 243.369 87.8253C243.379 87.7862 243.511 87.796 243.515 87.8741Z" fill="#263238"/>
<path d="M224.438 100.305C226.383 101.116 228.252 102.096 230.026 103.234C230.058 103.25 230.071 103.289 230.055 103.322C230.039 103.354 230 103.367 229.967 103.351C228.084 102.433 226.156 101.55 224.326 100.535C224.262 100.504 224.236 100.427 224.267 100.364C224.298 100.301 224.374 100.274 224.438 100.305Z" fill="#263238"/>
<path d="M223.262 91.5345C223.418 92.3739 223.618 93.2036 223.798 94.0332C223.979 94.8629 224.096 95.6144 224.287 96.3856C224.459 97.1267 224.838 97.8037 225.38 98.3377C225.687 98.6208 226.024 98.8746 226.356 99.1332L226.907 99.553C226.883 99.4407 226.863 99.3284 226.844 99.2162L226.683 98.2646C226.561 97.5569 226.449 96.8492 226.341 96.1415C226.131 94.7506 225.936 93.345 225.643 91.9688C225.644 91.9445 225.663 91.925 225.688 91.9252C225.712 91.9255 225.731 91.9448 225.731 91.9688C226.078 93.3304 226.458 94.6823 226.761 96.0585C226.907 96.7321 227.434 100.06 227.459 100.3C227.483 100.539 227.503 100.788 227.512 101.032C227.547 101.279 227.547 101.531 227.512 101.778C227.512 101.837 227.425 101.827 227.4 101.778C227.301 101.545 227.23 101.301 227.19 101.051C227.126 100.815 227.074 100.575 227.034 100.334L226.99 100.065C226.663 99.8652 226.361 99.6017 226.053 99.382C225.746 99.1623 225.385 98.894 225.077 98.6451C224.499 98.157 224.082 97.5054 223.882 96.7759C223.678 95.9908 223.547 95.1887 223.491 94.3796C223.384 93.4377 223.306 92.486 223.174 91.5393C223.174 91.5003 223.262 91.4759 223.262 91.5345Z" fill="#263238"/>
<path d="M209.84 47.8514L212.193 60.6049C212.305 60.9856 212.1 61.2736 211.739 61.2491L205.263 60.8342C204.861 60.7755 204.528 60.4934 204.404 60.107L202.051 47.3486C201.939 46.9727 202.144 46.6848 202.505 46.7092L208.981 47.1241C209.384 47.1807 209.718 47.4636 209.84 47.8514Z" fill="#37474F"/>
<path d="M209.069 47.7686L211.427 60.5416C211.539 60.9175 211.334 61.2054 210.973 61.181L204.492 60.7661C204.09 60.709 203.758 60.4259 203.638 60.0388L201.3 47.2707C201.188 46.89 201.393 46.6069 201.754 46.6264L208.235 47.0462C208.628 47.1083 208.952 47.3885 209.069 47.7686Z" fill="#455A64"/>
<path d="M207.259 48.2271C207.245 48.5314 207.481 48.7888 207.786 48.8021C208.09 48.8154 208.347 48.5794 208.361 48.2752C208.374 47.9709 208.138 47.7135 207.834 47.7002C207.832 47.7002 207.831 47.7001 207.83 47.7C207.528 47.6863 207.273 47.9198 207.259 48.2213C207.259 48.2233 207.259 48.2252 207.259 48.2271Z" fill="#263238"/>
<path d="M229.499 68.1751C225.399 75.7842 216.6 85.4727 213.193 85.3262C211.573 85.2579 208.655 85.4873 206.629 83.5057C202.212 79.1861 198.762 71.1963 198.22 66.7011C198.025 65.105 205.917 62.0985 206.981 63.4504C209.474 66.6181 212.246 72.724 212.72 72.724C214.467 72.6849 221.602 67.3844 226.585 63.6506C232.632 59.0772 231.134 65.1441 229.499 68.1751Z" fill="#FFC2B8"/>
<path d="M198.479 58.5104C199.455 55.343 200.216 54.6793 199.631 51.5607C199.25 49.5158 200.392 48.3933 201.734 50.0966C203.93 52.8784 203.506 57.2367 202.925 58.7008L198.479 58.5104Z" fill="#FFC2B8"/>
<path d="M198.518 68.102C198.518 68.102 197.332 63.5433 198.054 60.0633C198.542 57.6572 200.231 52.5371 207.176 50.1749C208.825 49.6135 211.568 49.9845 209.211 51.8783C207.537 53.2205 206.068 53.567 205.233 54.5285C205.233 54.5285 208.674 55.4119 209.172 57.0861C209.603 58.5497 209.929 60.0421 210.148 61.552C209.88 61.6551 209.606 61.7415 209.328 61.8107C209.328 61.8107 209.748 63.392 208.474 65.5298L198.518 68.102Z" fill="#FFC2B8"/>
<path d="M198.899 57.8422C199.928 57.0613 202.134 55.4508 204.394 54.7578C206.907 53.9916 211.959 53.1863 212.505 55.0506C212.905 56.4123 211.007 56.8906 211.007 56.8906C211.007 56.8906 213.164 56.9979 213.257 58.3107C213.34 59.5064 211.846 59.7749 211.846 59.7749C211.846 59.7749 213.145 60.0677 213.003 61.239C212.837 62.6446 210.148 61.8052 208.747 63.0789C208.435 63.3717 198.899 57.8422 198.899 57.8422Z" fill="#FFC2B8"/>
<path d="M204.765 57.5496C206.714 56.6937 208.877 56.4503 210.968 56.8517C211.022 56.8517 211.036 56.9103 210.968 56.9103C208.876 56.8793 206.788 57.1021 204.75 57.5741C204.75 57.5741 204.75 57.5545 204.765 57.5496Z" fill="#263238"/>
<path d="M205.614 60.0533C207.624 59.387 209.777 59.274 211.846 59.7263C211.9 59.7263 211.915 59.7897 211.846 59.7848C209.76 59.6465 207.664 59.7447 205.599 60.0776C205.599 60.0776 205.599 60.0533 205.614 60.0533Z" fill="#263238"/>
<path d="M197.966 69.9566C197.966 69.9566 203.598 82.7638 207.185 84.4087C210.773 86.0535 212.983 85.8729 214.36 85.7216C214.886 85.6232 215.385 85.4135 215.824 85.1066C219.665 82.6662 226.795 73.6952 229.772 68.5899C232.002 64.7584 231.973 61.171 228.855 62.157C227.794 62.54 226.805 63.0958 225.926 63.8019C220.07 68.1946 213.281 72.3335 212.979 72.1529C212.676 71.9723 209.728 66.6816 209.728 66.6816L197.966 69.9566Z" fill="#B8B9C1"/>
<path d="M212.495 74.8374C212.559 75.4135 212.475 75.9963 212.251 76.5309C212.212 76.2443 212.212 75.9537 212.251 75.6671C212.292 75.3801 212.374 75.1006 212.495 74.8374Z" fill="white"/>
<path d="M205.146 78.0051C205.185 78.2917 205.185 78.5824 205.146 78.869C205.108 79.1553 205.029 79.4347 204.911 79.6986C204.872 79.412 204.872 79.1214 204.911 78.8348C204.951 78.5488 205.03 78.2696 205.146 78.0051Z" fill="white"/>
<path d="M218.103 81.0945C218.142 81.3811 218.142 81.6717 218.103 81.9584C218.066 82.2448 217.987 82.5243 217.869 82.788C217.799 82.2119 217.883 81.6275 218.113 81.0945H218.103Z" fill="white"/>
<path d="M221.661 68.512C221.7 68.7986 221.7 69.0892 221.661 69.3758C221.624 69.6623 221.545 69.9418 221.427 70.2055C221.388 69.9189 221.388 69.6282 221.427 69.3416C221.465 69.0553 221.544 68.7759 221.661 68.512Z" fill="white"/>
<path d="M222.808 73.6708C222.232 73.7344 221.649 73.6504 221.114 73.4268C221.401 73.3877 221.692 73.3877 221.978 73.4268C222.265 73.4678 222.544 73.55 222.808 73.6708Z" fill="white"/>
<path d="M207.81 75.1838C207.524 75.223 207.233 75.223 206.946 75.1838C206.659 75.1475 206.378 75.0703 206.112 74.9544C206.398 74.9104 206.689 74.9104 206.976 74.9544C207.263 74.9907 207.544 75.068 207.81 75.1838Z" fill="white"/>
<path d="M215.453 79.6548C215.167 79.6988 214.875 79.6988 214.589 79.6548C214.303 79.6192 214.023 79.5419 213.759 79.4254C214.335 79.3571 214.919 79.4395 215.453 79.6645V79.6548Z" fill="white"/>
<path d="M200.939 70.7424C200.652 70.784 200.361 70.784 200.075 70.7424C199.787 70.7061 199.506 70.6289 199.24 70.513C199.527 70.4739 199.817 70.4739 200.104 70.513C200.392 70.5494 200.673 70.6266 200.939 70.7424Z" fill="white"/>
<path d="M208.362 83.8523C207.785 83.9203 207.199 83.8379 206.663 83.6131C206.95 83.5691 207.241 83.5691 207.527 83.6131C207.815 83.6525 208.096 83.7331 208.362 83.8523Z" fill="white"/>
<path d="M230.407 62.5769C230.643 62.6817 230.893 62.7539 231.148 62.7916C231.111 62.7108 231.065 62.634 231.012 62.5622C230.81 62.5404 230.607 62.5452 230.407 62.5769Z" fill="white"/>
<path d="M216.151 71.6892C216.379 71.8671 216.581 72.0757 216.751 72.309C216.929 72.5372 217.072 72.7905 217.176 73.0606C216.946 72.8852 216.743 72.6763 216.575 72.4408C216.396 72.214 216.252 71.9604 216.151 71.6892Z" fill="white"/>
<path d="M209.108 78.8494C209.338 79.0272 209.541 79.2358 209.714 79.4692C209.89 79.6983 210.033 79.9514 210.138 80.2207C209.907 80.0453 209.703 79.8364 209.533 79.6009C209.357 79.3718 209.214 79.1188 209.108 78.8494Z" fill="white"/>
<path d="M205.092 69.3611C205.321 69.5372 205.525 69.7441 205.697 69.9761C205.873 70.2052 206.016 70.4583 206.122 70.7276C205.89 70.5521 205.686 70.3432 205.517 70.1078C205.341 69.8797 205.198 69.6284 205.092 69.3611Z" fill="white"/>
<path d="M220.602 77.9563C220.83 78.1342 221.032 78.3429 221.202 78.5761C221.38 78.8044 221.523 79.0576 221.627 79.3278C221.173 78.9657 220.821 78.4936 220.602 77.9563Z" fill="white"/>
<path d="M225.907 65.9104C226.137 66.0852 226.341 66.2923 226.512 66.5254C226.688 66.7545 226.831 67.0076 226.937 67.2769C226.708 67.1008 226.504 66.8939 226.332 66.662C226.157 66.4315 226.014 66.1787 225.907 65.9104Z" fill="white"/>
<path d="M226.253 71.8015C226.61 71.3437 227.082 70.9884 227.62 70.7717C227.445 71.002 227.238 71.2058 227.005 71.3769C226.774 71.5513 226.522 71.6941 226.253 71.8015Z" fill="white"/>
<path d="M201.334 74.6226C201.509 74.3913 201.718 74.1873 201.954 74.0174C202.183 73.841 202.436 73.698 202.705 73.5928C202.345 74.0495 201.873 74.4044 201.334 74.6226Z" fill="white"/>
<path d="M209.001 72.3139C209.176 72.0852 209.383 71.883 209.616 71.7137C209.844 71.5358 210.097 71.3927 210.368 71.2891C210.191 71.5166 209.984 71.7186 209.753 71.8893C209.524 72.0665 209.271 72.2095 209.001 72.3139Z" fill="white"/>
<path d="M217.444 77.0434C217.619 76.8147 217.826 76.6125 218.059 76.4432C218.287 76.2653 218.541 76.1222 218.811 76.0186C218.635 76.2461 218.428 76.4481 218.196 76.6188C217.966 76.7942 217.713 76.9371 217.444 77.0434Z" fill="white"/>
<path d="M212.364 84.0962C212.542 83.8685 212.75 83.6664 212.983 83.4959C213.21 83.316 213.464 83.1728 213.735 83.0713C213.558 83.3002 213.35 83.5023 213.115 83.6716C212.887 83.8495 212.634 83.9926 212.364 84.0962Z" fill="white"/>
<path opacity="0.1" d="M215.843 85.1066C219.684 82.6662 226.815 73.6952 229.792 68.5899C232.022 64.7584 231.993 61.171 228.874 62.157C227.166 65.1685 219.582 78.3564 215.843 85.1066Z" fill="black"/>
<path d="M199.401 72.3138C199.831 72.1039 203.877 70.7813 204.77 70.5129C205.663 70.2444 209.255 69.1122 210.192 68.9121C210.209 68.9191 210.218 68.939 210.211 68.9565C210.207 68.9652 210.201 68.9721 210.192 68.9755C209.313 69.3465 205.682 70.4982 204.784 70.791C203.886 71.0838 199.865 72.3039 199.416 72.3772C199.377 72.3821 199.372 72.3284 199.401 72.3138Z" fill="#263238"/>
<path d="M218.869 94.7463C219.26 95.2343 246.795 96.9523 246.946 96.7864C247.361 96.3472 240.934 66.0911 235.048 60.7417C233.784 59.5947 229.928 60.4928 228.864 61.3371C228.196 61.8691 226.463 65.5054 225.248 68.5363C222.827 74.6081 218.523 94.3167 218.869 94.7463Z" fill="#4C4D58"/>
<path d="M229.572 60.1705C228.391 60.8537 227.078 64.9192 229.494 65.7683C231.91 66.6175 234.667 62.9669 235.15 61.7371C235.634 60.5073 232.115 58.7014 229.572 60.1705Z" fill="url(#paint0_linear_734_15206)"/>
<path d="M229.738 65.2214C231.256 65.5972 233.886 63.2984 234.94 61.4293C235.009 61.2975 234.828 59.9358 234.682 58.2716C234.599 57.2614 234.526 56.134 234.535 55.0994L228.04 56.6074C228.396 57.9043 228.591 59.2402 228.62 60.585C228.619 60.7263 228.603 60.867 228.572 61.0047C228.573 61.0291 228.573 61.0535 228.572 61.078C228.425 61.8832 228.274 64.8554 229.738 65.2214Z" fill="#FFC2B8"/>
<path d="M234.228 55.1726C234.013 56.466 232.983 61.078 229.23 61.1267C229.007 61.128 228.783 61.1133 228.562 61.0828C228.559 61.0585 228.559 61.0339 228.562 61.0096C228.591 60.8715 228.607 60.731 228.611 60.5898C228.575 59.245 228.377 57.9094 228.02 56.6123L234.228 55.1726Z" fill="#263238"/>
<path d="M234.862 47.0314C235.717 49.2765 234.945 55.9876 233.398 57.5739C231.178 59.8727 227.317 60.3365 225.307 57.613C223.354 54.9774 224.516 46.2504 226.248 44.7862C228.816 42.6289 233.603 43.7076 234.862 47.0314Z" fill="#FFC2B8"/>
<path d="M228.796 51.5071C228.796 51.5071 228.83 51.5071 228.825 51.551C228.762 52 228.762 52.5271 229.157 52.7223C229.157 52.7223 229.157 52.7516 229.157 52.7468C228.659 52.6248 228.664 51.9268 228.796 51.5071Z" fill="#263238"/>
<path d="M229.25 51.0776C229.982 51.1069 229.88 52.571 229.201 52.5417C228.523 52.5124 228.63 51.058 229.25 51.0776Z" fill="#263238"/>
<path d="M226.253 51.3411C226.253 51.3411 226.219 51.3411 226.214 51.3801C226.214 51.834 226.102 52.3562 225.682 52.4733V52.5026C226.19 52.4636 226.312 51.7559 226.253 51.3411Z" fill="#263238"/>
<path d="M225.882 50.8384C225.155 50.7359 224.999 52.1952 225.668 52.3025C226.336 52.4099 226.493 50.9311 225.882 50.8384Z" fill="#263238"/>
<path d="M229.875 50.4528C229.679 50.3845 229.509 50.2967 229.323 50.2137C229.116 50.1551 228.934 50.0299 228.806 49.8574C228.744 49.7314 228.774 49.5796 228.879 49.4865C229.121 49.347 229.418 49.347 229.66 49.4865C229.925 49.5823 230.144 49.7738 230.275 50.0233C230.335 50.1964 230.244 50.3856 230.071 50.4459C230.007 50.4679 229.939 50.4703 229.875 50.4528Z" fill="#263238"/>
<path d="M225.355 50.3894C225.554 50.3636 225.751 50.3277 225.946 50.2821C226.161 50.2706 226.366 50.1901 226.532 50.0527C226.618 49.9405 226.618 49.7842 226.532 49.672C226.335 49.4754 226.047 49.4007 225.78 49.4768C225.5 49.5095 225.243 49.6451 225.058 49.8575C224.946 50.003 224.974 50.2113 225.119 50.3228C225.187 50.3743 225.271 50.3982 225.355 50.3894Z" fill="#263238"/>
<path d="M229.255 55.7777C229.138 55.8753 229.021 56.012 228.855 56.0169C228.684 56.0008 228.518 55.951 228.367 55.8705C228.486 56.0608 228.699 56.1712 228.923 56.1584C229.115 56.1218 229.267 55.9739 229.309 55.7826C229.309 55.7728 229.274 55.7631 229.255 55.7777Z" fill="#263238"/>
<path d="M228.874 54.3864C228.615 54.7316 228.225 54.9542 227.796 55.0014C227.611 55.0257 227.424 55.0257 227.239 55.0014H227.132L227.034 54.9769C226.985 54.9653 226.95 54.9205 226.951 54.8695C226.949 54.855 226.949 54.8402 226.951 54.8256V54.7866C226.951 54.4352 227.039 53.9081 227.039 53.9081C226.907 53.9618 226.234 54.2107 226.258 54.0301C226.409 52.4572 226.72 50.9037 227.186 49.3938C227.194 49.3708 227.219 49.3587 227.242 49.3667C227.254 49.3712 227.264 49.3811 227.269 49.3938C227.137 50.8579 226.751 52.2683 226.595 53.7276C226.834 53.6324 227.086 53.5748 227.342 53.5567C227.391 53.5567 227.186 54.5767 227.19 54.7329C227.764 54.8325 228.354 54.6952 228.825 54.3522C228.869 54.318 228.903 54.3522 228.874 54.3864Z" fill="#263238"/>
<path d="M227.503 54.909C227.696 55.1537 227.95 55.3437 228.24 55.4604C228.399 55.51 228.569 55.51 228.728 55.4604C229.084 55.3628 229.089 55.0309 229.021 54.7479C228.98 54.5986 228.923 54.4545 228.85 54.3184C228.475 54.6535 228.003 54.8604 227.503 54.909Z" fill="#263238"/>
<path d="M228.24 55.4606C228.399 55.5102 228.569 55.5102 228.728 55.4606C229.084 55.363 229.089 55.0311 229.021 54.748C228.626 54.7748 228.302 55.0703 228.24 55.4606Z" fill="#F392B9"/>
<path d="M233.369 52.3368C233.369 52.3368 234.765 50.121 235.765 50.609C236.766 51.0971 235.765 54.2645 234.658 54.7428C234.087 55.0362 233.387 54.8116 233.093 54.2411C233.086 54.2262 233.078 54.2113 233.071 54.1961L233.369 52.3368Z" fill="#FFC2B8"/>
<path d="M235.463 51.512C235.463 51.512 235.463 51.512 235.463 51.5413C234.737 51.9457 234.217 52.6394 234.033 53.4495C234.193 53.1349 234.578 53.0099 234.893 53.1703C234.921 53.1848 234.949 53.2014 234.975 53.2202C234.975 53.2202 234.975 53.269 234.975 53.2641C234.682 53.1852 234.372 53.2985 234.199 53.5472C234.059 53.7517 233.943 53.9711 233.852 54.2011C233.818 54.2793 233.686 54.2451 233.711 54.1621C233.642 53.1322 234.37 51.6632 235.463 51.512Z" fill="#263238"/>
<path d="M225.468 47.7144C227.659 49.1053 230.504 46.7822 230.504 46.7822C230.916 47.7385 231.912 48.306 232.944 48.1732C232.944 48.1732 233.491 51.7798 234.448 51.7407C235.912 51.6822 236.175 46.7237 235.682 45.7719C235.291 45.1585 234.661 44.7371 233.945 44.6104C233.788 44.0274 233.417 43.5254 232.905 43.2048C231.885 42.4825 228.513 43.6246 228.513 43.6246C228.3 43.1736 227.984 42.779 227.59 42.4728C227.206 42.1594 226.64 42.2171 226.327 42.6016C226.319 42.6121 226.31 42.6229 226.302 42.6338C226.494 42.8957 226.624 43.1977 226.683 43.5171C226.893 44.5713 226.024 44.6006 225.999 43.6392C225.978 43.2787 226.085 42.9222 226.302 42.6338C225.853 42.0238 225.145 41.8432 224.735 42.1945C223.945 42.8339 223.642 46.5577 225.468 47.7144Z" fill="#263238"/>
<path d="M237.571 63.1869C245.819 71.7722 257.844 93.5113 259.328 96.6302C260.338 98.7485 249.274 104.327 248.806 102.785C248.206 100.833 238.557 76.4822 236.009 67.3015C234.594 62.24 235.868 61.4103 237.571 63.1869Z" fill="#FFC2B8"/>
<path d="M248.284 101.33C248.669 102.384 249.982 106.864 250.904 107.421C251.827 107.977 256.644 107.86 259.074 107.86C261.505 107.86 262.003 107.181 261.944 106.342C261.885 105.503 256.805 105.366 256.805 105.366C256.805 105.366 263.613 107.318 265.326 107.64C267.039 107.962 270.987 108.953 271.558 107.533C271.812 106.894 270.734 106.244 270.734 106.244C270.734 106.244 272.388 106.732 272.652 105.903C272.954 104.966 271.636 104.439 271.636 104.439C271.636 104.439 272.671 104.644 272.695 103.882C272.749 102.174 266.273 101.335 266.273 101.335C266.273 101.335 271.231 103.751 271.387 102.36C271.612 100.407 261.446 98.3186 260.387 97.4792C259.696 96.8962 259.121 96.1874 258.693 95.3904L248.284 101.33Z" fill="#FFC2B8"/>
<path d="M261.905 106.767C261.94 106.526 261.854 106.284 261.675 106.118C261.5 105.958 261.298 105.828 261.08 105.733C260.631 105.541 260.165 105.391 259.689 105.284C258.713 105.04 257.737 104.869 256.761 104.615C257.772 104.6 258.78 104.713 259.762 104.952C260.264 105.066 260.747 105.25 261.197 105.498C261.43 105.627 261.633 105.803 261.793 106.016C261.96 106.229 262.003 106.515 261.905 106.767Z" fill="#263238"/>
<path d="M270.734 106.226C270.031 106.055 269.343 105.855 268.655 105.659C267.966 105.464 267.278 105.245 266.59 105.04L264.54 104.395C263.857 104.181 263.174 103.971 262.481 103.766C263.198 103.841 263.91 103.968 264.609 104.147C265.311 104.303 266.004 104.508 266.693 104.713C267.381 104.918 268.064 105.152 268.733 105.411C269.401 105.669 270.08 105.933 270.734 106.226Z" fill="#263238"/>
<path d="M264.125 102.062C264.782 102.105 265.435 102.197 266.078 102.336C266.727 102.465 267.369 102.627 268.001 102.824C268.633 103.02 269.254 103.253 269.86 103.522C270.468 103.781 271.057 104.085 271.622 104.429C270.997 104.21 270.387 103.971 269.762 103.766C269.138 103.561 268.523 103.341 267.898 103.151C267.273 102.96 266.644 102.77 266.014 102.585C265.385 102.399 264.745 102.238 264.125 102.062Z" fill="#263238"/>
<path d="M265.126 100.437C267.268 100.629 269.331 101.342 271.134 102.516C270.123 102.155 269.147 101.779 268.147 101.443C267.146 101.106 266.146 100.764 265.126 100.437Z" fill="#263238"/>
<path d="M236.112 69.6833C238.064 78.0978 247.42 101.116 247.42 101.116L255.824 97.0646L260.06 95.0195C260.06 95.0195 245.629 72.4703 239.733 65.0953C239.274 64.5291 238.859 64.0411 238.479 63.6311C234.823 59.7264 234.599 63.1918 236.112 69.6833Z" fill="#B8B9C1"/>
<path d="M246.722 98.6113C251.666 95.7367 257.298 93.4721 258.249 93.0085C258.293 93.0085 258.323 93.0622 258.279 93.0818C257.303 93.4917 251.163 96.7763 246.751 98.6894C246.688 98.7089 246.688 98.6113 246.722 98.6113Z" fill="#263238"/>
<path d="M244.945 74.6274C244.985 74.914 244.985 75.2047 244.945 75.4913C244.91 75.7776 244.832 76.057 244.716 76.321C244.672 76.0364 244.672 75.7467 244.716 75.462C244.752 75.1743 244.829 74.8932 244.945 74.6274Z" fill="white"/>
<path d="M241.061 82.0171C241.1 82.3037 241.1 82.5943 241.061 82.8809C241.024 83.167 240.947 83.4465 240.831 83.7106C240.787 83.4243 240.787 83.133 240.831 82.8468C240.867 82.5605 240.944 82.2809 241.061 82.0171Z" fill="white"/>
<path d="M250.851 93.687C250.89 93.972 250.89 94.261 250.851 94.546C250.813 94.8338 250.734 95.1149 250.616 95.3805C250.577 95.0939 250.577 94.8033 250.616 94.5167C250.654 94.2302 250.733 93.9508 250.851 93.687Z" fill="white"/>
<path d="M250.553 80.8896C250.597 81.1742 250.597 81.464 250.553 81.7486C250.517 82.0363 250.44 82.3174 250.324 82.5832C250.282 82.2967 250.282 82.0058 250.324 81.7193C250.359 81.4331 250.437 81.1536 250.553 80.8896Z" fill="white"/>
<path d="M253.52 86.2827C253.559 86.5693 253.559 86.86 253.52 87.1466C253.484 87.4343 253.407 87.7153 253.291 87.9811C253.247 87.6948 253.247 87.4035 253.291 87.1173C253.327 86.8296 253.404 86.5486 253.52 86.2827Z" fill="white"/>
<path d="M240.343 66.5693C240.057 66.6108 239.766 66.6108 239.479 66.5693C239.193 66.5336 238.914 66.4563 238.65 66.3398C238.935 66.3008 239.224 66.3008 239.509 66.3398C239.796 66.3763 240.077 66.4535 240.343 66.5693Z" fill="white"/>
<path d="M240.26 74.9545C239.684 75.0181 239.101 74.9341 238.567 74.7104C238.853 74.6714 239.144 74.6714 239.431 74.7104C239.717 74.7515 239.997 74.8338 240.26 74.9545Z" fill="white"/>
<path d="M247.879 79.4498C247.594 79.4889 247.305 79.4889 247.02 79.4498C246.732 79.4118 246.451 79.3329 246.185 79.2155C246.471 79.1739 246.762 79.1739 247.049 79.2155C247.335 79.2527 247.615 79.3317 247.879 79.4498Z" fill="white"/>
<path d="M255.472 96.4301C255.187 96.4692 254.898 96.4692 254.613 96.4301C254.326 96.3916 254.046 96.3144 253.779 96.2007C254.065 96.1567 254.357 96.1567 254.643 96.2007C254.929 96.2364 255.209 96.3136 255.472 96.4301Z" fill="white"/>
<path d="M247.542 96.7131C247.257 96.7522 246.968 96.7522 246.683 96.7131C246.395 96.6768 246.114 96.5996 245.848 96.4837C246.134 96.4397 246.426 96.4397 246.712 96.4837C246.998 96.5193 247.278 96.5966 247.542 96.7131Z" fill="white"/>
<path d="M245.224 88.318C244.937 88.3571 244.646 88.3571 244.36 88.318C244.073 88.2801 243.794 88.2012 243.53 88.0837C243.817 88.0447 244.107 88.0447 244.394 88.0837C244.68 88.1235 244.959 88.2023 245.224 88.318Z" fill="white"/>
<path d="M252.759 90.6072C252.987 90.7851 253.189 90.9937 253.359 91.227C253.539 91.4538 253.682 91.7074 253.784 91.9786C253.555 91.802 253.353 91.5933 253.184 91.3588C253.006 91.1306 252.863 90.8773 252.759 90.6072Z" fill="white"/>
<path d="M241.553 78.6443C241.781 78.8205 241.983 79.0275 242.154 79.2593C242.33 79.4886 242.473 79.7416 242.578 80.0109C242.35 79.8359 242.147 79.6289 241.978 79.3959C241.799 79.1684 241.656 78.9149 241.553 78.6443Z" fill="white"/>
<path d="M237.547 69.1511C237.776 69.3278 237.978 69.5366 238.147 69.771C238.325 69.9991 238.468 70.2524 238.572 70.5225C238.343 70.3458 238.141 70.1371 237.971 69.9027C237.791 69.6759 237.648 69.4223 237.547 69.1511Z" fill="white"/>
<path d="M249.128 84.9163C249.358 85.0911 249.562 85.2982 249.733 85.5312C249.907 85.7617 250.05 86.0145 250.158 86.2828C249.927 86.108 249.724 85.9008 249.553 85.6678C249.377 85.438 249.234 85.1851 249.128 84.9163Z" fill="white"/>
<path d="M245.682 92.3154C245.911 92.4933 246.115 92.7018 246.287 92.9353C246.464 93.1644 246.607 93.4175 246.712 93.6868C246.255 93.3271 245.9 92.8544 245.682 92.3154Z" fill="white"/>
<path d="M256.087 93.1208C256.447 92.6641 256.92 92.3092 257.459 92.0911C257.099 92.5477 256.626 92.9026 256.087 93.1208Z" fill="white"/>
<path d="M249.128 99.2024C249.305 98.9735 249.513 98.7713 249.748 98.6021C249.975 98.4222 250.228 98.279 250.499 98.1775C250.323 98.4064 250.114 98.6085 249.88 98.7778C249.651 98.9557 249.398 99.0987 249.128 99.2024Z" fill="white"/>
<path d="M248.43 90.363C248.79 89.9063 249.263 89.5514 249.801 89.3333C249.624 89.5625 249.415 89.7661 249.182 89.9385C248.952 90.1148 248.699 90.2578 248.43 90.363Z" fill="white"/>
<path d="M241.456 72.1089C241.631 71.8786 241.838 71.6748 242.071 71.5037C242.3 71.3273 242.553 71.1844 242.822 71.0791C242.647 71.3104 242.438 71.5144 242.203 71.6842C241.975 71.8595 241.723 72.0024 241.456 72.1089Z" fill="white"/>
<path d="M235.658 65.105C235.833 64.8747 236.04 64.6709 236.273 64.4998C236.503 64.3244 236.756 64.1815 237.025 64.0752C236.85 64.3054 236.643 64.5092 236.41 64.6803C236.179 64.8547 235.926 64.9975 235.658 65.105Z" fill="white"/>
<path d="M244.818 83.8912C244.995 83.6621 245.202 83.4584 245.433 83.286C245.664 83.1116 245.917 82.9688 246.185 82.8613C246.01 83.0916 245.803 83.2954 245.57 83.4666C245.34 83.6409 245.087 83.7837 244.818 83.8912Z" fill="white"/>
<defs>
<linearGradient id="paint0_linear_734_15206" x1="228.137" y1="59.6208" x2="234.368" y2="66.6307" gradientUnits="userSpaceOnUse">
<stop stop-color="#5CE1E6"/>
<stop offset="1" stop-color="#BC38E7"/>
</linearGradient>
</defs>
</svg>
