<svg width="41" height="28" viewBox="0 0 41 28" fill="none" xmlns="http://www.w3.org/2000/svg">
<path d="M2.29887 14.6696C2.52793 14.2557 2.96105 13.6802 3.59329 13.6802C4.37871 13.6802 6.36841 13.6802 6.36841 13.6802L3.49293 16.6592C3.14802 16.3341 2.82178 16.165 2.57212 16.0768C2.31806 15.987 2.1052 15.7878 2.1052 15.5323C2.10502 15.2343 2.15203 14.9335 2.29887 14.6696Z" fill="#B50404"/>
<path opacity="0.3" d="M3.09161 14.1582C3.09161 13.9709 3.25253 13.8193 3.45078 13.8193H6.54386C6.74246 13.8193 6.90356 13.9709 6.90356 14.1582C6.90356 14.3454 6.74246 14.497 6.54386 14.497H3.45078C3.25253 14.4968 3.09161 14.3452 3.09161 14.1582Z" fill="white"/>
<path d="M2.24276 14.7945C2.23026 14.8929 2.22216 14.9917 2.22216 15.0908C2.22216 15.3466 2.43502 15.5462 2.68891 15.6355C2.93839 15.7238 3.26499 15.893 3.60972 16.2182L6.05947 13.6804C6.24927 13.6804 6.36829 13.6804 6.36829 13.6804L3.49282 16.6594C3.14791 16.3344 2.82166 16.1652 2.572 16.0771C2.31794 15.9872 2.10508 15.788 2.10508 15.5326C2.10508 15.2799 2.14311 15.0269 2.24276 14.7945Z" fill="#B8B9C1"/>
<path d="M5.44127 13.5527H6.6709L3.49753 16.8405C3.11054 16.4756 2.97339 16.4001 2.60858 16.2195C3.42746 15.3101 4.25724 14.5016 5.44127 13.5527Z" fill="#B8B9C1"/>
<path d="M2.92638 15.8732C3.22252 16.0222 3.36971 16.116 3.72025 16.4471L6.51368 13.5532H6.6709L3.49753 16.841C3.11054 16.4761 2.97339 16.4006 2.60858 16.22C2.71404 16.1029 2.81968 15.9872 2.92638 15.8732Z" fill="#91939F"/>
<path d="M4.25082 23.0485C4.25082 25.7056 6.53612 27.8594 9.35367 27.8594C12.1717 27.8594 14.4562 25.7056 14.4562 23.0485C14.4562 20.3907 12.1717 18.2373 9.35367 18.2373C6.53612 18.2373 4.25082 20.3909 4.25082 23.0485Z" fill="#393941"/>
<path d="M7.87118 19.0866L7.04896 18.5897C7.33894 18.4559 7.64353 18.3475 7.95992 18.2668L8.2925 18.4669C8.47349 18.5766 8.52632 18.8045 8.41011 18.9754C8.29444 19.1467 8.0527 19.196 7.87118 19.0866Z" fill="#4F617A"/>
<path d="M6.8863 19.5764C6.84334 19.7756 6.63734 19.9043 6.42642 19.8645L5.48976 19.6842C5.70931 19.4601 5.95034 19.2542 6.21039 19.0718L6.58188 19.143C6.79316 19.1833 6.92908 19.3774 6.8863 19.5764Z" fill="#4F617A"/>
<path d="M5.69636 20.6566C5.73281 20.8561 5.58949 21.0467 5.37751 21.0803L4.4618 21.228C4.58153 20.9425 4.72854 20.6682 4.90038 20.4116L5.24581 20.355C5.45885 20.3214 5.66027 20.4564 5.69636 20.6566Z" fill="#4F617A"/>
<path d="M4.99974 22.0682C5.11013 22.2427 5.04974 22.4686 4.86487 22.5734L4.09512 23.007C4.09759 22.6954 4.13104 22.3899 4.19214 22.0944L4.46415 21.9414C4.64937 21.8369 4.88899 21.8942 4.99974 22.0682Z" fill="#4C4D58"/>
<path d="M4.3436 23.6862C4.476 23.5255 4.72144 23.4974 4.89081 23.6225C5.06106 23.7473 5.09135 23.9782 4.95842 24.1384L4.4253 24.7827C4.31244 24.4978 4.22776 24.2002 4.17142 23.8937L4.3436 23.6862Z" fill="#4C4D58"/>
<path d="M4.82844 25.5756L4.89887 25.3545C4.96137 25.1596 5.17934 25.0492 5.38516 25.1081C5.59168 25.1669 5.70876 25.3724 5.64626 25.5668L5.40453 26.3222C5.1892 26.0907 4.99571 25.8414 4.82844 25.5756Z" fill="#4C4D58"/>
<path d="M6.05637 26.7204C6.03947 26.5178 6.20075 26.3407 6.41519 26.3253C6.63034 26.31 6.81767 26.4614 6.83422 26.6643L6.89673 27.4332C6.60499 27.2878 6.3291 27.1163 6.07275 26.9226L6.05637 26.7204Z" fill="#4C4D58"/>
<path d="M7.7453 27.7696L7.65885 27.6008C7.56606 27.4162 7.64793 27.1969 7.84231 27.1097C8.03686 27.0217 8.26944 27.0996 8.3631 27.2824L8.71118 27.9688C8.37842 27.9303 8.05587 27.8642 7.7453 27.7696Z" fill="#4C4D58"/>
<path d="M10.0249 27.3388L10.6152 27.8627C10.2978 27.9359 9.96908 27.9839 9.63227 28.0002L9.49036 27.8743C9.33366 27.7354 9.3261 27.5023 9.47381 27.3541C9.62118 27.2071 9.86802 27.2003 10.0249 27.3388Z" fill="#4C4D58"/>
<path d="M11.3037 27.5075C11.1035 27.431 11.0077 27.2162 11.0885 27.0281C11.1694 26.8399 11.3972 26.7492 11.5968 26.8258L12.3594 27.1169C12.0882 27.2957 11.7976 27.4508 11.4919 27.5791L11.3037 27.5075Z" fill="#4C4D58"/>
<path d="M12.8535 26.5463C12.638 26.543 12.4656 26.3755 12.4691 26.1725C12.473 25.9688 12.6501 25.8073 12.8655 25.8096L13.7134 25.8225C13.5257 26.084 13.3128 26.3265 13.078 26.5492L12.8535 26.5463Z" fill="#4C4D58"/>
<path d="M13.4292 24.906C13.3542 24.715 13.4577 24.5037 13.6599 24.4328L14.4824 24.147C14.4081 24.4556 14.3035 24.7544 14.1706 25.0389L13.9301 25.1233C13.7276 25.194 13.5037 25.0964 13.4292 24.906Z" fill="#4C4D58"/>
<path d="M13.8387 23.3968C13.6956 23.2442 13.7113 23.0116 13.8727 22.8773L14.5553 22.3091C14.5933 22.5498 14.6134 22.7968 14.6134 23.0478C14.6134 23.1139 14.6109 23.1806 14.6081 23.246L14.3891 23.4286C14.2282 23.5631 13.9817 23.5488 13.8387 23.3968Z" fill="#4F617A"/>
<path d="M14.1682 21.6933C14.0691 21.8738 13.8335 21.9446 13.6425 21.8512C13.4511 21.7582 13.3763 21.5351 13.4749 21.3552L13.9074 20.5681C14.0722 20.8356 14.2108 21.1191 14.3203 21.4162L14.1682 21.6933Z" fill="#4F617A"/>
<path d="M13.3359 19.8097L13.2969 20.1497C13.2736 20.3516 13.0814 20.4973 12.8667 20.4752C12.6526 20.4536 12.4979 20.2719 12.5208 20.07L12.6252 19.1663C12.8831 19.3592 13.1206 19.5751 13.3359 19.8097Z" fill="#4F617A"/>
<path d="M11.6167 19.4578C11.4087 19.5104 11.1945 19.3934 11.1394 19.1972L10.8856 18.3032C11.2015 18.394 11.505 18.5127 11.7927 18.655L11.8927 19.0074C11.9485 19.2031 11.8249 19.4053 11.6167 19.4578Z" fill="#4F617A"/>
<path d="M9.35364 18.0886C9.5422 18.0886 9.72742 18.0986 9.91106 18.1167L10.1459 18.4193C10.273 18.5842 10.235 18.8137 10.0611 18.9341C9.88764 19.0538 9.64327 19.0173 9.5158 18.8536L8.93654 18.1056C9.07423 18.0958 9.21297 18.0886 9.35364 18.0886Z" fill="#4F617A"/>
<path d="M9.35346 19.7053C11.3116 19.7053 12.8987 21.2017 12.8987 23.0482C12.8987 24.8945 11.3115 26.3904 9.35346 26.3904C7.39528 26.3904 5.80807 24.8945 5.80807 23.0482C5.80824 21.2015 7.39546 19.7053 9.35346 19.7053Z" fill="#2E3645"/>
<path d="M9.35347 19.8728C11.2139 19.8728 12.7219 21.2947 12.7219 23.0495C12.7219 24.8029 11.2139 26.2254 9.35347 26.2254C7.49283 26.2254 5.98485 24.8029 5.98485 23.0495C5.98485 21.2947 7.49283 19.8728 9.35347 19.8728Z" fill="#001D33"/>
<path d="M9.22609 20.2507C10.9357 20.2507 12.3213 21.5572 12.3213 23.1688C12.3213 24.7806 10.9357 26.0864 9.22609 26.0864C7.51721 26.0864 6.13177 24.7806 6.13177 23.1688C6.13159 21.5572 7.51721 20.2507 9.22609 20.2507ZM7.20699 21.894C7.02635 21.8168 6.81243 21.8912 6.72986 22.0617C6.64746 22.232 6.72721 22.4337 6.90768 22.5116C7.08867 22.5899 7.30206 22.5142 7.38481 22.3441C7.46774 22.1733 7.38798 21.9716 7.20699 21.894ZM11.7223 22.0617C11.6396 21.8914 11.426 21.8168 11.2455 21.894C11.0645 21.9716 10.985 22.1733 11.0675 22.3441C11.1501 22.5141 11.3637 22.5893 11.5445 22.5116C11.7255 22.4337 11.8051 22.2322 11.7223 22.0617ZM11.5348 23.793C11.7315 23.8194 11.9142 23.6904 11.9424 23.5048C11.9706 23.319 11.8341 23.1476 11.6375 23.1208C11.4406 23.0943 11.2579 23.2224 11.2299 23.4082C11.2017 23.5943 11.3385 23.7663 11.5348 23.793ZM10.7922 24.8656C10.9429 24.9882 11.1695 24.9726 11.3001 24.8312C11.4304 24.6896 11.4139 24.4749 11.2639 24.3523C11.1131 24.2296 10.8862 24.245 10.7563 24.3866C10.6258 24.5287 10.642 24.7422 10.7922 24.8656ZM10.3205 21.5305C10.4878 21.6322 10.7105 21.5868 10.8182 21.4299C10.9256 21.2718 10.8772 21.0612 10.7098 20.9604C10.5425 20.8585 10.3198 20.904 10.2122 21.062C10.105 21.2196 10.1536 21.4297 10.3205 21.5305ZM9.55216 25.3888C9.60815 25.5686 9.80868 25.672 9.99954 25.6192C10.1902 25.5666 10.2997 25.378 10.2437 25.1984C10.1877 25.0188 9.98721 24.915 9.79671 24.968C9.60568 25.0208 9.49617 25.2099 9.55216 25.3888ZM9.22626 21.2282C9.42486 21.2282 9.58631 21.0763 9.58631 20.8889C9.58631 20.7014 9.42504 20.5495 9.22609 20.5495C9.02749 20.5495 8.86604 20.7014 8.86604 20.8889C8.86604 21.0763 9.02731 21.2282 9.22626 21.2282ZM8.45282 25.6192C8.64384 25.672 8.84421 25.5686 8.89984 25.3888C8.95618 25.2099 8.84685 25.0208 8.65582 24.968C8.46514 24.915 8.26531 25.0185 8.20897 25.1984C8.15298 25.378 8.26196 25.5664 8.45282 25.6192ZM8.13168 21.5305C8.29911 21.4299 8.34771 21.2196 8.23978 21.062C8.13256 20.904 7.90983 20.8583 7.7424 20.9604C7.57531 21.0612 7.52672 21.2718 7.63394 21.4299C7.74205 21.5868 7.96424 21.6322 8.13168 21.5305ZM7.15223 24.8312C7.2827 24.9726 7.50982 24.9882 7.66 24.8656C7.81036 24.7422 7.82673 24.5289 7.69645 24.3866C7.56634 24.245 7.33851 24.2296 7.18833 24.3523C7.03797 24.4748 7.02212 24.6894 7.15223 24.8312ZM6.91754 23.793C7.11438 23.7663 7.25083 23.5943 7.22248 23.4083C7.19431 23.2226 7.01191 23.0943 6.81489 23.121C6.61841 23.1476 6.48143 23.319 6.50978 23.505C6.53847 23.6904 6.72035 23.8194 6.91754 23.793Z" fill="#293345"/>
<path d="M9.35371 20.1294C11.0631 20.1294 12.4487 21.4362 12.4487 23.0481C12.4487 24.6596 11.0631 25.9659 9.35371 25.9659C7.64501 25.9659 6.25886 24.6596 6.25886 23.0481C6.25886 21.4362 7.64501 20.1294 9.35371 20.1294ZM7.33461 21.7732C7.15414 21.6957 6.94005 21.7704 6.85748 21.9407C6.77473 22.1115 6.85483 22.3131 7.03512 22.3909C7.21612 22.4691 7.42968 22.3942 7.51243 22.2232C7.59518 22.0521 7.51542 21.8512 7.33461 21.7732ZM11.8501 21.9405C11.7675 21.7704 11.554 21.6957 11.3732 21.773C11.1923 21.8511 11.1126 22.0521 11.1953 22.2231C11.2781 22.3939 11.4913 22.4684 11.6721 22.3907C11.8529 22.3131 11.9323 22.1115 11.8501 21.9405ZM11.6624 23.6718C11.8593 23.6985 12.0418 23.5696 12.0702 23.3845C12.0982 23.198 11.9621 23.0269 11.7649 23.0003C11.5682 22.9728 11.3858 23.1017 11.3575 23.2873C11.329 23.4734 11.4658 23.6458 11.6624 23.6718ZM10.92 24.7447C11.0705 24.8676 11.2973 24.8521 11.4281 24.7104C11.558 24.5684 11.5417 24.3539 11.3918 24.2318C11.2413 24.1091 11.014 24.124 10.8837 24.2658C10.7534 24.4082 10.7698 24.6217 10.92 24.7447ZM10.4481 21.4098C10.6154 21.5119 10.8383 21.4656 10.9457 21.3084C11.0534 21.151 11.0048 20.94 10.8374 20.8392C10.6701 20.7376 10.4474 20.7838 10.34 20.9413C10.2326 21.0984 10.2812 21.3092 10.4481 21.4098ZM9.68013 25.2686C9.73577 25.4479 9.93595 25.5512 10.127 25.4979C10.3178 25.4459 10.4273 25.2572 10.371 25.0774C10.3152 24.8981 10.115 24.7944 9.92398 24.8473C9.7333 24.8999 9.62397 25.0889 9.68013 25.2686ZM9.35424 21.107C9.55248 21.107 9.71393 20.9549 9.71393 20.768C9.71393 20.5804 9.55248 20.4285 9.35371 20.4285C9.15458 20.4285 8.99401 20.5804 8.99401 20.768C8.99401 20.9549 9.15458 21.107 9.35424 21.107ZM8.58079 25.4979C8.77146 25.5512 8.972 25.4479 9.02746 25.2686C9.0838 25.0889 8.97446 24.8998 8.78361 24.8473C8.59311 24.7944 8.3931 24.8973 8.33676 25.0774C8.2806 25.2572 8.38976 25.4459 8.58079 25.4979ZM8.25929 21.4098C8.42673 21.309 8.47532 21.0984 8.3674 20.9413C8.26 20.7838 8.0371 20.7376 7.87002 20.8392C7.70293 20.94 7.65451 21.151 7.76174 21.3084C7.86966 21.4656 8.09203 21.5119 8.25929 21.4098ZM7.28003 24.7104C7.41014 24.8521 7.63761 24.8676 7.78762 24.7447C7.93762 24.6217 7.95435 24.4082 7.82406 24.2658C7.69378 24.1239 7.46613 24.1091 7.31612 24.2318C7.16594 24.3539 7.14992 24.5684 7.28003 24.7104ZM7.04533 23.6718C7.24182 23.6458 7.3788 23.4734 7.34993 23.2873C7.32158 23.1019 7.13953 22.9728 6.94251 23.0003C6.7462 23.0267 6.60923 23.1979 6.6374 23.3845C6.66645 23.5696 6.84814 23.6985 7.04533 23.6718Z" fill="#BABABA"/>
<path d="M8.22266 23.0481C8.22266 23.6366 8.7292 24.1137 9.35369 24.1137C9.97837 24.1137 10.4844 23.6366 10.4844 23.0481C10.4844 22.4598 9.97837 21.9817 9.35369 21.9817C8.7292 21.9819 8.22266 22.46 8.22266 23.0481Z" fill="#6B6B6B"/>
<path d="M8.11742 23.279C8.11742 23.7958 8.56074 24.2133 9.10795 24.2133C9.65569 24.2133 10.0994 23.7958 10.0994 23.279C10.0994 22.7627 9.65551 22.3442 9.10795 22.3442C8.56057 22.3442 8.11742 22.7627 8.11742 23.279Z" fill="#B8B8B8"/>
<path d="M8.36248 23.0485C8.36248 23.5646 8.80581 23.9828 9.35354 23.9828C9.90092 23.9828 10.3446 23.5646 10.3446 23.0485C10.3446 22.532 9.90075 22.114 9.35354 22.114C8.80598 22.114 8.36248 22.532 8.36248 23.0485Z" fill="#E0E0E0"/>
<path d="M8.48019 23.0486C8.48019 23.5029 8.87087 23.8713 9.35346 23.8713C9.8357 23.8713 10.2266 23.5029 10.2266 23.0486C10.2266 22.5937 9.8357 22.2249 9.35346 22.2249C8.87105 22.225 8.48019 22.5937 8.48019 23.0486Z" fill="#D1D1D1"/>
<path d="M10.0942 23.1733C10.0942 22.7182 9.70301 22.35 9.22095 22.35C9.01337 22.35 8.8234 22.4179 8.67428 22.5321C8.83396 22.3449 9.07887 22.2249 9.35371 22.2249C9.83595 22.2249 10.2268 22.5937 10.2268 23.0486C10.2268 23.308 10.0993 23.5386 9.90091 23.6894C10.0217 23.5478 10.0942 23.3688 10.0942 23.1733Z" fill="#DBDBDB"/>
<path d="M4.46132 21.2276C4.58104 20.9421 4.72805 20.6679 4.89989 20.4112L5.10993 20.377C5.27702 20.1418 5.46734 19.9228 5.67422 19.7195L5.48953 19.684C5.70908 19.4598 5.95011 19.254 6.21016 19.0716L6.42407 19.1122C6.67074 18.949 6.93343 18.8071 7.20932 18.6866L7.04875 18.5896C7.33873 18.4558 7.64332 18.3474 7.9597 18.2667L8.14492 18.3783C8.43736 18.3114 8.73913 18.2684 9.04865 18.2513L8.93597 18.1056C9.07383 18.0958 9.21257 18.0886 9.35324 18.0886C9.54181 18.0886 9.72703 18.0986 9.91066 18.1167L10.0418 18.2857C10.3487 18.3247 10.647 18.3866 10.9343 18.4749L10.8854 18.3029C11.2012 18.3937 11.5047 18.5124 11.7924 18.6547L11.8488 18.8533C12.116 18.9954 12.3699 19.1569 12.6046 19.34L12.6247 19.1662C12.8826 19.3592 13.1201 19.5754 13.3355 19.8098L13.3119 20.0143C13.5027 20.2361 13.6735 20.4735 13.8205 20.7246L13.9068 20.5679C14.0716 20.8354 14.2101 21.1189 14.3196 21.4161L14.2193 21.599C14.3087 21.8668 14.3702 22.1455 14.4091 22.431L14.5547 22.3098C14.5927 22.5506 14.6128 22.7976 14.6128 23.0486C14.6128 23.1117 14.6103 23.1751 14.6077 23.238C14.6012 23.2466 14.5943 23.2553 14.5878 23.2634L14.4374 23.3887C14.4366 23.4043 14.433 23.4188 14.432 23.434C14.4239 23.4422 14.4165 23.4511 14.4082 23.4586L14.3809 23.4843C14.3105 23.5507 14.2277 23.5942 14.1415 23.6203C14.223 23.6528 14.3117 23.6686 14.4038 23.6698C14.3783 23.853 14.3462 24.034 14.2996 24.2101L14.482 24.1472C14.4174 24.4155 14.3262 24.673 14.2174 24.9233C13.3538 24.8459 12.6124 24.2576 12.4132 23.4179L12.2935 22.8917C11.9463 23.0946 11.5614 23.3562 11.1181 23.6982C10.5697 24.1213 10.1903 24.7287 9.57825 25.0649C9.23933 25.2513 8.84689 25.331 8.44793 25.2694C7.49542 25.1212 6.85455 24.2171 6.96688 23.2174C6.24642 22.9304 5.71876 22.2962 5.62298 21.5363H4.51238C4.55181 21.4225 4.59372 21.3085 4.64249 21.1983L4.46132 21.2276ZM9.06485 23.4155C9.90221 23.5456 10.7505 23.2986 11.4373 22.8285C11.7011 22.6473 11.9451 22.4974 12.1752 22.3698L11.9847 21.5359H10.0374C9.9288 22.3965 9.26821 23.0957 8.39863 23.312L9.06485 23.4155Z" fill="#B3B3B3"/>
<path d="M14.267 20.1664C14.6009 20.1428 14.9365 20.2064 15.2351 20.3495C15.5145 20.4832 15.692 20.7552 15.692 21.0512V21.4083C15.692 21.9452 15.4642 22.4631 15.0617 22.8429L15.0342 22.869C14.7263 23.159 14.2034 23.0525 14.0507 22.6675L13.3875 20.9978C13.2391 20.6234 13.5122 20.2205 13.9345 20.1905L14.267 20.1664Z" fill="#BABABA"/>
<path d="M8.48325 18.5728C9.71183 18.5728 10.7076 19.5117 10.7076 20.6706C10.7076 21.829 9.71183 22.7677 8.48325 22.7677C7.2545 22.7677 6.25869 21.8291 6.25869 20.6706C6.25869 19.5117 7.25468 18.5728 8.48325 18.5728Z" fill="#E6E6E6"/>
<path d="M6.25869 20.6706C6.25869 19.5119 7.25468 18.5728 8.48325 18.5728C9.71183 18.5728 10.7076 19.5117 10.7076 20.6706C10.7076 20.8832 10.6731 21.0891 10.6108 21.2825H6.35552C6.2932 21.0891 6.25869 20.8834 6.25869 20.6706Z" fill="#B3B3B3"/>
<path d="M7.24701 22.8433L9.32896 23.1671C10.1663 23.2969 11.0148 23.0499 11.7009 22.5798C12.4636 22.0574 13.0649 21.7772 13.6077 21.6372V22.1648C13.0157 22.3441 12.3275 22.7199 11.3824 23.449C10.8338 23.8722 10.4549 24.4797 9.84237 24.8161C9.5038 25.0025 9.11153 25.082 8.71221 25.0201C7.71992 24.8665 7.06373 23.8918 7.24701 22.8433Z" fill="#E6E6E6"/>
<path d="M14.6861 24.4736C14.8126 24.4736 14.941 24.463 15.0697 24.4401L23.1906 23.0111C23.9169 22.8832 24.3954 22.2247 24.26 21.5399L14.8246 23.2001C14.4424 23.27 14.0778 23.0403 13.9929 22.683L13.3647 19.928L12.0594 20.2034L12.6877 22.9584C12.9018 23.8609 13.7413 24.4736 14.6861 24.4736Z" fill="#5D5E6C"/>
<path d="M25.2918 5.53713L26.7466 7.8269L25.6375 8.45334L24.1827 6.16356L25.2918 5.53713Z" fill="#737584"/>
<path d="M24.1852 6.1637L25.2944 5.53735L26.3676 7.22714H26.1344H25.2309L25.9121 8.29988L25.6395 8.45377L24.8606 7.22714L24.1852 6.1637Z" fill="#B8B9C1"/>
<path d="M26.4998 5.17795C26.4998 6.07771 27.1271 6.80731 27.9009 6.80731C28.6749 6.80731 29.3027 6.07771 29.3027 5.17795C29.3027 4.27753 28.6749 3.5481 27.9009 3.5481C27.1271 3.54793 26.4998 4.27753 26.4998 5.17795Z" fill="#FFD505"/>
<path d="M25.8585 4.2655C25.9925 4.17868 26.1022 4.0648 26.1807 3.93415C26.3312 3.68315 26.5568 3.4436 26.8624 3.4436H28.6143V6.91182H26.3182H24.74C24.4053 6.91182 24.1334 6.65551 24.1334 6.33976V5.94898C24.1334 5.59223 24.3216 5.25574 24.6343 5.05437L25.8585 4.2655Z" fill="#393941"/>
<path d="M27.0803 4.801L26.3135 1.41562C26.2609 1.17491 26.0502 0.993793 25.7975 0.962417C25.7533 0.957105 25.7176 0.9244 25.7176 0.882068C25.7176 0.843555 25.7447 0.806703 25.785 0.810023C26.1193 0.837414 26.4014 1.07148 26.4697 1.3859L27.2432 4.80083H27.0803V4.801Z" fill="#AAAAAA"/>
<path d="M25.3561 1.86117C25.7135 1.86117 26.0033 1.58809 26.0033 1.25027V0.61114C26.0033 0.273648 25.7135 0.000732422 25.3561 0.000732422V1.86117Z" fill="#C9C9C9"/>
<path d="M24.74 6.43904H26.3182H28.6143V6.912H26.3182H24.74C24.4053 6.912 24.1334 6.65568 24.1334 6.33994V5.94916C24.1334 5.93206 24.1357 5.91513 24.1368 5.89819C24.1547 6.19933 24.4165 6.43904 24.74 6.43904Z" fill="#D9D9DE"/>
<path d="M26.9007 7.61912L28.9211 10.8015L27.3798 11.6714L25.3594 8.48903L26.9007 7.61912Z" fill="#5D5E6C"/>
<path d="M25.052 5.61238C25.052 5.98456 25.3718 6.28587 25.7661 6.28587C26.161 6.28587 26.481 5.98456 26.481 5.61238C26.481 5.24019 26.1612 4.93872 25.7661 4.93872C25.3719 4.93872 25.052 5.24019 25.052 5.61238Z" fill="#CCCCCC"/>
<path d="M25.1311 5.53799C25.1311 5.90985 25.4512 6.21132 25.8456 6.21132C26.2405 6.21132 26.5601 5.91001 26.5601 5.53799C26.5601 5.16597 26.2405 4.8645 25.8456 4.8645C25.4512 4.8645 25.1311 5.16597 25.1311 5.53799Z" fill="#EDEDED"/>
<path d="M25.1432 5.64864C25.1918 5.44047 25.3879 5.28442 25.6229 5.28442C25.8944 5.28442 26.1145 5.49177 26.1145 5.74775C26.1145 5.96987 25.9488 6.15463 25.7282 6.20028C25.4287 6.15281 25.1933 5.93135 25.1432 5.64864Z" fill="#CCCCCC"/>
<path d="M25.3541 5.53747C25.3541 5.79362 25.574 6.00079 25.8457 6.00079C26.1172 6.00079 26.3373 5.79362 26.3373 5.53747C26.3373 5.28132 26.1172 5.07397 25.8457 5.07397C25.574 5.07397 25.3541 5.28132 25.3541 5.53747Z" fill="#393941"/>
<path d="M25.5236 5.53703C25.5236 5.70453 25.6678 5.84065 25.8456 5.84065C26.0234 5.84065 26.168 5.70453 26.168 5.53703C26.168 5.36936 26.0236 5.2334 25.8456 5.2334C25.6678 5.2334 25.5236 5.36936 25.5236 5.53703Z" fill="#D1D1D1"/>
<path d="M26.5949 5.0225C26.5949 5.10185 26.663 5.16559 26.7465 5.16559H27.2962C27.3801 5.16559 27.4478 5.10168 27.4478 5.0225V4.52315C27.4478 4.44396 27.38 4.37988 27.2962 4.37988H26.7465C26.663 4.37988 26.5949 4.44396 26.5949 4.52315V5.0225Z" fill="#CCCCCC"/>
<path d="M26.6716 4.95096C26.6716 5.02982 26.7396 5.09389 26.823 5.09389H27.3723C27.4563 5.09389 27.5239 5.02982 27.5239 4.95096V4.45145C27.5239 4.3721 27.4561 4.30835 27.3723 4.30835H26.823C26.7394 4.30835 26.6716 4.37226 26.6716 4.45145V4.95096Z" fill="#737584"/>
<path d="M28.2275 9.7097C28.4349 10.1573 28.6233 10.5746 28.7842 10.8764L27.3787 11.6696L27.0325 11.1246C26.5711 9.93249 26.1159 8.88598 26.4096 7.89359L26.8994 7.61719L28.2275 9.7097Z" fill="#D9D9DE"/>
<path d="M25.969 12.5833C26.1635 11.8168 26.746 11.1828 27.5231 10.8913L28.0191 10.7056L29.3341 14.3838L27.5509 18.6508L25.9547 17.9501C25.2503 17.6407 24.8727 16.9041 25.0536 16.1914L25.969 12.5833Z" fill="#B8B9C1"/>
<path d="M28.0191 10.7056L29.3341 14.3838L27.5509 18.6508L26.8465 18.3416C27.3671 17.5192 27.7974 16.467 27.9636 15.1305C28.1578 13.5662 27.7226 12.2114 27.2573 10.9911L28.0191 10.7056Z" fill="#D9D9DE"/>
<path d="M30.1375 23.0483C30.1375 25.7054 32.4226 27.8592 35.2403 27.8592C38.0582 27.8592 40.343 25.7054 40.343 23.0483C40.343 20.3905 38.0582 18.2371 35.2403 18.2371C32.4226 18.2371 30.1375 20.3907 30.1375 23.0483Z" fill="#393941"/>
<path d="M33.7578 19.0863L32.9356 18.5895C33.2254 18.4557 33.5301 18.3473 33.8462 18.2666L34.1788 18.4666C34.3603 18.5764 34.4129 18.8043 34.2966 18.9751C34.1805 19.1464 33.9388 19.1957 33.7578 19.0863Z" fill="#4C4D58"/>
<path d="M32.7726 19.5759C32.7298 19.7752 32.524 19.9038 32.3127 19.864L31.3761 19.6837C31.5961 19.4596 31.8368 19.2537 32.0967 19.0713L32.4685 19.1425C32.6798 19.1828 32.8159 19.3769 32.7726 19.5759Z" fill="#4C4D58"/>
<path d="M31.5827 20.6564C31.6192 20.8559 31.476 21.0465 31.2637 21.08L30.348 21.2278C30.4681 20.9422 30.6151 20.668 30.7867 20.4113L31.1325 20.3547C31.3452 20.3212 31.5468 20.4562 31.5827 20.6564Z" fill="#4C4D58"/>
<path d="M30.8861 22.0679C30.9967 22.2424 30.9361 22.4684 30.7514 22.5731L29.9819 23.0067C29.9843 22.6951 30.0178 22.3897 30.0785 22.0942L30.3511 21.9411C30.5359 21.8367 30.7756 21.894 30.8861 22.0679Z" fill="#4C4D58"/>
<path d="M30.2298 23.6857C30.3625 23.525 30.6081 23.497 30.7775 23.622C30.9478 23.7468 30.978 23.9777 30.8446 24.1379L30.312 24.7822C30.1991 24.4973 30.1145 24.1997 30.0579 23.8932L30.2298 23.6857Z" fill="#4C4D58"/>
<path d="M30.7145 25.5749L30.7851 25.3538C30.8477 25.1589 31.0656 25.0485 31.2713 25.1074C31.4778 25.1662 31.5947 25.3717 31.5327 25.5661L31.291 26.3214C31.0757 26.09 30.8822 25.8407 30.7145 25.5749Z" fill="#4C4D58"/>
<path d="M31.9426 26.7201C31.9257 26.5176 32.087 26.3405 32.3016 26.325C32.5168 26.3098 32.7043 26.4612 32.721 26.664L32.7833 27.433C32.4912 27.2875 32.2157 27.1161 31.959 26.9223L31.9426 26.7201Z" fill="#4C4D58"/>
<path d="M33.6319 27.7691L33.5458 27.6003C33.4527 27.4157 33.5347 27.1964 33.7291 27.1092C33.9236 27.0213 34.1562 27.0991 34.2497 27.2819L34.5978 27.9683C34.265 27.9298 33.9425 27.8637 33.6319 27.7691Z" fill="#4C4D58"/>
<path d="M35.9117 27.3383L36.5021 27.8622C36.1843 27.9354 35.8559 27.9834 35.5188 27.9997L35.3769 27.8738C35.2203 27.7349 35.2126 27.5018 35.3601 27.3536C35.5078 27.2067 35.7545 27.1999 35.9117 27.3383Z" fill="#4C4D58"/>
<path d="M37.1898 27.5073C36.99 27.4308 36.894 27.216 36.975 27.0279C37.0558 26.8396 37.2833 26.749 37.4833 26.8255L38.2455 27.1167C37.9745 27.2955 37.6838 27.4505 37.3784 27.5789L37.1898 27.5073Z" fill="#4C4D58"/>
<path d="M38.7397 26.5461C38.5242 26.5428 38.3522 26.3753 38.3554 26.1722C38.359 25.9686 38.5365 25.807 38.7517 25.8094L39.5992 25.8223C39.4119 26.0838 39.1992 26.3263 38.964 26.5489L38.7397 26.5461Z" fill="#4C4D58"/>
<path d="M39.3156 24.9057C39.2406 24.7148 39.3441 24.5035 39.5464 24.4326L40.3688 24.1467C40.2945 24.4553 40.1902 24.7541 40.0573 25.0387L39.8166 25.123C39.6145 25.1937 39.3904 25.0961 39.3156 24.9057Z" fill="#4C4D58"/>
<path d="M39.7251 23.3968C39.5822 23.2442 39.5978 23.0116 39.7591 22.8773L40.4417 22.3091C40.4796 22.5498 40.5 22.7968 40.5 23.0478C40.5 23.1139 40.4975 23.1806 40.4947 23.246L40.2759 23.4286C40.1144 23.5631 39.8681 23.5488 39.7251 23.3968Z" fill="#4C4D58"/>
<path d="M40.0547 21.6928C39.9558 21.8733 39.7199 21.9442 39.5288 21.8507C39.3375 21.7577 39.2628 21.5346 39.3617 21.3547L39.7945 20.5676C39.959 20.8351 40.0975 21.1186 40.207 21.4158L40.0547 21.6928Z" fill="#4C4D58"/>
<path d="M39.2223 19.8095L39.183 20.1494C39.1603 20.3513 38.9681 20.4971 38.7534 20.475C38.5393 20.4534 38.3846 20.2716 38.4071 20.0698L38.5117 19.166C38.7696 19.3589 39.0073 19.5749 39.2223 19.8095Z" fill="#4C4D58"/>
<path d="M37.5035 19.4573C37.2952 19.5099 37.0812 19.3929 37.0259 19.1967L36.7723 18.3027C37.088 18.3935 37.3917 18.5122 37.6794 18.6545L37.7792 19.0069C37.8352 19.2027 37.7116 19.4049 37.5035 19.4573Z" fill="#4C4D58"/>
<path d="M35.2402 18.0881C35.4286 18.0881 35.6142 18.0981 35.7976 18.1162L36.0325 18.4188C36.1594 18.5837 36.1216 18.8133 35.9475 18.9336C35.7735 19.0533 35.5297 19.0168 35.4024 18.8531L34.8229 18.1051C34.961 18.0953 35.0995 18.0881 35.2402 18.0881Z" fill="#4C4D58"/>
<path d="M35.2402 19.7051C37.1981 19.7051 38.7856 21.2015 38.7856 23.048C38.7856 24.8943 37.1981 26.3902 35.2402 26.3902C33.2821 26.3902 31.6949 24.8943 31.6949 23.048C31.695 21.2013 33.2822 19.7051 35.2402 19.7051Z" fill="#2E3645"/>
<path d="M35.2403 19.8721C37.1008 19.8721 38.6091 21.2939 38.6091 23.0488C38.6091 24.8022 37.1008 26.2247 35.2403 26.2247C33.3795 26.2247 31.8715 24.8022 31.8715 23.0488C31.8717 21.2939 33.3797 19.8721 35.2403 19.8721Z" fill="#001D33"/>
<path d="M35.1123 20.2502C36.8218 20.2502 38.2076 21.5567 38.2076 23.1683C38.2076 24.7801 36.822 26.0859 35.1123 26.0859C33.4036 26.0859 32.0178 24.7801 32.0178 23.1683C32.0178 21.5567 33.4036 20.2502 35.1123 20.2502ZM33.0935 21.8935C32.9131 21.8164 32.6991 21.8907 32.6166 22.0612C32.5338 22.2315 32.6139 22.4332 32.7942 22.5111C32.975 22.5895 33.1886 22.5138 33.2715 22.3436C33.3541 22.1728 33.2743 21.9711 33.0935 21.8935ZM37.6087 22.0612C37.5263 21.8909 37.3125 21.8164 37.1319 21.8935C36.9509 21.9711 36.8715 22.1728 36.9542 22.3436C37.0368 22.5136 37.2502 22.5888 37.431 22.5111C37.6117 22.4332 37.6916 22.2317 37.6087 22.0612ZM37.421 23.7925C37.6178 23.8189 37.8006 23.6899 37.8289 23.5043C37.8567 23.3186 37.7208 23.1471 37.5238 23.1203C37.327 23.0938 37.1444 23.2219 37.1162 23.4077C37.0879 23.5938 37.2245 23.7658 37.421 23.7925ZM36.6787 24.8651C36.8291 24.9878 37.0558 24.9721 37.1865 24.8307C37.3168 24.6891 37.3002 24.4745 37.1506 24.3518C36.9997 24.2291 36.7724 24.2445 36.6426 24.3861C36.5121 24.5282 36.5283 24.7417 36.6787 24.8651ZM36.207 21.53C36.3741 21.6318 36.597 21.5863 36.7046 21.4294C36.8122 21.2714 36.7632 21.0607 36.5961 20.9599C36.429 20.858 36.2061 20.9035 36.0984 21.0615C35.9912 21.2191 36.0396 21.4292 36.207 21.53ZM35.4385 25.3883C35.4945 25.5681 35.6952 25.6715 35.8857 25.6187C36.0764 25.5661 36.1859 25.3775 36.1297 25.1979C36.0736 25.0183 35.8737 24.9145 35.6827 24.9675C35.4922 25.0203 35.3829 25.2094 35.4385 25.3883ZM35.1128 21.2277C35.3112 21.2277 35.4727 21.0758 35.4727 20.8884C35.4727 20.701 35.3112 20.5491 35.1123 20.5491C34.9138 20.5491 34.7527 20.701 34.7527 20.8884C34.7527 21.0758 34.9138 21.2277 35.1128 21.2277ZM34.3392 25.6187C34.5302 25.6715 34.7306 25.5681 34.7864 25.3883C34.8422 25.2094 34.7328 25.0203 34.542 24.9675C34.3515 24.9145 34.1515 25.018 34.0955 25.1979C34.0393 25.3775 34.1483 25.566 34.3392 25.6187ZM34.0184 21.53C34.1853 21.4294 34.2341 21.2191 34.1261 21.0615C34.0189 20.9035 33.796 20.8578 33.6288 20.9599C33.4615 21.0607 33.4131 21.2714 33.5205 21.4294C33.6282 21.5863 33.8508 21.6318 34.0184 21.53ZM33.0388 24.8307C33.1689 24.9721 33.396 24.9878 33.5462 24.8651C33.6965 24.7417 33.7129 24.5284 33.5824 24.3861C33.4525 24.2445 33.2249 24.2291 33.0747 24.3518C32.9247 24.4743 32.9087 24.6889 33.0388 24.8307ZM32.8041 23.7925C33.0006 23.7658 33.1374 23.5938 33.1088 23.4079C33.0805 23.2221 32.8981 23.0938 32.7012 23.1205C32.5048 23.1471 32.368 23.3186 32.3963 23.5045C32.4252 23.6899 32.6067 23.8189 32.8041 23.7925Z" fill="#293345"/>
<path d="M35.2401 20.1289C36.9493 20.1289 38.3354 21.4357 38.3354 23.0476C38.3354 24.6591 36.9493 25.9654 35.2401 25.9654C33.5308 25.9654 32.145 24.6591 32.145 23.0476C32.1452 21.4357 33.531 20.1289 35.2401 20.1289ZM33.2212 21.7727C33.0405 21.6952 32.8262 21.7699 32.7444 21.9402C32.6616 22.111 32.7416 22.3126 32.922 22.3904C33.1028 22.4686 33.3166 22.3937 33.399 22.2228C33.4817 22.0516 33.4018 21.8507 33.2212 21.7727ZM37.7361 21.94C37.6537 21.7699 37.44 21.6952 37.2593 21.7725C37.0785 21.8506 36.9991 22.0516 37.0817 22.2226C37.1641 22.3934 37.3778 22.4679 37.5585 22.3903C37.7393 22.3126 37.8191 22.111 37.7361 21.94ZM37.5491 23.6713C37.7456 23.6981 37.928 23.5691 37.9567 23.384C37.9847 23.1975 37.8485 23.0264 37.6513 22.9998C37.4546 22.9723 37.2722 23.1013 37.244 23.2869C37.2157 23.473 37.3521 23.6453 37.5491 23.6713ZM36.8065 24.7442C36.9567 24.8671 37.1838 24.8516 37.3145 24.7099C37.4444 24.5679 37.428 24.3535 37.278 24.2313C37.1277 24.1086 36.9004 24.1235 36.7701 24.2653C36.64 24.4077 36.656 24.6212 36.8065 24.7442ZM36.3343 21.4093C36.5019 21.5114 36.7248 21.4651 36.8322 21.3079C36.9396 21.1505 36.891 20.9395 36.7239 20.8388C36.5565 20.7372 36.334 20.7833 36.2264 20.9408C36.119 21.0979 36.1674 21.3087 36.3343 21.4093ZM35.5663 25.2681C35.6223 25.4474 35.8225 25.5507 36.0133 25.4974C36.204 25.4454 36.3135 25.2567 36.2577 25.0769C36.2014 24.8976 36.0014 24.7939 35.8105 24.8468C35.6197 24.8994 35.5107 25.0884 35.5663 25.2681ZM35.2404 21.1065C35.4388 21.1065 35.6003 20.9545 35.6003 20.7675C35.6003 20.5799 35.4388 20.4281 35.2401 20.4281C35.0411 20.4281 34.8804 20.5799 34.8804 20.7675C34.8806 20.9545 35.0411 21.1065 35.2404 21.1065ZM34.4668 25.4974C34.658 25.5507 34.8582 25.4474 34.9138 25.2681C34.9698 25.0884 34.8608 24.8993 34.6698 24.8468C34.4791 24.7939 34.2791 24.8968 34.223 25.0769C34.1671 25.2567 34.2763 25.4454 34.4668 25.4974ZM34.1457 21.4093C34.3131 21.3086 34.3617 21.0979 34.2539 20.9408C34.1465 20.7833 33.9238 20.7372 33.7567 20.8388C33.5897 20.9395 33.5412 21.1505 33.6485 21.3079C33.756 21.4651 33.9786 21.5114 34.1457 21.4093ZM33.1664 24.7099C33.2967 24.8516 33.524 24.8671 33.6738 24.7442C33.8242 24.6212 33.8405 24.4077 33.7104 24.2653C33.5798 24.1234 33.3525 24.1086 33.2027 24.2313C33.0525 24.3535 33.0363 24.5679 33.1664 24.7099ZM32.9317 23.6713C33.1282 23.6453 33.265 23.473 33.2365 23.2869C33.2081 23.1014 33.0259 22.9723 32.8292 22.9998C32.6327 23.0262 32.4959 23.1974 32.5241 23.384C32.5525 23.5691 32.7345 23.6981 32.9317 23.6713Z" fill="#BABABA"/>
<path d="M34.1091 23.0479C34.1091 23.6364 34.6152 24.1135 35.2401 24.1135C35.8644 24.1135 36.3706 23.6364 36.3706 23.0479C36.3706 22.4595 35.8644 21.9814 35.2401 21.9814C34.6154 21.9816 34.1091 22.4597 34.1091 23.0479Z" fill="#6B6B6B"/>
<path d="M34.0037 23.2788C34.0037 23.7956 34.4472 24.2131 34.9946 24.2131C35.5422 24.2131 35.9858 23.7956 35.9858 23.2788C35.9858 22.7625 35.5422 22.344 34.9946 22.344C34.4472 22.344 34.0037 22.7625 34.0037 23.2788Z" fill="#B8B8B8"/>
<path d="M34.2494 23.0482C34.2494 23.5643 34.6927 23.9825 35.2403 23.9825C35.7876 23.9825 36.2313 23.5643 36.2313 23.0482C36.2313 22.5318 35.7876 22.1138 35.2403 22.1138C34.6925 22.1138 34.2494 22.5318 34.2494 23.0482Z" fill="#E0E0E0"/>
<path d="M34.367 23.0483C34.367 23.5027 34.7574 23.8711 35.2401 23.8711C35.7222 23.8711 36.1134 23.5027 36.1134 23.0483C36.1134 22.5935 35.7222 22.2246 35.2401 22.2246C34.7575 22.2248 34.367 22.5935 34.367 23.0483Z" fill="#D1D1D1"/>
<path d="M35.981 23.173C35.981 22.718 35.5896 22.3498 35.1076 22.3498C34.9 22.3498 34.71 22.4177 34.5605 22.5319C34.7206 22.3446 34.9655 22.2246 35.2401 22.2246C35.7222 22.2246 36.1134 22.5935 36.1134 23.0483C36.1134 23.3078 35.9859 23.5384 35.7872 23.6891C35.9083 23.5475 35.981 23.3686 35.981 23.173Z" fill="#DBDBDB"/>
<path d="M35.3314 23.5809L36.8848 21.9435C37.088 21.7296 37.1273 21.4156 36.982 21.163L34.7376 17.2527L34.0316 17.6128L36.2503 21.4774L34.7328 23.0759L35.3314 23.5809Z" fill="#C7C7C7"/>
<path d="M34.7377 17.2532L35.7249 18.9735C35.4226 18.9933 35.1308 19.018 34.856 19.0487L34.0316 17.6132L34.7377 17.2532Z" fill="#CCCCCC"/>
<path d="M31.0291 14.9321L33.8376 20.0632L33.2466 20.3509L30.438 15.2197L31.0291 14.9321Z" fill="#858585"/>
<path d="M34.8043 23.443C34.9135 23.6416 35.1728 23.7198 35.3843 23.6172C35.595 23.5147 35.6779 23.2699 35.5689 23.0703L33.6027 19.4778L32.8382 19.8495L34.8043 23.443Z" fill="#B2B2B2"/>
<path opacity="0.3" d="M35.144 23.0867C35.1807 23.1534 35.2676 23.1796 35.3384 23.1451C35.4092 23.1106 35.4368 23.0292 35.4006 22.9617L33.6582 19.7868C33.622 19.7206 33.535 19.6942 33.4644 19.7284C33.3934 19.7627 33.3654 19.8447 33.4021 19.9113L35.144 23.0867Z" fill="white"/>
<path d="M32.3875 17.4181H31.639L30.4358 15.2201L31.027 14.9326L32.3875 17.4181Z" fill="#666666"/>
<path d="M32.8425 19.6167L31.0787 16.3946C31.1527 16.3433 31.2271 16.2936 31.3041 16.2466C31.4164 16.1781 31.5289 16.1147 31.6423 16.0564L33.3748 19.2212C33.1913 19.3402 33.0133 19.4733 32.8425 19.6167Z" fill="#CCCCCC"/>
<path d="M39.7225 17.5783C38.8531 16.612 34.8521 13.5679 31.3632 15.7079C28.6208 17.3892 27.841 21.677 27.841 21.677L30.3582 21.4399C30.7373 21.4042 31.0734 21.1947 31.2834 20.8948C31.7703 20.2002 32.7603 18.9512 33.9045 18.4189C34.7056 18.0464 37.224 18.1178 38.397 18.1746C38.7846 18.1928 39.1686 18.0682 39.4517 17.8177L39.7225 17.5783Z" fill="#41414B"/>
<path d="M30.2238 21.2546C30.6027 21.2191 30.9386 21.0101 31.1487 20.7103C31.6359 20.0154 32.6259 18.7665 33.7699 18.2341C34.5712 17.8618 37.0894 17.9328 38.2627 17.9896C38.6502 18.008 39.0339 17.8832 39.3172 17.6333L39.5642 17.4146C39.624 17.4733 39.6781 17.5294 39.7223 17.5781L39.4515 17.8173C39.1684 18.068 38.7844 18.1926 38.3967 18.1742C37.2238 18.1174 34.7054 18.046 33.9043 18.4186C32.7598 18.9508 31.77 20.1998 31.2832 20.8944C31.0732 21.1944 30.7371 21.4039 30.358 21.4396L27.8408 21.6766C27.8408 21.6766 27.8542 21.6041 27.8825 21.4757L30.2238 21.2546Z" fill="#DBDBDB"/>
<path d="M0.800985 20.1427C0.800985 20.1427 1.87075 16.8638 6.71919 13.2382C9.46068 13.2382 16.0025 13.2382 18.8262 13.2382C19.1822 13.2382 19.2857 13.6783 19.0025 13.8813C18.0831 14.5398 16.9515 15.7497 16.9515 17.7152C16.9515 20.5528 20.4957 20.2375 22.201 20.2375C22.7422 20.2375 22.4457 20.2375 23.4539 20.2375C24.3183 20.2375 25.2061 20.0906 25.8793 19.5791C26.8195 18.8651 28.0581 17.4962 28.3536 15.1192C28.7634 11.8163 25.9959 9.56511 27.2833 7.48438C28.1527 7.83116 29.0775 10.597 29.5797 11.3152C30.2704 12.3027 30.9394 13.0805 32.2099 13.3746C32.433 13.8162 32.4997 14.5939 32.4553 14.9618C32.0539 15.0561 30.1811 15.6239 29.4011 16.8638C28.6206 18.1037 27.707 22.0764 24.4745 22.0764C22.1017 22.0764 17.9878 22.0764 15.1122 22.0764V20.5033L14.6887 20.0624C14.6887 20.0624 7.2208 19.2001 6.19558 19.1165C5.17001 19.0321 3.18806 20.5677 3.18806 20.5677L3.44247 21.4353L3.46976 22.0809C3.00812 22.1011 0.499918 22.1182 0.499918 20.1427C0.800987 20.1427 0.800985 20.1427 0.800985 20.1427Z" fill="#41414B"/>
<path d="M10.2476 14.2056C14.6593 14.2056 17.3018 17.9613 15.1123 20.9448V20.5037L14.6888 20.0628C14.6888 20.0628 7.22091 19.2005 6.19569 19.1169C5.17012 19.0325 3.18817 20.5681 3.18817 20.5681L3.43184 21.6775H2.79132C2.79132 21.6775 0.818352 21.3625 1.65448 19.5336C2.49025 17.7048 5.46626 14.2056 10.2476 14.2056Z" fill="#DBDBDB"/>
<path d="M15.1123 21.6774L14.5438 20.9209H3.97748L3.44242 21.6774C3.44242 21.6774 1.46962 21.3623 2.3054 19.5334C3.14135 17.7047 6.11736 14.2056 10.8991 14.2056C15.6806 14.2054 18.3892 18.6192 15.1123 21.6774Z" fill="#5D5E6C"/>
<path d="M35.9519 21.493C35.9519 21.8451 36.2551 22.131 36.6291 22.131C37.0028 22.131 37.306 21.8451 37.306 21.493C37.306 21.1403 37.0028 20.8542 36.6291 20.8542C36.2553 20.8544 35.9519 21.1403 35.9519 21.493Z" fill="#D6D6D6"/>
<path d="M10.7119 10.5414C11.0089 10.5414 11.3008 10.6204 11.5526 10.769L12.7054 11.4488C12.9539 11.5957 13.2511 11.655 13.5414 11.6158L19.2096 10.8543C19.4966 10.8155 19.7897 10.8895 20.0184 11.0577L20.9174 11.7199C21.4125 12.0848 21.5206 12.7508 21.1637 13.2385H20.1614H6.0173V11.8024C6.0173 11.1058 6.61627 10.5413 7.35468 10.5413H10.7119V10.5414Z" fill="#91939F"/>
<path d="M7.35468 10.5417H7.92319C7.18461 10.5417 6.58581 11.1062 6.58581 11.8029V12.8434H21.3459C21.3137 12.9817 21.2537 13.1162 21.1637 13.2392H20.1614H6.58581H6.0173V12.8434V11.8029C6.01713 11.1063 6.61627 10.5417 7.35468 10.5417Z" fill="#737584"/>
<path d="M3.6308 20.0883H4.62327C4.85444 20.0883 5.04248 19.9112 5.04248 19.6934V19.2453C5.04248 19.028 4.85462 18.8506 4.62327 18.8506H3.6308C3.39981 18.8506 3.21195 19.0279 3.21195 19.2453V19.6934C3.21177 19.9112 3.39981 20.0883 3.6308 20.0883Z" fill="#EDEDED"/>
<path d="M4.62302 19.0566C4.73359 19.0566 4.82373 19.1413 4.82373 19.2454V19.6934C4.82373 19.7975 4.73359 19.8827 4.62302 19.8827H3.63055C3.52016 19.8827 3.43036 19.7975 3.43036 19.6934V19.2454C3.43036 19.1413 3.52016 19.0566 3.63055 19.0566H4.62302Z" fill="#FFD505"/>
<path opacity="0.3" d="M4.47446 19.2356C4.52939 19.2356 4.57446 19.2774 4.57446 19.3296V19.4061C4.57446 19.4578 4.52939 19.5 4.47446 19.5H4.1373C4.08236 19.5 4.03747 19.4576 4.03747 19.4061V19.3296C4.03747 19.2773 4.08236 19.2356 4.1373 19.2356H4.47446Z" fill="white"/>
<path opacity="0.3" d="M37.7647 16.8589C37.9808 16.9544 38.1952 16.7005 38.0084 16.5612C37.6626 16.3028 37.2906 16.0719 36.895 15.8736C36.1089 15.4747 35.2074 15.2108 34.2692 15.2108C33.3334 15.2048 32.3872 15.5053 31.6588 16.032C31.29 16.2913 30.9692 16.5951 30.6972 16.9285C30.5512 17.1072 30.825 17.3051 31.0111 17.1634C31.3284 16.9221 31.6557 16.7062 31.9999 16.5269C32.7107 16.1598 33.4811 15.965 34.2702 15.9673C35.0604 15.964 35.858 16.1452 36.6393 16.41C37.0182 16.541 37.3915 16.6939 37.7647 16.8589Z" fill="white"/>
<path d="M6.71934 13.2378C9.46083 13.2378 16.0027 13.2378 18.8264 13.2378C19.1824 13.2378 19.2859 13.6779 19.0026 13.8809C19.0021 13.8814 19.0008 13.8821 19.0001 13.8826H5.89201C6.15505 13.6694 6.42989 13.4541 6.71934 13.2378Z" fill="#5D5E6C"/>
<path opacity="0.3" d="M15.1157 17.1011C15.245 17.2446 15.557 17.1528 15.4673 16.9851C15.4388 16.9318 15.4094 16.8785 15.3795 16.8262C15.1268 16.4095 14.8061 16.0231 14.4215 15.6952C13.6601 15.0275 12.6479 14.6072 11.614 14.4837C10.5765 14.3559 9.53329 14.4981 8.57956 14.8013C8.05594 14.9656 7.55363 15.175 7.07738 15.4238C6.88494 15.5246 7.00907 15.8008 7.21982 15.741C7.72759 15.5976 8.23324 15.4698 8.74154 15.372C9.67045 15.199 10.6055 15.1217 11.51 15.2337C12.4126 15.3416 13.2754 15.6502 14.0275 16.1514C14.4006 16.4046 14.7509 16.6994 15.0584 17.0374C15.0774 17.0588 15.0969 17.0797 15.1157 17.1011Z" fill="white"/>
<path d="M20.1612 20.0574C20.1612 19.9609 20.2442 19.8828 20.3461 19.8828H23.8885C23.9904 19.8828 24.0734 19.9609 24.0734 20.0574C24.0734 20.1532 23.9904 20.2316 23.8885 20.2316H20.3461C20.2442 20.2316 20.1612 20.1532 20.1612 20.0574Z" fill="#3C4B66"/>
<path d="M32.0776 13.2092C32.2165 13.2482 32.3408 13.3351 32.3903 13.4639C32.5515 13.8857 32.6193 14.4173 32.5943 14.8731C32.588 14.9898 32.4927 15.0823 32.3739 15.1147C32.1862 15.1658 32.0392 15.2153 31.8841 15.2725C31.7689 15.3149 31.6367 15.2606 31.6054 15.1482L30.9619 12.8465C30.9414 12.7733 31.0295 12.7174 31.0965 12.7587C31.4238 12.9607 31.6642 13.094 32.0776 13.2092Z" fill="#D9D9DE"/>
<path opacity="0.3" d="M13.0727 12.2128L10.6624 10.5417H10.7115C11.0085 10.5417 11.3005 10.6208 11.5522 10.7693L12.7051 11.4491C12.9535 11.5961 13.2507 11.6553 13.541 11.6161L19.2092 10.8547C19.3108 10.8409 19.4117 10.8462 19.5117 10.8598L13.0727 12.2128Z" fill="white"/>
</svg>
