<svg width="20" height="20" viewBox="0 0 20 20" fill="none" xmlns="http://www.w3.org/2000/svg">
<path opacity="0.4" d="M14.998 5.967C14.948 5.95866 14.8897 5.95866 14.8397 5.967C13.6897 5.92533 12.773 4.98366 12.773 3.81699C12.773 2.62533 13.7313 1.66699 14.923 1.66699C16.1147 1.66699 17.073 2.63366 17.073 3.81699C17.0647 4.98366 16.148 5.92533 14.998 5.967Z" stroke="#FA9B25" stroke-width="1.25" stroke-linecap="round" stroke-linejoin="round"/>
<path opacity="0.4" d="M14.1396 12.0338C15.2812 12.2255 16.5396 12.0255 17.4229 11.4338C18.5979 10.6505 18.5979 9.36713 17.4229 8.58379C16.5312 7.99213 15.2562 7.79212 14.1146 7.99212" stroke="#FA9B25" stroke-width="1.25" stroke-linecap="round" stroke-linejoin="round"/>
<path opacity="0.4" d="M4.97289 5.967C5.02289 5.95866 5.08122 5.95866 5.13122 5.967C6.28122 5.92533 7.19789 4.98366 7.19789 3.81699C7.19789 2.62533 6.23956 1.66699 5.04789 1.66699C3.85622 1.66699 2.89789 2.63366 2.89789 3.81699C2.90622 4.98366 3.82289 5.92533 4.97289 5.967Z" stroke="#FA9B25" stroke-width="1.25" stroke-linecap="round" stroke-linejoin="round"/>
<path opacity="0.4" d="M5.83127 12.0338C4.6896 12.2255 3.43127 12.0255 2.54794 11.4338C1.37294 10.6505 1.37294 9.36713 2.54794 8.58379C3.4396 7.99213 4.7146 7.79212 5.85627 7.99212" stroke="#FA9B25" stroke-width="1.25" stroke-linecap="round" stroke-linejoin="round"/>
<path d="M9.99996 12.1916C9.94996 12.1833 9.89163 12.1833 9.84163 12.1916C8.69163 12.1499 7.77496 11.2083 7.77496 10.0416C7.77496 8.84994 8.7333 7.8916 9.92496 7.8916C11.1166 7.8916 12.075 8.85827 12.075 10.0416C12.0666 11.2083 11.15 12.1583 9.99996 12.1916Z" stroke="#FA9B25" stroke-width="1.25" stroke-linecap="round" stroke-linejoin="round"/>
<path d="M7.57498 14.8158C6.39998 15.5992 6.39998 16.8825 7.57498 17.6658C8.90831 18.5575 11.0916 18.5575 12.425 17.6658C13.6 16.8825 13.6 15.5992 12.425 14.8158C11.1 13.9325 8.90831 13.9325 7.57498 14.8158Z" stroke="#FA9B25" stroke-width="1.25" stroke-linecap="round" stroke-linejoin="round"/>
</svg>
