<svg xmlns="http://www.w3.org/2000/svg" width="13.791" height="9.149" viewBox="0 0 13.791 9.149">
  <path id="Combined-Shape-Copy" d="M4.355,0H.726A.785.785,0,0,0,0,.832v1.7A2.037,2.037,0,0,1,1.451,4.574,2.037,2.037,0,0,1,0,6.612v1.7a.785.785,0,0,0,.726.831H4.355V7.485a.785.785,0,0,1,.726-.831.785.785,0,0,1,.726.831V9.149h7.258a.785.785,0,0,0,.726-.831v-1.7a2.037,2.037,0,0,1-1.451-2.038,2.037,2.037,0,0,1,1.451-2.037V.832A.785.785,0,0,0,13.065,0H5.806V1.664a.785.785,0,0,1-.726.831.785.785,0,0,1-.726-.831V0ZM6.021,5.822a.847.847,0,0,1-.86-.831V4.159a.861.861,0,0,1,1.72,0v.832A.847.847,0,0,1,6.021,5.822Z" transform="translate(13.791 9.149) rotate(180)" fill="#71c0a3"/>
</svg>
