<svg width="23" height="24" viewBox="0 0 23 24" fill="none" xmlns="http://www.w3.org/2000/svg">
<path d="M14.7996 15.7709C15.4502 15.1204 16.5061 15.1204 17.1567 15.7709L17.6281 15.2995C19.5137 13.4139 19.5137 12.4711 17.6281 10.5855L12.914 5.87143C11.0284 3.98581 10.0856 3.98581 8.19998 5.87143L7.96428 6.10713C8.61482 6.75767 8.61482 7.81361 7.96428 8.46415C7.31374 9.11469 6.2578 9.11469 5.60726 8.46415L5.37156 8.69985C3.48594 10.5855 3.48594 11.5283 5.37156 13.4139L10.0856 18.1279C11.9712 20.0136 12.914 20.0136 14.7996 18.1279C14.1491 17.4774 14.1491 16.4215 14.7996 15.7709Z" stroke="#FA9B25" stroke-linecap="round" stroke-linejoin="round"/>
<path opacity="0.4" d="M8.78919 11.8819L14.446 11.8819" stroke="#FA9B25" stroke-linecap="round" stroke-linejoin="round"/>
<path opacity="0.4" d="M11.615 14.7078L11.6193 14.7121" stroke="#FA9B25" stroke-width="1.33333" stroke-linecap="round" stroke-linejoin="round"/>
<path opacity="0.4" d="M11.3794 9.28644L11.3836 9.29068" stroke="#FA9B25" stroke-width="1.33333" stroke-linecap="round" stroke-linejoin="round"/>
</svg>
