<svg width="73" height="72" viewBox="0 0 73 72" fill="none" xmlns="http://www.w3.org/2000/svg">
<g clip-path="url(#clip0_165_3431)">
<path d="M47.75 50.0625H25.25C23.6967 50.0625 22.4375 51.3217 22.4375 52.875C22.4375 54.4283 23.6967 55.6875 25.25 55.6875H47.75C49.3033 55.6875 50.5625 54.4283 50.5625 52.875C50.5625 51.3217 49.3033 50.0625 47.75 50.0625Z" fill="#4C4D58"/>
<path d="M36.5 0C16.3131 0 0.5 15.8131 0.5 36C0.5 56.1869 16.3131 72 36.5 72C46.4245 72 55.6031 68.1583 62.2902 61.3527C63.3789 60.2447 63.3632 58.464 62.2553 57.3754C61.1476 56.2868 59.3666 56.3025 58.278 57.4103C52.4614 63.3299 44.7049 66.375 36.5 66.375C19.4672 66.375 6.125 53.0328 6.125 36C6.125 18.9672 19.4672 5.625 36.5 5.625C53.702 5.625 66.875 19.0093 66.875 36C66.875 36.2914 66.8711 36.5865 66.8633 36.8774C66.8218 38.4301 68.047 39.7225 69.5998 39.764C71.1462 39.8053 72.4447 38.5803 72.4862 37.0277C72.4954 36.6871 72.5 36.3414 72.5 36.0001C72.5 15.8124 56.6838 0 36.5 0Z" fill="#4C4D58"/>
<path d="M58.9153 38.1254C60.3898 35.9017 61.25 33.2371 61.25 30.375C61.25 22.6209 54.9416 16.3125 47.1875 16.3125C39.4334 16.3125 33.125 22.6209 33.125 30.375C33.125 38.1291 39.4334 44.4375 47.1875 44.4375C50.0496 44.4375 52.7142 43.5773 54.9379 42.1028L67.6988 54.8637C68.2479 55.4129 68.9676 55.6875 69.6875 55.6875C70.4074 55.6875 71.1271 55.4129 71.6762 54.8637C72.7746 53.7653 72.7746 51.9846 71.6762 50.8863L58.9153 38.1254ZM38.75 30.375C38.75 25.7226 42.5351 21.9375 47.1875 21.9375C51.8399 21.9375 55.625 25.7226 55.625 30.375C55.625 35.0274 51.8399 38.8125 47.1875 38.8125C42.5351 38.8125 38.75 35.0274 38.75 30.375Z" fill="#A92CCD"/>
<path d="M19.625 38.8125C21.1783 38.8125 22.4375 37.5533 22.4375 36V33.1875H25.25C26.8033 33.1875 28.0625 31.9283 28.0625 30.375C28.0625 28.8217 26.8033 27.5625 25.25 27.5625H14C12.4467 27.5625 11.1875 28.8217 11.1875 30.375C11.1875 31.9283 12.4467 33.1875 14 33.1875H16.8125V36C16.8125 37.5533 18.0717 38.8125 19.625 38.8125Z" fill="#4C4D58"/>
</g>
<defs>
<clipPath id="clip0_165_3431">
<rect width="72" height="72" fill="white" transform="translate(0.5)"/>
</clipPath>
</defs>
</svg>
