<svg width="48" height="48" viewBox="0 0 48 48" fill="none" xmlns="http://www.w3.org/2000/svg">
<path d="M20.5 31H20C16 31 14 30 14 25V20C14 16 16 14 20 14H28C32 14 34 16 34 20V25C34 29 32 31 28 31H27.5C27.19 31 26.89 31.15 26.7 31.4L25.2 33.4C24.54 34.28 23.46 34.28 22.8 33.4L21.3 31.4C21.14 31.18 20.77 31 20.5 31Z" stroke="#2E2E34" stroke-width="1.5" stroke-miterlimit="10" stroke-linecap="round" stroke-linejoin="round"/>
<path opacity="0.4" d="M27.9965 23H28.0054" stroke="#2E2E34" stroke-width="2" stroke-linecap="round" stroke-linejoin="round"/>
<path opacity="0.4" d="M23.9955 23H24.0045" stroke="#2E2E34" stroke-width="2" stroke-linecap="round" stroke-linejoin="round"/>
<path opacity="0.4" d="M19.9945 23H20.0035" stroke="#2E2E34" stroke-width="2" stroke-linecap="round" stroke-linejoin="round"/>
</svg>
