<svg width="20" height="20" viewBox="0 0 20 20" fill="none" xmlns="http://www.w3.org/2000/svg">
<path d="M8.74166 1.85781L4.58334 3.41614C3.62501 3.77447 2.84167 4.9078 2.84167 5.9328V12.1245C2.84167 13.1078 3.49168 14.3995 4.28335 14.9911L7.86667 17.6661C9.04167 18.5495 10.975 18.5495 12.15 17.6661L15.7333 14.9911C16.525 14.3995 17.175 13.1078 17.175 12.1245V5.9328C17.175 4.9078 16.3917 3.77447 15.4333 3.41614L11.275 1.85781C10.5667 1.59948 9.43333 1.59948 8.74166 1.85781Z" stroke="#FA9B25" stroke-width="1.25" stroke-linecap="round" stroke-linejoin="round"/>
<path opacity="0.4" d="M10 9.10034C9.96668 9.10034 9.92501 9.10034 9.89167 9.10034C9.10834 9.07534 8.48334 8.42533 8.48334 7.63367C8.48334 6.82533 9.14168 6.16699 9.95001 6.16699C10.7583 6.16699 11.4167 6.82533 11.4167 7.63367C11.4084 8.43367 10.7833 9.07534 10 9.10034Z" stroke="#FA9B25" stroke-width="1.25" stroke-linecap="round" stroke-linejoin="round"/>
<path opacity="0.4" d="M8.3417 11.4338C7.5417 11.9671 7.5417 12.8421 8.3417 13.3754C9.25003 13.9838 10.7417 13.9838 11.65 13.3754C12.45 12.8421 12.45 11.9671 11.65 11.4338C10.75 10.8255 9.25837 10.8255 8.3417 11.4338Z" stroke="#FA9B25" stroke-width="1.25" stroke-linecap="round" stroke-linejoin="round"/>
</svg>
