<svg width="32" height="32" viewBox="0 0 32 32" fill="none" xmlns="http://www.w3.org/2000/svg">
<path opacity="0.4" d="M17.3335 14.8672H9.3335" stroke="#FA9B25" stroke-width="2" stroke-linecap="round" stroke-linejoin="round"/>
<path opacity="0.4" d="M2.6665 14.8661V8.70614C2.6665 5.98614 4.86651 3.78613 7.58651 3.78613H15.0798C17.7998 3.78613 19.9998 5.47946 19.9998 8.19946" stroke="#FA9B25" stroke-width="2" stroke-linecap="round" stroke-linejoin="round"/>
<path d="M23.3065 16.2668C22.6398 16.9068 22.3198 17.8935 22.5865 18.9068C22.9198 20.1468 24.1465 20.9335 25.4265 20.9335H26.6665V22.8669C26.6665 25.8135 24.2798 28.2002 21.3332 28.2002H7.99984C5.05317 28.2002 2.6665 25.8135 2.6665 22.8669V13.5335C2.6665 10.5869 5.05317 8.2002 7.99984 8.2002H21.3332C24.2665 8.2002 26.6665 10.6002 26.6665 13.5335V15.4668H25.2265C24.4798 15.4668 23.7998 15.7602 23.3065 16.2668Z" stroke="#FA9B25" stroke-width="2" stroke-linecap="round" stroke-linejoin="round"/>
<path d="M29.3335 16.8258V19.5725C29.3335 20.3192 28.7201 20.9325 27.9601 20.9325H25.3868C23.9468 20.9325 22.6268 19.8792 22.5068 18.4392C22.4268 17.5992 22.7468 16.8125 23.3068 16.2659C23.8001 15.7592 24.4801 15.4658 25.2268 15.4658H27.9601C28.7201 15.4658 29.3335 16.0792 29.3335 16.8258Z" stroke="#FA9B25" stroke-width="2" stroke-linecap="round" stroke-linejoin="round"/>
</svg>
