<svg width="20" height="20" viewBox="0 0 20 20" fill="none" xmlns="http://www.w3.org/2000/svg">
<path d="M10.55 2.09877L10.525 2.15711L8.10836 7.76544H5.73336C5.1667 7.76544 4.62503 7.88211 4.13336 8.09044L5.5917 4.60711L5.62503 4.52377L5.68336 4.39044C5.70003 4.34044 5.7167 4.29044 5.7417 4.24877C6.83336 1.72377 8.0667 1.14877 10.55 2.09877Z" stroke="#FA9B25" stroke-width="1.25" stroke-linecap="round" stroke-linejoin="round"/>
<path d="M15.0417 7.93197C14.6667 7.8153 14.2667 7.7653 13.8667 7.7653H8.10834L10.525 2.15697L10.55 2.09863C10.675 2.1403 10.7917 2.19863 10.9167 2.24863L12.7583 3.02363C13.7833 3.44863 14.5 3.8903 14.9333 4.42363C15.0167 4.52363 15.0833 4.6153 15.1417 4.72363C15.2167 4.8403 15.275 4.95697 15.3083 5.08197C15.3417 5.15697 15.3667 5.23197 15.3833 5.29863C15.6083 5.99863 15.475 6.85697 15.0417 7.93197Z" stroke="#FA9B25" stroke-width="1.25" stroke-linecap="round" stroke-linejoin="round"/>
<path d="M17.9348 11.8323V13.4573C17.9348 13.624 17.9265 13.7906 17.9181 13.9573C17.7598 16.8656 16.1348 18.3323 13.0515 18.3323H6.55145C6.35145 18.3323 6.15145 18.3156 5.95979 18.2906C3.30979 18.1156 1.89312 16.699 1.71812 14.049C1.69312 13.8573 1.67645 13.6573 1.67645 13.4573V11.8323C1.67645 10.1573 2.69312 8.71563 4.14312 8.09063C4.64312 7.88229 5.17645 7.76562 5.74312 7.76562H13.8765C14.2848 7.76562 14.6848 7.82396 15.0515 7.93229C16.7098 8.44063 17.9348 9.99063 17.9348 11.8323Z" stroke="#FA9B25" stroke-width="1.25" stroke-linecap="round" stroke-linejoin="round"/>
<path opacity="0.4" d="M5.59169 4.60742L4.13335 8.09076C2.68335 8.71576 1.66669 10.1574 1.66669 11.8324V9.39076C1.66669 7.02409 3.35002 5.04909 5.59169 4.60742Z" stroke="#FA9B25" stroke-width="1.25" stroke-linecap="round" stroke-linejoin="round"/>
<path opacity="0.4" d="M17.9322 9.38939V11.8311C17.9322 9.99772 16.7155 8.43939 15.0488 7.93939C15.4822 6.85605 15.6072 6.00605 15.3988 5.29772C15.3822 5.22272 15.3572 5.14772 15.3238 5.08105C16.8738 5.88105 17.9322 7.52272 17.9322 9.38939Z" stroke="#FA9B25" stroke-width="1.25" stroke-linecap="round" stroke-linejoin="round"/>
</svg>
